<?xml version="1.0" ?><!DOCTYPE svg  PUBLIC '-//W3C//DTD SVG 1.1//EN'  'http://www.w3.org/Graphics/SVG/1.1/DTD/svg11.dtd'><svg id="Layer_1" style="enable-background:new 0 0 66 66;" version="1.1" viewBox="0 0 66 66" xml:space="preserve" xmlns="http://www.w3.org/2000/svg" xmlns:xlink="http://www.w3.org/1999/xlink"><style type="text/css">
	.st0{fill:#FFFFFF;}
	.st1{fill:#EAEAEA;}
	.st2{fill:#FAD374;stroke:#3B3049;stroke-width:2;stroke-miterlimit:10;}
	.st3{fill:none;stroke:#3B3049;stroke-width:2;stroke-miterlimit:10;}
	.st4{fill:#4DBA61;stroke:#3B3049;stroke-width:2;stroke-miterlimit:10;}
	.st5{fill:#FDFDFD;}
	.st6{fill:#FAD374;}
	.st7{fill:#F4C660;}
	.st8{fill:#EF3B58;}
	.st9{fill:#49CBD8;}
	.st10{fill:#E3E5E4;}
	.st11{fill:#4DBA61;}
	.st12{fill:#2FAD4A;}
	.st13{fill:#DD3E52;}
	.st14{fill:#FFFFFF;stroke:#3B3049;stroke-width:2;stroke-miterlimit:10;}
	.st15{fill:#EF3B58;stroke:#3B3049;stroke-width:2;stroke-miterlimit:10;}
	.st16{fill:#2D8BBE;}
	.st17{fill:none;stroke:#FFFFFF;stroke-width:2;stroke-miterlimit:10;}
	.st18{fill:none;stroke:#3B3049;stroke-width:2;stroke-linecap:round;stroke-miterlimit:10;}
</style><g><path class="st8" d="M16.9,56V22.6h-8V64h40.2v-8H16.9z"/><path class="st0" d="M16.9,14.6h40.2V56H16.9V14.6z"/><path class="st1" d="M16.9,14.6V56h2.7V14.6H16.9z"/><g><line class="st3" x1="51.2" x2="22.7" y1="48.1" y2="48.1"/><line class="st3" x1="51.2" x2="22.7" y1="40.1" y2="40.1"/><line class="st3" x1="37" x2="22.7" y1="32.2" y2="32.2"/></g><path class="st3" d="M30.6,14.9v6.5c0,1.5-1.2,2.7-2.7,2.7h0c-1.5,0-2.7-1.2-2.7-2.7V7.5c0-3,2.4-5.5,5.5-5.5h0   c3,0,5.5,2.4,5.5,5.5v10.6"/><path class="st0" d="M8.9,22.6V64h2.7V22.6H8.9z"/><path class="st3" d="M16.9,14.6h40.2V56H16.9V14.6z"/><path class="st3" d="M16.9,56V22.6h-8V64h40.2v-8H16.9z"/></g></svg>