<?xml version="1.0" encoding="UTF-8" standalone="no"?>
<!-- Created with Inkscape (http://www.inkscape.org/) -->

<svg
   xmlns:svg="http://www.w3.org/2000/svg"
   xmlns="http://www.w3.org/2000/svg"
   version="1.1"
   width="300"
   height="71.381744"
   id="svg2816"
   xml:space="preserve"><defs
     id="defs2820"><clipPath
       id="clipPath2832"><path
         d="M 0,0 306,0 306,864 0,864 0,0 z"
         id="path2834" /></clipPath><clipPath
       id="clipPath2842"><path
         d="m -9,777 103.08,0 0,96 -103.08,0 0,-96 z"
         id="path2844" /></clipPath><clipPath
       id="clipPath2850"><path
         d="m -44.896,926.331 137.915,0 0,-178.479 -137.915,0 0,178.479 z"
         id="path2852" /></clipPath><clipPath
       id="clipPath2858"><path
         d="m -44.896,926.331 137.915,0 0,-178.479 -137.915,0 0,178.479 z"
         id="path2860" /></clipPath><clipPath
       id="clipPath2866"><path
         d="m -44.896,926.331 137.915,0 0,-178.479 -137.915,0 0,178.479 z"
         id="path2868" /></clipPath><clipPath
       id="clipPath5940"><path
         d="m 80,908.2 267.715,0 0,-278.776 -267.715,0 0,278.776 z"
         id="path5942" /></clipPath><clipPath
       id="clipPath5944"><path
         d="m 81,630.424 265.715,0 0,276.776 -265.715,0 0,-276.776 z"
         id="path5946" /></clipPath><clipPath
       id="clipPath5948"><path
         d="m 74.299,950.611 276.143,0 0,-357.362 -276.143,0 0,357.362 z"
         id="path5950" /></clipPath><clipPath
       id="clipPath5952"><path
         d="m 74.299,950.611 276.143,0 0,-357.362 -276.143,0 0,357.362 z"
         id="path5954" /></clipPath><clipPath
       id="clipPath5956"><path
         d="m 74.299,950.611 276.143,0 0,-357.362 -276.143,0 0,357.362 z"
         id="path5958" /></clipPath><clipPath
       id="clipPath8804"><path
         d="m 173.455,691.375 118.669,0 0,29.625 -118.669,0 0,-29.625 z"
         id="path8806" /></clipPath></defs><g
     transform="matrix(1.25,0,0,-1.25,350.63889,1016.2774)"
     id="g2826"><g
       id="g14858"><path
         d="m -166.91292,764.42665 0.48512,1.80455 -6.24797,0 -0.0226,-0.0849 -2.20095,-8.19031 6.30837,0 0.48323,1.80455 -4.31884,0 0.3964,1.47233 3.73557,0 0.48889,1.78001 -3.73746,0 0.37563,1.41381 4.25466,0 z"
         id="path8808"
         style="fill:#b66721;fill-opacity:1;fill-rule:nonzero;stroke:none" /><path
         d="m -145.8718,766.2312 -1.31944,-4.89078 -2.24247,4.89078 -1.79511,0 -0.0245,-0.0849 -2.19906,-8.19031 1.98387,0 1.35719,5.05689 2.33308,-5.05689 1.66675,0 2.2236,8.27525 -1.98387,0 z"
         id="path8810"
         style="fill:#b66721;fill-opacity:1;fill-rule:nonzero;stroke:none" /><path
         d="m -122.62786,764.42665 0.487,1.80644 -6.24985,0 -0.0208,-0.0868 -2.20095,-8.19031 6.30648,0 0.48701,1.80455 -4.32262,0 0.3964,1.47233 3.73934,0 0.48512,1.7819 -3.73557,0 0.37563,1.41192 4.25277,0 z"
         id="path8812"
         style="fill:#b66721;fill-opacity:1;fill-rule:nonzero;stroke:none" /><path
         d="m -102.71742,763.54326 c 0,-0.30391 -0.11137,-0.54741 -0.30013,-0.73428 -0.30956,-0.31334 -0.86829,-0.48512 -1.53651,-0.48512 l -1.42514,0 0.55685,2.08203 1.39682,-0.002 c 0.54741,0.002 0.90794,-0.11514 1.08915,-0.30013 0.1529,-0.15478 0.21896,-0.30768 0.21896,-0.56061 m 2.08203,0.14912 c 0,0.67953 -0.2284,1.27602 -0.655,1.70073 -0.57006,0.57005 -1.42325,0.83621 -2.63321,0.83621 l -3.01827,0 -0.0226,-0.0831 -2.20284,-8.19031 2.0103,0 0.68897,2.57658 1.16277,0 1.23827,-2.57658 2.27267,0 -1.38739,2.7861 c 0.74372,0.19254 1.33643,0.52098 1.77435,0.96079 0.49833,0.49455 0.77203,1.19297 0.77203,1.98954"
         id="path8814"
         style="fill:#b66721;fill-opacity:1;fill-rule:nonzero;stroke:none" /><path
         d="m -82.453996,761.05917 1.778122,0 -0.320892,-1.10991 c -0.337881,-0.14912 -0.76448,-0.27937 -1.342086,-0.27937 -1.09481,0.008 -1.934794,0.62669 -1.940457,1.81399 0,1.61956 1.27602,3.03149 2.931448,3.03527 0.977779,-0.002 1.568599,-0.39262 2.029174,-0.89095 l 0.07362,-0.0849 1.477994,1.3081 -0.06607,0.0831 c -0.585157,0.76259 -1.647878,1.43835 -3.376923,1.43647 -2.961649,0 -5.139943,-2.37461 -5.139943,-4.94364 0.0038,-2.47653 2.017848,-3.60532 3.8979,-3.60721 1.225055,0 2.168857,0.31523 2.974863,0.77203 l 1.232605,4.22635 -3.733679,0 -0.475676,-1.75925 z"
         id="path8816"
         style="fill:#b66721;fill-opacity:1;fill-rule:nonzero;stroke:none" /><path
         d="m -61.77719,761.24227 0.0019,0 -0.0019,0 z m 3.946979,4.98893 -2.65397,-3.20515 -0.907938,3.20515 -2.214158,0 1.710168,-4.99271 -0.883398,-3.28254 2.010298,0 0.838095,3.09756 4.545349,5.17769 -2.444446,0 z"
         id="path8818"
         style="fill:#b66721;fill-opacity:1;fill-rule:nonzero;stroke:none" /><path
         d="m -272.51111,787.04392 c 0,9.65509 7.99211,17.42824 17.42258,17.42824 6.50468,0 10.09113,-2.97675 12.12974,-6.50657 l -6.39709,-4.51892 c -1.48554,2.25757 -3.08623,3.85826 -6.3952,3.85826 -4.41133,0 -8.49233,-4.80018 -8.49233,-10.26101 0,-3.80164 2.53694,-6.22721 5.78928,-6.22721 2.59546,0 4.46796,1.04762 6.67646,2.92013 l 4.29807,-5.45707 c -3.08623,-2.75778 -6.23098,-4.57743 -11.24823,-4.57743 -8.05252,0 -13.78328,5.29661 -13.78328,13.34158"
         id="path8820"
         style="fill:#005568;fill-opacity:1;fill-rule:nonzero;stroke:none" /><path
         d="m -220.67564,791.45902 c 0.16423,0.55118 0.27559,1.21184 0.27559,1.92913 0,2.42746 -1.43269,4.3547 -4.85114,4.3547 -3.80729,0 -6.8973,-2.53505 -8.27147,-6.28383 l 12.84702,0 z m -6.83689,-11.02927 c 2.2066,0 4.13385,0.66255 6.5613,2.37272 l 3.86015,-5.18524 c -2.6483,-2.20284 -6.34234,-3.91489 -11.35959,-3.91489 -8.49233,0 -13.67569,4.96439 -13.67569,13.1245 0,8.54896 6.95016,17.64532 17.53772,17.64532 7.66556,0 12.075,-4.96251 12.075,-11.5276 0,-2.09523 -0.55118,-4.46229 -1.48932,-6.72364 l -20.23888,0 c 0.27559,-3.47508 2.31798,-5.79117 6.72931,-5.79117"
         id="path8822"
         style="fill:#005568;fill-opacity:1;fill-rule:nonzero;stroke:none" /><path
         d="m -77.412208,779.05369 4.851141,5.01536 c 3.093782,-3.08811 6.40275,-3.97151 9.047282,-3.97151 2.200946,0 3.531706,0.94002 3.531706,2.59168 0,1.10613 -1.383613,1.87627 -3.424112,2.75778 -4.630291,1.98765 -8.596146,3.91867 -8.596146,8.65844 0,5.89876 4.515147,10.36672 11.850374,10.36672 4.798287,0 9.209616,-2.09524 11.640849,-4.24522 l -4.526472,-5.29662 c -2.865382,2.26135 -5.294728,3.14475 -7.716523,3.14475 -2.040499,0 -3.256115,-0.93625 -3.256115,-2.48031 0,-1.16088 1.430803,-1.98765 3.913001,-3.09001 3.860149,-1.70828 8.109144,-3.74878 8.109144,-8.38096 0,-6.45182 -5.073878,-10.42145 -12.137289,-10.42145 -4.464182,0 -9.811762,1.71205 -13.28684,5.35135"
         id="path8824"
         style="fill:#005568;fill-opacity:1;fill-rule:nonzero;stroke:none" /><path
         d="m -151.35907,790.57562 c 0,4.30185 -2.59168,6.72931 -6.3952,6.72931 -5.12862,0 -8.49421,-5.51369 -8.49421,-9.70795 0,-4.30184 2.59168,-6.72741 6.3952,-6.72741 5.13239,0 8.49421,5.51746 8.49421,9.70605 m -23.10426,-3.19949 c 0,8.82266 7.61082,17.09603 17.09413,17.09603 8.76603,0 14.22687,-5.78739 14.22687,-13.67569 0,-8.82266 -7.61082,-17.09413 -17.09225,-17.09413 -8.7698,0 -14.22875,5.79116 -14.22875,13.67379"
         id="path8826"
         style="fill:#005568;fill-opacity:1;fill-rule:nonzero;stroke:none" /><path
         d="m -185.2642,770.05926 5.39666,20.18792 c 0.49644,1.87061 0.99288,3.96963 0.99288,5.62506 0,5.34758 -2.99751,8.04685 -8.29224,8.04685 l -7.64479,0 -8.38285,0 -7.88452,-29.5542 5.52501,0 c 2.05938,0 3.32785,1.74037 3.86015,3.73179 l 3.46187,12.8659 c 0.006,0.017 0.0132,0.0359 0.0189,0.0529 l 1.55916,5.84402 4.81906,0 c 2.58979,0 4.08099,-1.26469 4.08099,-3.63552 0,-0.71918 -0.16422,-1.82154 -0.38507,-2.64831 l -6.49902,-24.24437 5.51558,0 c 2.05938,0 3.32596,1.73848 3.85826,3.72801"
         id="path8828"
         style="fill:#005568;fill-opacity:1;fill-rule:nonzero;stroke:none" /><path
         d="m -81.610237,803.91909 c -1.400602,-0.37186 -2.661521,-1.11746 -3.297643,-2.2387 l -2.793653,-10.38182 -2.636982,-9.87782 -4.826602,0 c -2.591679,0 -4.084773,1.26847 -4.084773,3.64307 0,0.7154 0.169884,1.81588 0.385071,2.64642 l 4.362251,16.20885 -5.683572,0 c -1.40249,-0.37186 -2.66907,-1.12312 -3.30142,-2.24814 l -3.64496,-13.63415 c -0.49833,-1.87062 -0.99666,-3.96775 -0.99666,-5.62317 0,-5.34758 3.3052,-8.04874 8.599924,-8.04874 l 7.342777,0 8.377184,0 7.886406,29.5542 -5.687348,0 z"
         id="path8830"
         style="fill:#005568;fill-opacity:1;fill-rule:nonzero;stroke:none" /><path
         d="m -108.74831,811.11841 -0.77203,0 c -1.70073,-0.0982 -3.09378,-0.8985 -3.96963,-2.48409 l -14.92905,-24.39727 -1.04196,15.51232 c -0.20197,2.07637 -1.7215,4.16972 -3.78653,4.16972 l -5.10031,0 3.58456,-29.77317 7.61271,0 24.16887,36.97249 -5.76663,0 z"
         id="path8832"
         style="fill:#005568;fill-opacity:1;fill-rule:nonzero;stroke:none" /></g></g></svg>