<?xml version="1.0" encoding="UTF-8" standalone="no"?>
<!-- Created with Inkscape (http://www.inkscape.org/) -->
<svg id="svg2" xmlns:rdf="http://www.w3.org/1999/02/22-rdf-syntax-ns#" xmlns="http://www.w3.org/2000/svg" xml:space="preserve" height="83.333" width="500" version="1.1" xmlns:cc="http://creativecommons.org/ns#" xmlns:xlink="http://www.w3.org/1999/xlink" xmlns:dc="http://purl.org/dc/elements/1.1/"><metadata id="metadata8"><rdf:RDF><cc:Work rdf:about=""><dc:format>image/svg+xml</dc:format><dc:type rdf:resource="http://purl.org/dc/dcmitype/StillImage"/><dc:title/></cc:Work></rdf:RDF></metadata><defs id="defs6"><clipPath id="clipPath26" clipPathUnits="userSpaceOnUse"><path id="path28" d="M0,792,612,792,612,0,0,0,0,792z"/></clipPath><clipPath id="clipPath34" clipPathUnits="userSpaceOnUse"><path id="path36" d="m36.488,712.54,136.08,0,0,22.748-136.08,0,0-22.748z"/></clipPath></defs><g id="g10" transform="matrix(1.25,0,0,-1.25,-45.610002,974.08764)"><g id="g4531" transform="matrix(2.9394215,0,0,2.9394215,-70.76561,-1382.0389)"><g id="g20"><g id="g22"><g id="g24" clip-path="url(#clipPath26)"><g id="g30"><g id="g32" clip-path="url(#clipPath34)"><g id="g38" transform="translate(70.3243,719.0118)"><path id="path40" fill-rule="nonzero" fill="#ee3524" d="m0,0c2.379,0,3.72,1.466,3.72,4.098v12.162h-7.37v-12.162c0-2.632,1.336-4.098,3.65-4.098"/></g><g id="g42" transform="translate(117.4081,717.9783)"><path id="path44" fill-rule="nonzero" fill="#152128" d="M0,0c1.308,0,1.912,0.733,1.912,1.702,0,0.93-0.604,1.697-1.912,1.697h-4.151v-3.399h4.151zm-1.473,8.763c1.274,0,1.846,0.667,1.846,1.601,0,0.897-0.572,1.631-1.846,1.631h-2.678v-3.232h2.678zm-10.238,8.53,11.502,0c5.327,0,8.31-1.966,8.31-6.231,0-2.096-1.041-3.664-2.85-4.596,2.949-0.769,4.659-2.534,4.659-5.565,0-3.898-3.116-6.265-8.578-6.265h-13.043v22.657z"/></g><g id="g46" transform="translate(137.9066,721.4114)"><path id="path48" fill-rule="nonzero" fill="#152128" d="M0,0,4.491,0,2.246,6.665,0,0zm-2.113,13.86,8.717,0,8.274-22.657-7.438,0-1.174,3.466-8.075,0-1.141-3.466-7.438,0,8.275,22.657z"/></g><g id="g50" transform="translate(172.5692,735.2838)"><path id="path52" fill-rule="nonzero" fill="#152128" d="m0,0-8.404,0-3.719-7.133-3.719,7.133-8.405,0,8.453-13.895-0.015,0,0-8.774,7.37,0,0,8.8l8.439,13.869z"/></g><g id="g54" transform="translate(59.2972,722.5787)"><path id="path56" fill-rule="nonzero" fill="#152128" d="m0,0,0,12.693-7.748,0,0-7.996-7.371,0,0,7.996-7.691-0.01,0-22.658,7.691,0,0,8.341,7.371,0,0-8.33,15.567,0c-4.99,1.148-7.819,4.956-7.819,9.964"/></g><g id="g58" transform="translate(92.019,718.9436)"><path id="path60" fill-rule="nonzero" fill="#152128" d="m0,0-2.853,0,0,9.997,2.853,0c2.718,0,4.493-1.831,4.493-5.031,0-3.129-1.775-4.966-4.493-4.966m0.27,16.328-10.818,0,0-12.693c0-4.648-2.807-8.727-7.837-9.964h7.781,0.056,10.818c6.736,0,11.762,3.998,11.762,11.295,0,7.364-5.026,11.33-11.762,11.362"/></g></g></g></g></g></g></g></g></svg>
