<svg id="svg" version="1.1" width="2400" height="1028" xmlns="http://www.w3.org/2000/svg" xmlns:xlink="http://www.w3.org/1999/xlink" style="display: block;"><g id="svgg"><path id="path0" d="M353.039 81.667 C 353.039 81.987,353.073 82.119,353.115 81.958 C 353.157 81.798,353.157 81.535,353.115 81.375 C 353.073 81.215,353.039 81.346,353.039 81.667 M191.238 139.480 C 191.287 139.560,191.498 139.669,191.706 139.722 C 192.070 139.813,192.072 139.808,191.760 139.575 C 191.402 139.307,191.097 139.252,191.238 139.480 M134.205 140.864 C 134.288 141.114,134.667 141.251,134.667 141.032 C 134.667 140.942,134.548 140.823,134.403 140.768 C 134.240 140.705,134.164 140.743,134.205 140.864 M203.221 142.750 C 203.222 143.392,203.252 143.634,203.288 143.288 C 203.324 142.942,203.324 142.417,203.287 142.121 C 203.250 141.825,203.221 142.108,203.221 142.750 M49.491 146.759 C 49.271 146.994,49.204 147.142,49.341 147.089 C 49.558 147.006,50.097 146.333,49.947 146.333 C 49.916 146.333,49.711 146.525,49.491 146.759 M152.056 146.782 C 152.056 146.907,152.132 146.984,152.226 146.953 C 152.491 146.864,152.535 146.556,152.282 146.556 C 152.158 146.556,152.056 146.658,152.056 146.782 M277.889 146.782 C 277.889 147.035,278.197 146.991,278.286 146.726 C 278.317 146.632,278.241 146.556,278.116 146.556 C 277.991 146.556,277.889 146.658,277.889 146.782 M84.539 162.833 C 84.539 163.154,84.573 163.285,84.615 163.125 C 84.657 162.965,84.657 162.702,84.615 162.542 C 84.573 162.381,84.539 162.512,84.539 162.833 " stroke="none" fill="#555555" fill-rule="evenodd"></path><path id="path1" d="" stroke="none" fill="#808080" fill-rule="evenodd"></path><path id="path2" d="M351.106 1.250 C 351.054 1.387,351.074 1.500,351.151 1.500 C 351.229 1.500,351.386 1.387,351.500 1.250 C 351.669 1.046,351.661 1.000,351.455 1.000 C 351.316 1.000,351.159 1.112,351.106 1.250 M323.263 3.522 C 322.997 3.779,322.987 3.833,323.203 3.833 C 323.347 3.833,323.512 3.710,323.569 3.559 C 323.718 3.172,323.632 3.162,323.263 3.522 M356.237 42.724 C 356.186 42.857,356.158 43.067,356.175 43.191 C 356.368 44.597,356.137 47.969,355.842 48.046 C 355.529 48.128,355.516 48.319,355.505 53.099 C 355.494 57.945,355.435 58.519,354.976 58.235 C 354.909 58.194,354.847 60.151,354.839 62.585 C 354.825 66.755,354.805 67.028,354.495 67.338 C 354.221 67.612,354.167 67.896,354.166 69.042 C 354.165 72.127,353.937 77.167,353.799 77.167 C 353.091 77.167,352.844 78.044,352.838 80.583 C 352.829 84.274,352.656 86.833,352.416 86.833 C 352.140 86.833,352.002 88.849,352.001 92.898 C 352.000 95.862,351.969 96.236,351.708 96.426 C 351.445 96.619,351.412 97.085,351.367 101.236 C 351.328 104.954,351.275 105.833,351.094 105.833 C 350.792 105.833,350.641 106.512,350.669 107.737 C 350.784 112.667,350.666 115.333,350.333 115.333 C 349.826 115.333,349.830 117.564,350.338 117.836 C 350.990 118.185,352.585 117.975,352.570 117.542 C 352.561 117.285,352.653 117.167,352.862 117.167 C 353.029 117.167,353.167 117.092,353.167 117.000 C 353.167 116.908,353.334 116.666,353.538 116.462 C 353.882 116.118,353.950 115.875,353.986 114.875 C 353.998 114.551,354.090 114.500,354.667 114.500 C 355.222 114.500,355.333 114.444,355.333 114.167 C 355.333 113.944,355.444 113.833,355.667 113.833 C 355.861 113.833,356.000 113.722,356.000 113.568 C 356.000 113.422,356.148 113.264,356.328 113.216 C 356.508 113.169,356.698 112.997,356.750 112.833 C 356.802 112.670,356.992 112.497,357.172 112.450 C 357.366 112.399,357.500 112.222,357.500 112.016 C 357.500 111.817,357.607 111.667,357.750 111.667 C 357.887 111.667,358.000 111.545,358.000 111.396 C 358.000 111.175,357.955 111.163,357.750 111.333 C 357.577 111.477,357.500 111.483,357.500 111.354 C 357.500 111.251,357.556 111.161,357.625 111.154 C 358.152 111.100,358.437 110.978,358.619 110.729 C 359.032 110.165,358.918 62.251,358.503 61.837 C 358.186 61.520,358.174 61.200,358.129 52.046 L 358.083 42.583 357.206 42.533 C 356.560 42.496,356.305 42.546,356.237 42.724 M370.324 46.377 C 370.640 46.719,370.964 47.000,371.045 47.000 C 371.197 47.000,371.058 46.856,370.242 46.168 C 369.817 45.810,369.828 45.838,370.324 46.377 M379.884 52.249 C 380.141 52.479,380.423 52.667,380.509 52.667 C 380.742 52.667,380.110 52.076,379.737 51.945 C 379.508 51.864,379.550 51.951,379.884 52.249 M374.778 78.778 C 374.575 78.980,374.663 79.158,374.917 79.060 C 375.054 79.008,375.167 78.897,375.167 78.816 C 375.167 78.641,374.937 78.618,374.778 78.778 M323.667 80.706 C 323.667 80.848,323.790 81.012,323.941 81.069 C 324.351 81.227,324.377 81.091,324.001 80.751 C 323.718 80.495,323.667 80.488,323.667 80.706 M353.115 81.958 C 353.073 82.119,353.039 81.987,353.039 81.667 C 353.039 81.346,353.073 81.215,353.115 81.375 C 353.157 81.535,353.157 81.798,353.115 81.958 M351.401 83.642 C 351.754 84.040,351.833 84.076,351.833 83.839 C 351.833 83.751,351.665 83.590,351.458 83.482 C 351.085 83.286,351.085 83.287,351.401 83.642 M12.716 127.172 C 12.795 127.472,12.715 127.500,11.787 127.500 C 10.970 127.500,10.695 127.572,10.381 127.867 C 10.108 128.123,9.816 128.222,9.416 128.195 C 8.993 128.167,8.787 128.246,8.631 128.495 C 8.515 128.681,8.288 128.833,8.127 128.833 C 7.965 128.833,7.689 128.978,7.513 129.154 C 7.336 129.330,7.036 129.558,6.846 129.660 C 6.656 129.762,6.500 129.946,6.500 130.070 C 6.500 130.193,6.350 130.334,6.167 130.382 C 5.927 130.444,5.833 130.609,5.833 130.966 C 5.833 131.405,5.763 131.476,5.232 131.576 C 4.836 131.650,4.601 131.799,4.545 132.011 C 4.499 132.188,4.350 132.333,4.215 132.333 C 4.080 132.333,3.931 132.476,3.886 132.651 C 3.840 132.826,3.659 133.007,3.485 133.052 C 3.305 133.099,3.167 133.281,3.167 133.471 C 3.167 133.982,2.990 134.333,2.732 134.333 C 2.604 134.333,2.500 134.431,2.500 134.551 C 2.500 134.671,2.313 135.023,2.083 135.333 C 1.837 135.667,1.667 136.123,1.667 136.449 C 1.667 136.809,1.586 137.000,1.434 137.000 C 1.129 137.000,1.000 137.368,1.000 138.244 C 1.000 138.807,0.932 138.979,0.685 139.043 C 0.417 139.113,0.368 139.297,0.353 140.271 C 0.344 140.901,0.260 141.441,0.168 141.472 C -0.054 141.546,-0.065 157.949,0.157 158.028 C 0.244 158.058,0.332 158.525,0.353 159.065 C 0.385 159.855,0.452 160.062,0.696 160.126 C 0.992 160.203,1.091 160.733,1.008 161.783 C 0.970 162.256,1.281 162.833,1.574 162.833 C 1.716 162.833,1.771 162.953,1.719 163.150 C 1.623 163.519,1.928 164.167,2.198 164.167 C 2.301 164.167,2.242 163.998,2.067 163.792 L 1.750 163.417 2.107 163.718 C 2.336 163.911,2.433 164.138,2.377 164.353 C 2.314 164.593,2.387 164.712,2.641 164.778 C 2.878 164.840,3.026 165.052,3.097 165.429 C 3.161 165.771,3.325 166.028,3.517 166.089 C 3.691 166.144,3.833 166.304,3.833 166.444 C 3.833 166.583,3.983 166.737,4.167 166.785 C 4.351 166.833,4.500 167.012,4.500 167.186 C 4.500 167.389,4.618 167.500,4.833 167.500 C 5.056 167.500,5.167 167.611,5.167 167.833 C 5.167 168.049,5.278 168.167,5.481 168.167 C 5.653 168.167,5.832 168.312,5.879 168.489 C 5.934 168.701,6.169 168.850,6.565 168.924 C 7.017 169.009,7.167 169.120,7.167 169.370 C 7.167 169.600,7.245 169.672,7.422 169.604 C 7.592 169.539,7.730 169.645,7.835 169.920 C 7.961 170.252,8.107 170.333,8.579 170.333 C 8.944 170.333,9.293 170.459,9.500 170.667 C 9.759 170.926,10.056 171.000,10.833 171.000 C 11.389 171.000,11.833 171.074,11.833 171.167 C 11.833 171.414,24.619 171.394,24.701 171.147 C 24.735 171.044,25.087 170.964,25.482 170.970 C 26.113 170.978,26.190 170.940,26.116 170.656 C 26.031 170.333,26.347 170.237,27.208 170.325 C 27.401 170.344,27.500 170.238,27.500 170.010 C 27.500 169.758,27.607 169.667,27.903 169.667 C 28.478 169.667,28.833 169.501,28.833 169.232 C 28.833 169.104,28.978 169.000,29.155 169.000 C 29.672 169.000,32.395 166.252,32.287 165.839 C 32.216 165.567,32.278 165.500,32.599 165.500 C 32.881 165.500,33.000 165.407,33.000 165.186 C 33.000 165.009,33.150 164.833,33.346 164.782 C 33.555 164.727,33.679 164.571,33.660 164.387 C 33.592 163.732,33.676 163.500,33.982 163.500 C 34.268 163.500,34.299 163.348,34.320 161.820 C 34.333 160.896,34.282 160.179,34.206 160.226 C 33.961 160.377,33.616 160.044,33.570 159.611 C 33.545 159.380,33.220 158.895,32.846 158.532 C 32.472 158.169,32.167 157.798,32.167 157.708 C 32.167 157.506,30.332 157.280,29.934 157.433 C 29.777 157.493,29.684 157.638,29.728 157.754 C 29.773 157.870,29.627 158.136,29.405 158.345 C 29.167 158.568,29.000 158.913,29.000 159.182 C 29.000 159.799,28.843 160.167,28.580 160.167 C 28.456 160.167,28.314 160.454,28.250 160.833 C 28.164 161.343,28.061 161.500,27.814 161.500 C 27.636 161.500,27.010 161.987,26.423 162.583 C 25.836 163.179,25.275 163.667,25.178 163.667 C 25.080 163.667,25.000 163.781,25.000 163.921 C 25.000 164.144,25.055 164.142,25.458 163.903 L 25.917 163.632 25.440 164.045 C 25.148 164.298,24.837 164.426,24.640 164.375 C 24.287 164.282,23.500 164.907,23.500 165.279 C 23.500 165.419,23.294 165.500,22.942 165.500 C 22.597 165.500,22.270 165.627,22.083 165.833 C 21.617 166.349,14.861 166.349,14.539 165.833 C 14.388 165.592,14.150 165.500,13.679 165.500 C 13.321 165.500,13.003 165.444,12.972 165.375 C 12.893 165.196,11.804 164.412,11.458 164.285 C 11.298 164.226,11.167 164.067,11.167 163.933 C 11.167 163.799,11.017 163.642,10.833 163.583 C 10.650 163.525,10.500 163.363,10.500 163.223 C 10.500 163.083,10.350 162.930,10.167 162.882 C 9.983 162.834,9.833 162.684,9.833 162.548 C 9.833 162.413,9.683 162.263,9.500 162.215 C 9.316 162.167,9.167 161.988,9.167 161.814 C 9.167 161.611,9.049 161.500,8.833 161.500 C 8.619 161.500,8.500 161.389,8.500 161.189 C 8.500 161.018,8.363 160.699,8.195 160.481 C 8.027 160.262,7.842 159.952,7.784 159.792 C 7.725 159.631,7.572 159.500,7.443 159.500 C 7.282 159.500,7.176 159.200,7.101 158.535 C 6.997 157.617,6.536 156.817,6.009 156.642 C 5.908 156.608,5.812 155.936,5.784 155.064 C 5.746 153.902,5.668 153.477,5.451 153.260 C 5.033 152.842,5.019 146.592,5.436 146.432 C 5.617 146.363,5.679 146.195,5.626 145.920 C 5.582 145.689,5.616 145.552,5.704 145.606 C 5.794 145.662,5.848 145.360,5.832 144.893 C 5.756 142.723,5.787 142.584,6.405 142.289 C 6.901 142.053,6.993 141.912,7.094 141.236 C 7.159 140.807,7.351 140.315,7.522 140.144 C 7.693 139.973,7.833 139.646,7.833 139.417 C 7.833 139.188,7.949 138.869,8.089 138.708 C 8.890 137.797,9.167 137.319,9.167 136.851 C 9.167 136.386,9.304 136.250,9.708 136.314 C 9.777 136.324,9.833 136.183,9.833 136.000 C 9.833 135.778,9.944 135.667,10.167 135.667 C 10.389 135.667,10.500 135.556,10.500 135.333 C 10.500 135.072,10.611 135.000,11.018 135.000 C 11.327 135.000,11.735 134.832,12.030 134.583 C 12.303 134.354,12.639 134.167,12.778 134.167 C 13.081 134.167,13.860 133.583,13.731 133.453 C 13.680 133.403,13.950 133.403,14.329 133.454 C 14.934 133.535,15.031 133.502,15.112 133.190 C 15.254 132.647,19.924 132.637,20.388 133.179 C 20.609 133.437,20.861 133.518,21.384 133.498 C 22.281 133.465,22.833 133.639,22.833 133.954 C 22.833 134.120,22.928 134.166,23.120 134.092 C 23.278 134.032,23.359 134.030,23.300 134.089 C 23.087 134.302,23.764 134.845,24.362 134.941 C 24.805 135.011,24.949 135.105,24.882 135.279 C 24.824 135.431,24.922 135.554,25.145 135.613 C 25.340 135.664,25.500 135.812,25.500 135.941 C 25.500 136.071,25.631 136.226,25.792 136.286 C 25.952 136.346,26.181 136.531,26.301 136.697 C 26.421 136.864,26.627 137.000,26.759 137.000 C 26.892 137.000,27.000 137.144,27.000 137.319 C 27.000 137.495,27.056 137.664,27.125 137.694 C 27.382 137.809,28.333 139.157,28.333 139.407 C 28.333 139.550,28.444 139.667,28.580 139.667 C 28.813 139.667,29.109 140.377,29.035 140.756 C 28.969 141.099,30.492 141.008,30.712 140.656 C 30.823 140.479,31.052 140.333,31.222 140.333 C 31.392 140.333,31.570 140.183,31.618 140.000 C 31.672 139.794,31.846 139.667,32.073 139.667 C 32.275 139.667,32.595 139.488,32.785 139.270 C 32.974 139.052,33.230 138.840,33.354 138.799 C 33.862 138.629,33.698 135.252,33.174 135.086 C 32.970 135.021,32.904 134.872,32.957 134.596 C 33.006 134.339,32.909 134.076,32.683 133.850 C 32.491 133.657,32.333 133.379,32.333 133.232 C 32.333 133.060,32.242 132.999,32.078 133.062 C 31.908 133.127,31.770 133.022,31.665 132.747 C 31.579 132.519,31.399 132.333,31.265 132.333 C 31.132 132.333,30.975 132.183,30.917 132.000 C 30.858 131.817,30.696 131.667,30.556 131.667 C 30.417 131.667,30.263 131.517,30.215 131.333 C 30.167 131.150,30.017 131.000,29.882 131.000 C 29.746 131.000,29.596 130.850,29.548 130.667 C 29.500 130.483,29.350 130.333,29.215 130.333 C 29.080 130.333,28.930 130.183,28.882 130.000 C 28.834 129.817,28.731 129.667,28.654 129.667 C 28.576 129.667,28.363 129.506,28.180 129.310 C 27.994 129.109,27.626 128.945,27.341 128.935 C 26.932 128.920,26.834 128.844,26.834 128.542 C 26.833 128.208,26.750 128.167,26.083 128.167 C 25.543 128.167,25.333 128.100,25.333 127.928 C 25.333 127.612,24.978 127.519,23.624 127.480 C 22.820 127.457,22.438 127.371,22.290 127.182 C 22.107 126.947,22.117 126.943,22.375 127.145 C 22.626 127.343,22.667 127.338,22.667 127.109 C 22.667 126.872,22.126 126.844,17.649 126.844 C 12.739 126.844,12.632 126.851,12.716 127.172 M212.715 127.833 C 212.647 128.092,212.488 128.167,212.000 128.167 C 211.512 128.167,211.353 128.241,211.285 128.500 C 211.223 128.738,211.058 128.833,210.707 128.833 C 210.405 128.833,210.029 129.006,209.733 129.280 L 209.250 129.728 209.202 135.030 L 209.153 140.333 207.035 140.341 C 205.062 140.347,203.614 140.497,203.393 140.718 C 203.341 140.770,203.279 141.872,203.255 143.168 L 203.210 145.525 203.616 145.679 C 203.839 145.764,205.178 145.833,206.591 145.833 L 209.160 145.833 209.205 157.188 L 209.250 168.543 209.625 168.792 C 209.831 168.929,210.000 169.144,210.000 169.270 C 210.000 169.397,210.100 169.500,210.223 169.500 C 210.346 169.500,210.536 169.696,210.645 169.935 C 210.782 170.235,210.937 170.345,211.148 170.290 C 211.536 170.189,212.000 170.444,212.000 170.758 C 212.000 170.943,212.237 171.000,213.000 171.000 C 213.556 171.000,214.000 171.074,214.000 171.167 C 214.000 171.270,214.889 171.333,216.333 171.333 C 217.712 171.333,218.667 171.268,218.667 171.173 C 218.667 171.085,219.285 170.992,220.042 170.965 L 221.417 170.917 221.463 168.648 C 221.521 165.798,221.425 165.500,220.451 165.500 C 219.879 165.500,219.648 165.591,219.351 165.933 C 219.081 166.243,218.871 166.338,218.612 166.268 C 218.413 166.215,217.752 166.170,217.144 166.169 C 216.180 166.167,216.028 166.124,215.952 165.833 C 215.904 165.650,215.726 165.500,215.557 165.500 C 215.262 165.500,215.252 165.127,215.294 155.667 L 215.339 145.833 218.326 145.833 L 221.313 145.833 221.425 145.086 C 221.568 144.134,221.456 140.734,221.276 140.553 C 221.201 140.478,219.833 140.393,218.237 140.364 L 215.333 140.312 215.333 134.228 C 215.333 130.353,215.271 128.028,215.161 127.822 C 214.900 127.334,212.843 127.343,212.715 127.833 M238.917 127.960 C 238.588 128.411,238.583 128.680,238.583 149.250 C 238.583 169.821,238.588 170.089,238.917 170.536 L 239.250 170.990 242.216 170.995 C 244.494 170.999,245.175 170.952,245.154 170.792 C 245.139 170.677,245.136 166.702,245.147 161.958 L 245.167 153.333 252.750 153.333 C 260.111 153.333,260.343 153.324,260.667 153.000 C 260.887 152.780,261.222 152.667,261.653 152.667 C 262.467 152.667,262.833 152.532,262.833 152.232 C 262.833 152.089,263.012 152.000,263.301 152.000 C 263.558 152.000,264.023 151.812,264.333 151.583 C 264.644 151.354,264.993 151.167,265.110 151.167 C 265.226 151.167,265.402 151.017,265.500 150.833 C 265.598 150.650,265.783 150.500,265.911 150.500 C 266.039 150.500,266.192 150.350,266.250 150.167 C 266.308 149.983,266.455 149.833,266.577 149.833 C 266.835 149.833,267.000 149.471,267.000 148.903 C 267.000 148.611,267.092 148.500,267.333 148.500 C 267.549 148.500,267.667 148.389,267.667 148.186 C 267.667 148.012,267.816 147.833,268.000 147.785 C 268.283 147.711,268.333 147.558,268.333 146.766 C 268.333 146.035,268.389 145.833,268.591 145.833 C 268.733 145.833,269.031 145.627,269.253 145.375 L 269.656 144.917 269.661 140.625 C 269.666 136.552,269.650 136.316,269.333 136.000 C 269.150 135.817,269.000 135.592,269.000 135.501 C 269.000 135.411,268.850 135.242,268.667 135.128 C 268.428 134.979,268.333 134.739,268.333 134.286 C 268.333 133.775,268.277 133.662,268.042 133.701 C 267.808 133.740,267.740 133.609,267.699 133.042 C 267.657 132.469,267.585 132.333,267.324 132.333 C 267.139 132.333,267.000 132.220,267.000 132.068 C 267.000 131.922,266.852 131.764,266.672 131.716 C 266.492 131.669,266.299 131.489,266.244 131.315 C 266.189 131.142,266.071 131.000,265.982 131.000 C 265.893 131.000,265.505 130.695,265.119 130.322 C 264.733 129.950,264.210 129.603,263.958 129.552 C 263.706 129.500,263.500 129.357,263.500 129.232 C 263.500 128.976,262.791 128.750,262.427 128.889 C 262.270 128.950,262.169 128.855,262.135 128.616 C 262.088 128.280,261.977 128.246,260.785 128.201 C 259.775 128.163,259.415 128.082,259.169 127.835 C 258.865 127.531,258.455 127.518,249.051 127.511 L 239.250 127.504 238.917 127.960 M354.167 127.853 C 354.167 128.113,354.040 128.167,353.430 128.167 C 352.536 128.167,352.167 128.294,352.167 128.601 C 352.167 128.752,351.976 128.834,351.625 128.835 C 351.231 128.836,350.936 128.989,350.542 129.395 L 350.000 129.952 350.000 135.128 L 350.000 140.303 347.410 140.360 C 344.304 140.428,344.523 140.222,344.517 143.076 C 344.511 146.124,344.214 145.833,347.345 145.833 L 350.000 145.833 350.018 156.542 C 350.029 162.431,350.023 167.424,350.005 167.637 C 349.983 167.905,350.080 168.052,350.320 168.115 C 350.598 168.188,350.667 168.337,350.667 168.868 C 350.667 169.380,350.739 169.550,350.985 169.614 C 351.159 169.660,351.340 169.841,351.386 170.015 C 351.445 170.241,351.617 170.333,351.979 170.333 C 352.318 170.333,352.548 170.445,352.667 170.667 C 352.822 170.957,353.016 171.000,354.173 171.000 C 354.946 171.000,355.500 171.070,355.500 171.167 C 355.500 171.387,359.453 171.391,359.528 171.171 C 359.558 171.082,360.220 170.997,360.999 170.983 C 362.981 170.948,362.833 171.154,362.833 168.419 C 362.833 165.716,362.831 165.710,361.547 165.558 C 360.838 165.474,360.668 165.514,360.301 165.855 C 359.795 166.326,356.833 166.378,356.833 165.916 C 356.833 165.791,356.683 165.642,356.500 165.583 C 356.172 165.479,356.167 165.331,356.167 155.655 L 356.167 145.833 359.236 145.833 C 363.224 145.833,362.833 146.124,362.833 143.159 C 362.833 140.168,363.183 140.445,359.299 140.361 L 356.182 140.294 356.133 134.155 C 356.078 127.323,356.130 127.605,354.911 127.564 C 354.284 127.543,354.167 127.588,354.167 127.853 M302.125 129.167 C 301.761 129.461,301.748 129.575,301.699 132.895 C 301.631 137.409,301.321 137.014,304.918 136.992 L 307.820 136.974 307.820 133.122 C 307.821 130.533,307.760 129.196,307.635 129.045 C 307.321 128.667,302.614 128.771,302.125 129.167 M14.833 133.083 C 14.719 133.221,14.508 133.333,14.364 133.333 C 14.155 133.333,14.167 133.285,14.426 133.089 C 14.850 132.768,15.097 132.765,14.833 133.083 M257.565 133.920 C 257.668 134.060,258.140 134.219,258.625 134.276 C 259.194 134.344,259.500 134.458,259.500 134.603 C 259.500 134.726,259.688 134.874,259.917 134.932 C 260.146 134.989,260.333 135.107,260.333 135.193 C 260.333 135.280,260.556 135.428,260.829 135.523 C 261.101 135.618,261.483 135.952,261.676 136.265 C 261.869 136.577,262.115 136.845,262.222 136.859 C 262.329 136.873,262.529 136.891,262.667 136.900 C 262.852 136.912,262.930 137.168,262.967 137.893 C 263.009 138.696,263.075 138.884,263.342 138.954 C 263.849 139.086,263.840 142.500,263.333 142.500 C 263.056 142.500,263.000 142.611,263.000 143.167 C 263.000 143.722,262.944 143.833,262.667 143.833 C 262.444 143.833,262.333 143.944,262.333 144.167 C 262.333 144.361,262.222 144.500,262.068 144.500 C 261.922 144.500,261.763 144.650,261.715 144.833 C 261.667 145.017,261.517 145.167,261.382 145.167 C 261.246 145.167,261.096 145.317,261.048 145.500 C 260.993 145.712,260.821 145.833,260.578 145.833 C 260.021 145.833,259.667 146.002,259.667 146.268 C 259.667 146.421,259.472 146.500,259.093 146.500 C 258.698 146.500,258.442 146.610,258.272 146.852 C 258.030 147.197,257.901 147.206,251.596 147.294 L 245.167 147.383 245.167 140.525 L 245.167 133.667 251.273 133.667 C 256.541 133.667,257.405 133.701,257.565 133.920 M51.167 139.114 C 51.029 139.173,50.842 139.312,50.750 139.424 C 50.658 139.536,50.135 139.676,49.588 139.736 C 48.990 139.801,48.457 139.966,48.255 140.148 C 48.069 140.314,47.785 140.497,47.625 140.553 C 47.465 140.610,47.333 140.762,47.333 140.892 C 47.333 141.022,47.183 141.167,47.000 141.215 C 46.745 141.282,46.667 141.442,46.667 141.901 C 46.667 142.382,46.603 142.500,46.345 142.500 C 46.142 142.500,46.003 142.634,45.970 142.862 C 45.935 143.100,45.788 143.233,45.542 143.251 C 45.181 143.277,45.167 143.225,45.167 141.907 C 45.167 140.810,45.114 140.515,44.903 140.434 C 44.563 140.304,41.365 140.307,40.875 140.438 L 40.500 140.539 40.500 155.769 L 40.500 171.000 43.160 171.000 L 45.821 171.000 45.828 163.375 C 45.837 154.735,45.911 153.143,46.300 153.292 C 46.466 153.356,46.513 153.322,46.435 153.197 C 46.359 153.074,46.403 153.037,46.558 153.097 C 46.906 153.230,47.059 152.890,47.182 151.703 C 47.248 151.071,47.407 150.529,47.582 150.335 C 47.742 150.158,47.911 149.673,47.958 149.257 C 48.014 148.759,48.123 148.500,48.277 148.500 C 48.405 148.500,48.560 148.369,48.620 148.208 C 48.680 148.048,48.832 147.840,48.957 147.745 C 49.083 147.651,49.204 147.449,49.226 147.295 C 49.287 146.882,49.831 146.343,50.089 146.442 C 50.212 146.489,50.411 146.372,50.530 146.181 C 50.852 145.665,53.414 145.653,53.548 146.167 C 53.615 146.421,53.776 146.500,54.226 146.500 C 54.606 146.500,54.873 146.600,54.973 146.780 C 55.085 146.979,55.364 147.063,55.940 147.072 L 56.750 147.083 56.750 143.633 C 56.750 139.791,56.779 139.888,55.577 139.724 C 55.122 139.662,54.666 139.498,54.563 139.358 C 54.365 139.090,51.675 138.897,51.167 139.114 M126.221 139.312 C 126.150 139.583,125.921 139.634,124.457 139.704 C 122.942 139.777,122.739 139.825,122.429 140.184 C 122.219 140.427,121.942 140.563,121.724 140.532 C 121.526 140.504,121.226 140.623,121.057 140.797 C 120.888 140.971,120.623 141.159,120.468 141.215 C 120.310 141.271,120.136 141.577,120.074 141.908 C 119.973 142.448,119.913 142.500,119.398 142.500 C 118.944 142.500,118.833 142.566,118.833 142.833 C 118.833 143.061,118.722 143.167,118.484 143.167 C 118.281 143.167,118.101 143.300,118.052 143.485 C 118.007 143.659,117.826 143.840,117.651 143.886 C 117.472 143.932,117.333 144.114,117.333 144.302 C 117.333 144.553,117.251 144.614,117.000 144.548 C 116.754 144.484,116.667 144.543,116.667 144.774 C 116.667 144.946,116.508 145.185,116.315 145.306 C 116.037 145.479,115.985 145.631,116.064 146.029 C 116.146 146.436,116.103 146.548,115.838 146.617 C 115.534 146.697,115.288 147.110,115.347 147.441 C 115.484 148.206,115.302 149.136,115.000 149.215 C 114.695 149.295,114.667 149.442,114.667 150.979 C 114.667 152.484,114.633 152.673,114.333 152.833 C 114.023 153.000,114.000 153.182,114.000 155.506 C 114.000 157.889,114.015 158.000,114.333 158.000 C 114.647 158.000,114.667 158.111,114.667 159.911 C 114.667 161.651,114.696 161.838,115.000 162.000 C 115.272 162.146,115.333 162.349,115.333 163.105 C 115.333 163.891,115.384 164.044,115.667 164.118 C 115.919 164.184,116.000 164.346,116.000 164.785 C 116.000 165.224,116.081 165.386,116.333 165.452 C 116.521 165.501,116.667 165.679,116.667 165.861 C 116.667 166.038,116.841 166.348,117.054 166.550 C 117.267 166.751,117.490 167.048,117.549 167.208 C 117.608 167.369,117.762 167.500,117.892 167.500 C 118.022 167.500,118.167 167.650,118.215 167.833 C 118.263 168.017,118.413 168.167,118.548 168.167 C 118.684 168.167,118.832 168.309,118.877 168.482 C 118.926 168.668,119.171 168.844,119.472 168.911 C 119.777 168.977,120.028 169.160,120.092 169.360 C 120.163 169.586,120.301 169.671,120.507 169.617 C 120.727 169.559,120.829 169.638,120.866 169.893 C 120.906 170.172,121.050 170.261,121.525 170.301 C 121.951 170.336,122.157 170.444,122.214 170.662 C 122.282 170.923,122.463 170.974,123.353 170.978 C 123.940 170.981,124.437 171.061,124.469 171.158 C 124.547 171.391,131.450 171.401,131.528 171.168 C 131.558 171.077,132.174 170.993,132.895 170.983 C 134.032 170.966,134.219 170.921,134.290 170.648 C 134.374 170.328,134.604 170.253,135.313 170.317 C 135.598 170.343,135.684 170.285,135.618 170.113 C 135.501 169.809,135.803 169.499,136.104 169.614 C 136.261 169.675,136.333 169.571,136.333 169.283 C 136.333 168.947,136.399 168.882,136.667 168.952 C 136.914 169.016,137.000 168.957,137.000 168.720 C 137.000 168.511,137.188 168.332,137.542 168.202 C 137.840 168.093,138.233 167.765,138.417 167.473 C 139.156 166.296,139.258 166.167,139.456 166.167 C 139.570 166.167,139.710 165.873,139.767 165.514 C 139.838 165.070,139.972 164.836,140.186 164.780 C 140.430 164.716,140.500 164.544,140.500 164.004 C 140.500 163.409,140.543 163.325,140.803 163.407 C 141.072 163.492,141.110 163.389,141.135 162.502 C 141.159 161.604,141.128 161.500,140.831 161.500 C 140.611 161.500,140.500 161.388,140.500 161.167 C 140.500 160.944,140.389 160.833,140.167 160.833 C 139.983 160.833,139.683 160.683,139.500 160.500 C 139.317 160.317,138.994 160.167,138.784 160.167 C 138.568 160.167,138.149 159.914,137.825 159.589 C 137.108 158.868,136.963 158.865,136.291 159.558 C 135.994 159.865,135.623 160.161,135.468 160.216 C 135.309 160.272,135.136 160.576,135.074 160.908 C 135.013 161.234,134.867 161.500,134.749 161.500 C 134.498 161.500,134.333 161.867,134.333 162.430 C 134.333 162.681,134.237 162.833,134.078 162.833 C 133.938 162.833,133.774 162.965,133.714 163.125 C 133.654 163.285,133.469 163.515,133.303 163.634 C 133.136 163.754,133.000 163.952,133.000 164.073 C 133.000 164.195,132.850 164.334,132.667 164.382 C 132.424 164.445,132.333 164.609,132.333 164.984 C 132.333 165.458,132.288 165.500,131.776 165.500 C 131.430 165.500,131.104 165.627,130.917 165.833 C 130.451 166.348,126.671 166.337,126.189 165.819 C 126.011 165.628,125.690 165.486,125.475 165.504 C 124.804 165.560,124.695 165.510,124.781 165.182 C 124.830 164.994,124.729 164.738,124.535 164.557 C 123.164 163.280,122.667 162.751,122.667 162.568 C 122.667 162.451,122.517 162.308,122.333 162.250 C 122.150 162.192,122.000 162.034,122.000 161.898 C 122.000 161.763,121.850 161.492,121.667 161.295 C 121.483 161.098,121.333 160.718,121.333 160.449 C 121.333 160.099,121.145 159.779,120.667 159.314 L 120.000 158.667 120.000 155.334 C 120.000 152.575,120.041 152.000,120.235 152.000 C 120.641 152.000,121.333 151.018,121.333 150.441 C 121.333 150.105,121.463 149.796,121.684 149.607 C 121.922 149.403,122.009 149.177,121.956 148.898 C 121.913 148.673,121.915 148.526,121.961 148.572 C 122.109 148.720,122.667 148.329,122.667 148.077 C 122.667 147.943,122.777 147.833,122.911 147.833 C 123.158 147.833,123.554 147.276,123.410 147.132 C 123.367 147.089,123.500 146.910,123.707 146.735 L 124.083 146.417 123.766 146.792 C 123.495 147.112,123.487 147.167,123.713 147.167 C 123.858 147.167,124.025 147.017,124.083 146.833 C 124.142 146.650,124.304 146.500,124.444 146.500 C 124.583 146.500,124.737 146.350,124.785 146.167 C 124.850 145.920,125.012 145.833,125.410 145.833 C 125.737 145.833,126.067 145.702,126.250 145.500 C 126.503 145.220,126.763 145.167,127.875 145.167 C 128.945 145.167,129.278 145.230,129.621 145.500 C 129.854 145.683,130.251 145.833,130.503 145.833 C 130.821 145.833,130.988 145.935,131.048 146.167 C 131.115 146.422,131.276 146.500,131.734 146.500 C 132.222 146.500,132.333 146.562,132.333 146.833 C 132.333 147.056,132.444 147.167,132.667 147.167 C 132.946 147.167,133.000 147.278,133.000 147.853 C 133.000 148.457,133.040 148.528,133.333 148.452 C 133.623 148.376,133.667 148.447,133.667 148.990 C 133.667 149.389,133.779 149.717,133.979 149.898 C 134.160 150.061,134.327 150.497,134.376 150.932 C 134.487 151.912,134.442 151.886,136.128 151.951 C 137.485 152.003,137.616 151.979,138.068 151.587 C 138.334 151.356,138.691 151.167,138.861 151.167 C 139.031 151.167,139.298 151.017,139.455 150.833 C 139.612 150.650,139.865 150.500,140.018 150.500 C 140.578 150.500,140.710 148.314,140.190 147.647 C 140.020 147.429,139.828 146.900,139.765 146.472 C 139.702 146.044,139.534 145.597,139.391 145.479 C 139.249 145.360,139.067 145.092,138.987 144.882 C 138.907 144.672,138.727 144.500,138.587 144.500 C 138.448 144.500,138.333 144.380,138.333 144.234 C 138.333 144.088,138.183 143.930,138.000 143.882 C 137.816 143.833,137.667 143.654,137.667 143.481 C 137.667 143.278,137.549 143.167,137.333 143.167 C 137.111 143.167,137.000 143.056,137.000 142.833 C 137.000 142.611,136.889 142.500,136.667 142.500 C 136.469 142.500,136.333 142.389,136.333 142.228 C 136.333 141.848,135.478 141.141,135.125 141.229 C 134.964 141.269,134.877 141.231,134.931 141.144 C 135.110 140.854,134.633 140.500,134.063 140.500 C 133.701 140.500,133.366 140.366,133.125 140.125 C 132.815 139.814,132.528 139.740,131.458 139.691 C 130.557 139.649,130.167 139.567,130.167 139.420 C 130.167 138.897,126.356 138.792,126.221 139.312 M186.792 139.194 C 186.540 139.286,186.333 139.430,186.333 139.514 C 186.333 139.598,185.925 139.667,185.425 139.667 C 184.688 139.667,184.433 139.745,184.068 140.083 C 183.820 140.313,183.434 140.500,183.210 140.500 C 182.942 140.500,182.772 140.615,182.715 140.833 C 182.667 141.017,182.517 141.167,182.382 141.167 C 182.246 141.167,182.098 141.310,182.052 141.485 C 181.898 142.076,181.334 142.043,181.331 141.443 C 181.327 140.728,181.119 140.440,180.702 140.572 C 180.514 140.632,180.313 140.602,180.254 140.507 C 179.921 139.968,175.654 140.401,175.330 141.007 C 175.058 141.514,175.112 170.580,175.385 170.807 C 175.527 170.925,176.587 170.976,178.427 170.952 L 181.250 170.917 181.276 170.417 C 181.291 170.142,181.310 165.698,181.318 160.542 C 181.331 152.380,181.365 151.167,181.580 151.167 C 181.834 151.167,182.067 150.559,181.972 150.146 C 181.942 150.019,182.087 149.746,182.293 149.541 C 182.556 149.278,182.667 148.969,182.667 148.500 C 182.667 147.873,182.696 147.833,183.157 147.833 C 183.440 147.833,183.740 147.705,183.866 147.531 C 183.985 147.364,184.215 147.179,184.375 147.119 C 184.535 147.059,184.667 146.896,184.667 146.755 C 184.667 146.594,184.820 146.500,185.083 146.500 C 185.313 146.500,185.642 146.358,185.816 146.184 C 185.990 146.010,186.359 145.818,186.636 145.757 C 186.912 145.696,187.180 145.538,187.231 145.406 C 187.389 144.996,190.072 145.072,190.500 145.500 C 190.683 145.683,190.945 145.833,191.082 145.833 C 191.341 145.833,192.333 146.778,192.333 147.025 C 192.333 147.103,192.438 147.167,192.565 147.167 C 192.693 147.167,192.849 147.372,192.912 147.624 C 193.071 148.259,193.308 148.500,193.770 148.500 C 194.125 148.500,194.167 148.575,194.170 149.208 C 194.172 149.598,194.173 154.567,194.171 160.250 C 194.169 165.933,194.230 170.681,194.307 170.800 C 194.415 170.968,195.106 171.005,197.348 170.967 L 200.250 170.917 200.295 160.792 C 200.327 153.627,200.288 150.667,200.160 150.667 C 200.061 150.667,200.033 150.760,200.097 150.875 C 200.161 150.990,200.093 150.971,199.946 150.833 C 199.729 150.631,199.674 150.172,199.656 148.429 C 199.632 146.105,199.587 145.833,199.232 145.833 C 199.072 145.833,199.000 145.625,199.000 145.167 C 199.000 144.611,198.944 144.500,198.667 144.500 C 198.389 144.500,198.333 144.389,198.333 143.833 C 198.333 143.278,198.278 143.167,198.000 143.167 C 197.778 143.167,197.667 143.056,197.667 142.833 C 197.667 142.611,197.556 142.500,197.333 142.500 C 197.150 142.500,197.000 142.431,197.000 142.346 C 197.000 142.047,196.133 141.167,195.838 141.167 C 195.673 141.167,195.500 141.017,195.452 140.833 C 195.388 140.588,195.224 140.500,194.833 140.500 C 194.435 140.500,194.279 140.413,194.211 140.153 C 194.149 139.914,194.024 139.832,193.810 139.888 C 193.639 139.932,193.543 139.898,193.597 139.812 C 193.654 139.718,193.246 139.667,192.588 139.685 C 191.938 139.703,191.403 139.637,191.291 139.524 C 191.053 139.287,191.250 139.277,191.678 139.506 C 191.902 139.626,192.000 139.625,192.000 139.502 C 192.000 139.023,187.920 138.781,186.792 139.194 M327.875 139.110 C 327.760 139.157,327.667 139.291,327.667 139.409 C 327.667 139.557,327.275 139.648,326.383 139.705 C 325.309 139.774,325.060 139.846,324.863 140.144 C 324.732 140.341,324.450 140.500,324.231 140.500 C 324.014 140.500,323.742 140.650,323.628 140.833 C 323.513 141.017,323.288 141.167,323.127 141.167 C 322.965 141.167,322.688 141.312,322.511 141.489 C 322.192 141.808,322.187 141.806,322.083 141.334 C 322.026 141.071,321.860 140.758,321.714 140.637 C 321.416 140.389,317.863 140.214,317.375 140.423 C 317.215 140.491,316.880 140.532,316.631 140.512 C 315.966 140.459,315.986 139.939,316.037 156.083 L 316.083 170.917 318.961 170.962 L 321.839 171.008 322.003 170.576 C 322.103 170.313,322.167 166.707,322.167 161.322 C 322.167 153.966,322.205 152.500,322.395 152.500 C 322.626 152.500,322.828 151.696,322.831 150.763 C 322.833 150.495,322.958 150.139,323.110 149.971 C 323.262 149.803,323.433 149.385,323.491 149.041 C 323.573 148.553,323.664 148.429,323.904 148.471 C 324.143 148.513,324.192 148.448,324.122 148.179 C 324.052 147.914,324.109 147.833,324.365 147.833 C 324.552 147.833,324.734 147.695,324.781 147.515 C 324.827 147.341,325.007 147.160,325.182 147.114 C 325.365 147.066,325.500 146.885,325.500 146.688 C 325.500 146.444,325.576 146.373,325.761 146.444 C 325.917 146.504,326.114 146.411,326.254 146.211 C 326.398 146.006,326.755 145.843,327.188 145.785 C 327.574 145.733,327.956 145.573,328.037 145.429 C 328.287 144.981,331.667 145.047,331.667 145.500 C 331.667 145.707,331.778 145.833,331.960 145.833 C 332.121 145.833,332.351 145.990,332.470 146.181 C 332.590 146.373,332.792 146.488,332.921 146.438 C 333.050 146.388,333.201 146.421,333.256 146.510 C 333.311 146.599,333.414 146.637,333.484 146.593 C 333.554 146.550,333.611 146.624,333.611 146.757 C 333.611 147.085,333.394 147.065,333.264 146.726 C 333.206 146.576,333.121 146.490,333.075 146.536 C 332.924 146.687,333.198 147.167,333.434 147.167 C 333.562 147.167,333.667 147.317,333.667 147.500 C 333.667 147.722,333.778 147.833,334.000 147.833 C 334.292 147.833,334.333 147.944,334.333 148.724 C 334.333 149.403,334.413 149.687,334.667 149.917 C 334.993 150.212,335.000 150.430,335.000 160.287 C 335.000 167.008,335.058 170.464,335.175 170.683 C 335.340 170.990,335.529 171.009,338.258 170.992 L 341.166 170.974 341.160 159.397 C 341.154 148.123,341.145 147.812,340.827 147.494 C 340.580 147.247,340.500 146.938,340.500 146.234 C 340.500 145.442,340.450 145.289,340.167 145.215 C 339.955 145.160,339.833 144.988,339.833 144.744 C 339.833 144.189,339.665 143.833,339.402 143.833 C 339.276 143.833,339.127 143.649,339.070 143.423 C 339.014 143.198,338.618 142.732,338.192 142.388 C 337.766 142.043,337.295 141.628,337.147 141.464 C 336.999 141.301,336.755 141.167,336.605 141.167 C 336.444 141.167,336.333 141.031,336.333 140.833 C 336.333 140.613,336.222 140.500,336.006 140.500 C 335.826 140.500,335.594 140.342,335.491 140.150 C 335.350 139.887,335.185 139.817,334.827 139.870 C 334.565 139.908,334.389 139.878,334.435 139.803 C 334.482 139.728,334.082 139.667,333.547 139.667 C 332.780 139.667,332.514 139.596,332.289 139.333 C 332.011 139.009,328.559 138.835,327.875 139.110 M67.078 139.819 C 66.891 139.898,66.638 140.084,66.515 140.231 C 66.389 140.384,66.043 140.500,65.714 140.500 C 65.276 140.500,65.114 140.581,65.048 140.833 C 64.987 141.068,64.821 141.167,64.486 141.167 C 63.981 141.167,63.667 141.546,63.667 142.156 C 63.667 142.360,63.558 142.500,63.401 142.500 C 63.255 142.500,63.096 142.650,63.048 142.833 C 62.982 143.086,62.821 143.167,62.382 143.167 C 61.942 143.167,61.781 143.247,61.715 143.500 C 61.667 143.683,61.522 143.833,61.393 143.833 C 61.264 143.833,61.091 144.011,61.009 144.227 C 60.926 144.444,60.750 144.663,60.618 144.714 C 60.485 144.765,60.327 145.002,60.267 145.241 C 60.207 145.480,60.010 145.823,59.829 146.004 C 59.618 146.216,59.500 146.558,59.500 146.963 C 59.500 147.386,59.391 147.686,59.167 147.878 C 58.889 148.116,58.833 148.370,58.833 149.396 C 58.833 150.478,58.794 150.638,58.508 150.713 C 58.000 150.846,58.002 159.925,58.509 160.086 C 58.831 160.188,58.969 161.340,58.846 162.887 C 58.818 163.241,58.894 163.381,59.154 163.448 C 59.438 163.523,59.500 163.670,59.500 164.269 C 59.500 164.778,59.601 165.101,59.833 165.333 C 60.017 165.517,60.167 165.732,60.167 165.813 C 60.167 165.893,60.291 166.062,60.442 166.188 C 60.594 166.314,60.820 166.660,60.945 166.958 C 61.069 167.256,61.283 167.500,61.419 167.500 C 61.556 167.500,61.667 167.649,61.667 167.833 C 61.667 168.056,61.778 168.167,62.000 168.167 C 62.222 168.167,62.333 168.278,62.333 168.500 C 62.333 168.741,62.444 168.833,62.734 168.833 C 63.047 168.833,63.117 168.904,63.052 169.151 C 62.975 169.448,63.372 169.725,63.774 169.653 C 64.156 169.584,64.333 169.697,64.333 170.010 C 64.333 170.238,64.432 170.344,64.625 170.325 C 65.288 170.257,65.667 170.347,65.667 170.572 C 65.667 170.876,66.004 170.965,67.250 170.990 C 67.800 171.001,68.275 171.083,68.306 171.172 C 68.382 171.395,75.833 171.390,75.833 171.167 C 75.833 171.069,76.395 171.000,77.186 171.000 C 78.457 171.000,78.534 170.980,78.452 170.667 C 78.374 170.370,78.447 170.333,79.117 170.333 C 79.711 170.333,79.849 170.282,79.775 170.088 C 79.707 169.912,79.866 169.793,80.337 169.666 C 80.699 169.568,81.073 169.341,81.170 169.161 C 81.266 168.981,81.450 168.833,81.578 168.833 C 81.706 168.833,81.858 168.683,81.917 168.500 C 81.975 168.317,82.130 168.167,82.261 168.167 C 82.393 168.167,82.500 168.095,82.500 168.006 C 82.500 167.918,82.661 167.697,82.857 167.514 C 83.099 167.288,83.240 166.911,83.295 166.340 C 83.360 165.659,83.435 165.500,83.688 165.500 C 83.860 165.500,83.991 165.444,83.980 165.375 C 83.870 164.676,84.027 164.038,84.292 164.107 C 84.551 164.175,84.585 164.034,84.597 162.842 L 84.611 161.500 83.972 161.500 C 83.444 161.500,83.333 161.442,83.333 161.167 C 83.333 160.946,83.222 160.833,83.006 160.833 C 82.826 160.833,82.603 160.692,82.510 160.519 C 82.249 160.031,79.333 159.998,79.333 160.484 C 79.333 160.664,79.184 160.858,79.000 160.917 C 78.752 160.995,78.667 161.169,78.667 161.595 C 78.667 161.944,78.537 162.296,78.333 162.500 C 78.150 162.683,78.000 162.953,78.000 163.098 C 78.000 163.244,77.662 163.691,77.250 164.092 C 76.837 164.493,76.500 164.969,76.500 165.150 C 76.500 165.411,76.369 165.491,75.875 165.532 C 75.398 165.571,75.239 165.662,75.202 165.917 C 75.138 166.370,70.627 166.331,70.119 165.873 C 69.956 165.725,69.506 165.585,69.119 165.561 C 68.733 165.538,68.363 165.514,68.297 165.509 C 68.231 165.504,68.221 165.385,68.275 165.244 C 68.398 164.925,67.936 164.395,67.424 164.267 C 67.213 164.214,67.000 164.019,66.952 163.835 C 66.904 163.651,66.753 163.500,66.617 163.500 C 66.467 163.500,66.328 163.272,66.261 162.917 C 66.195 162.567,66.054 162.333,65.909 162.333 C 65.762 162.333,65.667 162.170,65.667 161.917 C 65.667 161.688,65.517 161.350,65.333 161.167 C 65.118 160.952,65.000 160.611,65.000 160.207 C 65.000 159.417,64.736 158.479,64.466 158.312 C 64.009 158.030,64.821 158.005,74.547 157.997 L 84.654 157.990 84.654 153.997 C 84.654 151.801,84.601 150.012,84.535 150.022 C 84.058 150.093,84.000 149.949,84.000 148.689 C 84.000 147.666,83.932 147.291,83.691 146.981 C 83.521 146.762,83.330 146.302,83.267 145.958 C 83.196 145.575,83.058 145.333,82.909 145.333 C 82.774 145.333,82.667 145.179,82.667 144.984 C 82.667 144.776,82.533 144.600,82.333 144.548 C 82.150 144.500,82.000 144.371,82.000 144.261 C 82.000 143.945,80.471 142.500,80.136 142.500 C 79.954 142.500,79.833 142.379,79.833 142.196 C 79.833 141.831,79.167 141.167,78.800 141.167 C 78.657 141.167,78.500 141.017,78.452 140.833 C 78.387 140.585,78.224 140.500,77.818 140.500 C 77.481 140.500,77.119 140.357,76.873 140.125 C 76.446 139.724,67.929 139.458,67.078 139.819 M95.059 139.782 C 94.862 139.820,94.570 139.998,94.408 140.176 C 94.231 140.371,93.898 140.500,93.569 140.500 C 93.169 140.500,92.994 140.589,92.917 140.833 C 92.858 141.017,92.707 141.167,92.580 141.167 C 92.274 141.167,91.500 141.949,91.500 142.258 C 91.500 142.391,91.391 142.500,91.258 142.500 C 90.953 142.500,90.167 143.273,90.167 143.571 C 90.167 143.694,90.017 143.834,89.833 143.882 C 89.581 143.948,89.500 144.109,89.500 144.548 C 89.500 144.981,89.418 145.149,89.177 145.212 C 88.665 145.346,88.652 152.050,89.163 152.370 C 89.348 152.486,89.500 152.719,89.500 152.889 C 89.500 153.059,89.650 153.237,89.833 153.285 C 90.017 153.333,90.167 153.468,90.167 153.585 C 90.167 153.836,90.535 154.000,91.097 154.000 C 91.412 154.000,91.500 154.088,91.500 154.403 C 91.500 154.971,91.665 155.333,91.923 155.333 C 92.045 155.333,92.192 155.483,92.250 155.667 C 92.308 155.850,92.463 156.000,92.595 156.000 C 92.726 156.000,92.983 156.150,93.167 156.333 C 93.389 156.556,93.722 156.667,94.167 156.667 C 94.611 156.667,94.944 156.778,95.167 157.000 C 95.437 157.270,95.722 157.333,96.678 157.333 C 97.780 157.333,97.849 157.355,97.750 157.667 C 97.687 157.865,97.720 158.000,97.832 158.000 C 97.935 158.000,97.967 157.906,97.902 157.792 C 97.808 157.625,97.829 157.625,98.009 157.792 C 98.132 157.906,98.551 158.000,98.939 158.000 C 99.498 158.000,99.666 158.069,99.750 158.333 C 99.811 158.526,100.002 158.667,100.204 158.667 C 100.547 158.667,100.548 158.662,100.234 158.300 L 99.917 157.933 100.373 158.281 C 100.624 158.472,101.172 158.680,101.591 158.742 C 102.010 158.805,102.392 158.958,102.439 159.083 C 102.487 159.207,102.820 159.358,103.180 159.419 C 103.607 159.491,103.833 159.618,103.833 159.784 C 103.833 159.957,103.941 160.011,104.167 159.952 C 104.350 159.904,104.458 159.932,104.407 160.016 C 104.356 160.099,104.506 160.167,104.740 160.167 C 105.113 160.167,105.167 160.237,105.167 160.724 C 105.167 161.070,105.293 161.396,105.500 161.583 C 105.702 161.766,105.833 162.097,105.833 162.423 C 105.833 162.821,105.746 162.984,105.500 163.048 C 105.255 163.112,105.167 163.276,105.167 163.667 C 105.167 164.058,105.079 164.221,104.833 164.285 C 104.584 164.350,104.500 164.512,104.500 164.927 C 104.500 165.460,104.473 165.483,103.792 165.532 C 103.231 165.573,103.073 165.653,103.036 165.917 C 102.975 166.344,97.034 166.282,96.633 165.851 C 96.454 165.658,96.458 165.641,96.651 165.751 C 96.808 165.841,96.846 165.821,96.766 165.692 C 96.701 165.587,96.389 165.500,96.073 165.500 C 95.576 165.500,95.500 165.446,95.500 165.093 C 95.500 164.869,95.364 164.588,95.197 164.468 C 95.031 164.348,94.846 164.119,94.786 163.958 C 94.726 163.798,94.562 163.667,94.422 163.667 C 94.261 163.667,94.167 163.513,94.167 163.250 C 94.167 163.021,94.017 162.683,93.833 162.500 C 93.633 162.300,93.500 161.944,93.500 161.609 C 93.500 161.263,93.373 160.937,93.167 160.750 C 92.945 160.549,92.833 160.237,92.833 159.817 C 92.833 159.398,92.732 159.112,92.531 158.968 C 92.364 158.848,92.179 158.619,92.119 158.458 C 91.964 158.042,90.932 158.068,90.500 158.500 C 90.317 158.683,90.051 158.833,89.909 158.833 C 89.576 158.833,88.833 159.576,88.833 159.909 C 88.833 160.134,88.206 160.278,87.625 160.186 C 87.556 160.176,87.500 160.317,87.500 160.500 C 87.500 160.716,87.389 160.833,87.184 160.833 C 86.724 160.833,86.409 162.155,86.811 162.403 C 86.890 162.452,86.918 162.686,86.873 162.923 C 86.809 163.260,86.868 163.374,87.145 163.446 C 87.456 163.527,87.500 163.659,87.500 164.519 C 87.500 165.389,87.538 165.500,87.833 165.500 C 88.078 165.500,88.167 165.611,88.167 165.917 C 88.167 166.146,88.306 166.472,88.476 166.643 C 88.646 166.813,88.832 167.131,88.889 167.351 C 89.105 168.182,90.876 169.667,91.651 169.667 C 92.059 169.667,92.167 169.738,92.167 170.007 C 92.167 170.195,92.260 170.336,92.375 170.321 C 93.023 170.237,93.468 170.359,93.542 170.642 C 93.609 170.900,93.809 170.955,94.770 170.981 C 95.400 170.998,95.942 171.085,95.972 171.173 C 96.049 171.395,103.954 171.388,104.028 171.165 C 104.059 171.073,104.599 170.990,105.229 170.980 C 106.203 170.965,106.387 170.916,106.457 170.648 C 106.535 170.348,106.863 170.254,107.565 170.329 C 107.808 170.354,107.859 170.283,107.789 170.014 C 107.715 169.733,107.774 169.667,108.099 169.667 C 108.320 169.667,108.491 169.610,108.480 169.542 C 108.422 169.175,108.534 169.000,108.828 169.000 C 109.148 169.000,110.500 167.894,110.500 167.632 C 110.500 167.559,110.650 167.350,110.833 167.167 C 111.066 166.934,111.167 166.611,111.167 166.099 C 111.167 165.447,111.204 165.374,111.500 165.452 C 111.825 165.537,111.833 165.457,111.833 162.223 C 111.833 159.098,111.814 158.893,111.500 158.667 C 111.311 158.531,111.167 158.235,111.167 157.986 C 111.167 157.300,109.404 155.333,108.789 155.333 C 108.651 155.333,108.498 155.178,108.448 154.987 C 108.394 154.778,108.238 154.654,108.054 154.673 C 107.254 154.757,107.030 154.672,107.122 154.321 C 107.183 154.086,107.138 153.985,106.981 154.007 C 106.177 154.120,105.667 153.987,105.667 153.667 C 105.667 153.460,105.556 153.333,105.373 153.333 C 105.212 153.333,104.987 153.183,104.872 153.000 C 104.710 152.741,104.483 152.667,103.851 152.667 C 103.161 152.667,103.025 152.613,102.946 152.310 C 102.859 151.979,102.773 151.959,101.753 152.041 C 100.681 152.127,100.167 151.951,100.167 151.498 C 100.167 151.418,99.714 151.359,99.161 151.366 C 98.344 151.378,98.083 151.312,97.767 151.016 C 97.554 150.816,97.312 150.664,97.231 150.679 C 96.627 150.790,96.167 150.641,96.167 150.333 C 96.167 150.111,96.056 150.000,95.833 150.000 C 95.531 150.000,95.419 149.822,95.484 149.446 C 95.498 149.370,95.440 149.351,95.356 149.402 C 95.034 149.601,94.817 149.004,94.866 148.056 C 94.909 147.237,94.963 147.091,95.208 147.132 C 95.424 147.169,95.500 147.068,95.500 146.746 C 95.500 146.387,95.558 146.329,95.833 146.417 C 96.093 146.499,96.167 146.447,96.167 146.178 C 96.167 145.894,96.271 145.833,96.766 145.833 C 97.224 145.833,97.385 145.755,97.452 145.500 C 97.534 145.187,97.679 145.167,99.847 145.167 C 101.984 145.167,102.168 145.191,102.333 145.500 C 102.458 145.733,102.682 145.833,103.078 145.833 C 103.498 145.833,103.672 145.920,103.750 146.167 C 103.808 146.350,104.001 146.500,104.178 146.500 C 104.444 146.500,104.500 146.619,104.500 147.186 C 104.500 147.790,104.540 147.862,104.833 147.785 C 105.127 147.708,105.167 147.780,105.167 148.395 C 105.167 148.902,105.258 149.159,105.500 149.333 C 105.724 149.495,105.834 149.767,105.836 150.162 C 105.840 151.060,105.999 151.190,107.091 151.190 C 107.851 151.190,108.121 151.120,108.324 150.869 C 108.466 150.693,108.715 150.502,108.875 150.446 C 109.035 150.390,109.167 150.229,109.167 150.089 C 109.167 149.907,109.338 149.833,109.758 149.833 C 110.389 149.833,111.167 149.240,111.167 148.758 C 111.167 148.611,111.310 148.500,111.500 148.500 C 111.790 148.500,111.833 148.389,111.833 147.651 C 111.833 146.942,111.778 146.788,111.500 146.715 C 111.237 146.646,111.167 146.488,111.167 145.965 C 111.167 145.442,111.096 145.284,110.833 145.215 C 110.611 145.157,110.500 144.988,110.500 144.707 C 110.500 144.120,109.548 143.171,108.958 143.168 C 108.612 143.167,108.500 143.085,108.500 142.833 C 108.500 142.619,108.389 142.500,108.188 142.500 C 107.953 142.500,107.850 142.336,107.769 141.833 C 107.686 141.315,107.589 141.167,107.331 141.167 C 107.149 141.167,107.000 141.062,107.000 140.934 C 107.000 140.667,106.645 140.500,106.078 140.500 C 105.861 140.500,105.617 140.383,105.537 140.239 C 105.264 139.751,97.048 139.393,95.059 139.782 M152.125 139.786 C 151.873 139.824,151.589 140.001,151.494 140.178 C 151.376 140.398,151.145 140.500,150.762 140.500 C 150.224 140.500,149.880 140.838,150.083 141.166 C 150.129 141.241,150.027 141.266,149.855 141.221 C 149.506 141.129,148.667 141.861,148.667 142.258 C 148.667 142.404,148.504 142.500,148.254 142.500 C 147.684 142.500,146.000 144.184,146.000 144.754 C 146.000 145.056,145.910 145.167,145.667 145.167 C 145.433 145.167,145.333 145.279,145.331 145.542 C 145.327 146.160,145.141 146.667,144.918 146.667 C 144.697 146.667,144.500 147.383,144.500 148.188 C 144.500 148.500,144.414 148.667,144.253 148.667 C 143.848 148.667,143.824 149.136,143.871 155.951 C 143.915 162.219,143.930 162.496,144.243 162.724 C 144.502 162.914,144.559 163.125,144.521 163.750 C 144.489 164.277,144.531 164.500,144.651 164.426 C 144.761 164.358,144.791 164.416,144.730 164.575 C 144.667 164.740,144.725 164.833,144.891 164.833 C 145.059 164.833,145.192 165.049,145.265 165.438 C 145.338 165.827,145.489 166.072,145.689 166.124 C 145.860 166.169,146.000 166.318,146.000 166.456 C 146.000 166.811,146.877 168.153,147.114 168.161 C 147.222 168.164,147.358 168.314,147.415 168.494 C 147.481 168.702,147.729 168.861,148.093 168.929 C 148.506 169.007,148.667 169.125,148.667 169.352 C 148.667 169.549,148.784 169.667,148.981 169.667 C 149.154 169.667,149.333 169.816,149.382 170.000 C 149.448 170.253,149.609 170.333,150.048 170.333 C 150.488 170.333,150.649 170.414,150.715 170.667 C 150.795 170.972,150.942 171.000,152.484 171.000 C 153.495 171.000,154.167 171.067,154.167 171.167 C 154.167 171.393,161.285 171.394,161.361 171.168 C 161.392 171.077,161.883 170.993,162.454 170.980 C 163.309 170.961,163.509 170.902,163.590 170.645 C 163.680 170.361,164.058 170.245,164.638 170.324 C 164.760 170.340,164.900 170.199,164.949 170.010 C 165.013 169.764,165.174 169.667,165.516 169.667 C 165.840 169.667,166.079 169.534,166.265 169.250 C 166.415 169.021,166.618 168.833,166.716 168.833 C 166.978 168.833,168.333 167.328,168.333 167.037 C 168.333 166.899,168.458 166.696,168.609 166.585 C 168.876 166.390,168.957 166.080,168.986 165.141 C 168.997 164.792,169.067 164.715,169.315 164.780 C 169.607 164.857,169.631 164.742,169.653 163.181 C 169.675 161.628,169.653 161.500,169.358 161.500 C 169.175 161.500,169.000 161.352,168.948 161.153 C 168.885 160.913,168.738 160.816,168.470 160.838 C 167.821 160.892,167.709 160.846,167.617 160.494 C 167.534 160.178,167.418 160.157,165.972 160.202 L 164.417 160.250 164.366 160.858 C 164.330 161.295,164.224 161.490,163.991 161.551 C 163.747 161.614,163.667 161.781,163.667 162.223 C 163.667 162.664,163.584 162.837,163.333 162.917 C 163.150 162.975,163.000 163.167,163.000 163.345 C 163.000 163.522,162.893 163.667,162.761 163.667 C 162.630 163.667,162.475 163.817,162.417 164.000 C 162.358 164.183,162.209 164.333,162.085 164.333 C 161.961 164.333,161.773 164.596,161.667 164.917 C 161.520 165.362,161.382 165.500,161.084 165.500 C 160.521 165.500,160.167 165.668,160.167 165.934 C 160.167 166.309,155.529 166.270,155.253 165.893 C 155.082 165.658,154.653 165.562,153.542 165.510 C 153.422 165.504,153.333 165.281,153.333 164.984 C 153.333 164.617,153.242 164.445,153.015 164.386 C 152.841 164.340,152.660 164.159,152.614 163.985 C 152.569 163.810,152.412 163.667,152.266 163.667 C 152.120 163.667,152.000 163.552,152.000 163.411 C 152.000 163.271,151.882 163.111,151.737 163.055 C 151.593 163.000,151.407 162.777,151.325 162.561 C 151.242 162.344,151.061 162.167,150.921 162.167 C 150.744 162.167,150.667 161.998,150.667 161.609 C 150.667 161.263,150.540 160.937,150.333 160.750 C 150.058 160.500,150.000 160.237,150.000 159.224 L 150.000 158.000 159.833 158.000 L 169.667 158.000 169.667 153.345 C 169.667 148.836,169.656 148.686,169.333 148.583 C 169.060 148.497,169.000 148.331,169.000 147.661 C 169.000 147.016,168.930 146.808,168.667 146.667 C 168.429 146.540,168.333 146.318,168.333 145.895 C 168.333 145.448,168.254 145.281,168.009 145.217 C 167.791 145.160,167.669 144.961,167.634 144.608 C 167.600 144.254,167.462 144.030,167.208 143.919 C 167.002 143.828,166.833 143.668,166.833 143.562 C 166.833 143.342,166.457 143.167,165.986 143.167 C 165.778 143.167,165.667 143.051,165.667 142.833 C 165.667 142.611,165.556 142.500,165.333 142.500 C 165.125 142.500,165.000 142.389,165.000 142.204 C 165.000 141.677,164.513 141.167,164.010 141.167 C 163.679 141.167,163.513 141.067,163.452 140.833 C 163.385 140.579,163.224 140.500,162.774 140.500 C 162.449 140.500,162.123 140.398,162.050 140.274 C 161.726 139.725,161.205 139.667,156.886 139.692 C 154.520 139.705,152.377 139.748,152.125 139.786 M278.059 139.778 C 277.862 139.819,277.570 139.998,277.408 140.176 C 277.229 140.374,276.898 140.500,276.558 140.500 C 276.169 140.500,276.000 140.577,276.000 140.754 C 276.000 140.894,275.831 141.079,275.625 141.165 C 275.063 141.400,274.500 141.936,274.500 142.235 C 274.500 142.385,274.361 142.500,274.180 142.500 C 273.684 142.500,273.333 142.680,273.333 142.934 C 273.333 143.062,273.225 143.167,273.093 143.167 C 272.960 143.167,272.754 143.303,272.634 143.469 C 272.515 143.636,272.277 143.824,272.106 143.888 C 271.897 143.966,271.824 144.112,271.882 144.336 C 271.930 144.518,271.908 144.629,271.833 144.583 C 271.562 144.416,271.149 144.717,271.176 145.063 C 271.231 145.770,271.160 145.963,270.812 146.054 C 270.531 146.127,270.475 146.239,270.543 146.593 C 270.601 146.896,270.525 147.141,270.307 147.359 C 269.865 147.802,269.667 148.390,269.667 149.261 C 269.667 149.781,269.598 150.000,269.435 150.000 C 268.847 150.000,268.765 160.202,269.346 161.017 C 269.537 161.286,269.667 161.744,269.667 162.151 C 269.667 162.526,269.734 162.833,269.816 162.833 C 269.897 162.833,270.009 162.950,270.064 163.092 C 270.121 163.240,270.093 163.307,269.998 163.249 C 269.907 163.193,269.833 163.235,269.833 163.343 C 269.833 163.451,269.969 163.503,270.136 163.460 C 270.335 163.408,270.438 163.472,270.439 163.649 C 270.444 164.632,270.510 164.846,270.792 164.799 C 271.022 164.760,271.095 164.889,271.137 165.408 C 271.169 165.796,271.322 166.179,271.512 166.344 C 271.689 166.497,271.833 166.704,271.833 166.804 C 271.833 167.125,273.651 168.858,274.125 168.988 C 274.425 169.071,274.566 169.210,274.534 169.390 C 274.502 169.574,274.600 169.667,274.826 169.667 C 275.013 169.667,275.167 169.774,275.167 169.905 C 275.167 170.130,275.627 170.376,275.941 170.319 C 276.296 170.256,276.485 170.358,276.583 170.667 C 276.675 170.954,276.836 171.000,277.761 171.000 C 278.365 171.000,278.833 171.073,278.833 171.167 C 278.833 171.273,280.139 171.333,282.417 171.333 C 284.391 171.333,286.000 171.267,286.000 171.185 C 286.000 171.104,286.533 171.007,287.185 170.971 C 288.096 170.919,288.422 170.832,288.596 170.594 C 288.729 170.412,289.044 170.276,289.356 170.267 C 289.670 170.257,289.923 170.147,289.972 170.000 C 290.045 169.778,290.019 169.778,289.735 170.000 C 289.441 170.231,289.434 170.228,289.644 169.960 C 289.769 169.801,289.919 169.698,289.977 169.732 C 290.217 169.872,290.865 169.489,290.777 169.259 C 290.717 169.104,290.813 169.003,291.051 168.969 C 291.280 168.936,291.408 168.808,291.394 168.625 C 291.381 168.465,291.479 168.333,291.612 168.333 C 291.752 168.333,291.803 168.253,291.734 168.141 C 291.662 168.024,291.688 167.994,291.801 168.063 C 292.022 168.200,293.500 166.793,293.500 166.446 C 293.500 166.314,293.650 166.166,293.833 166.118 C 294.089 166.052,294.167 165.891,294.167 165.432 C 294.167 164.944,294.229 164.833,294.500 164.833 C 294.778 164.833,294.833 164.722,294.833 164.167 C 294.833 163.627,294.893 163.500,295.145 163.500 C 295.414 163.500,295.459 163.357,295.479 162.458 C 295.495 161.708,295.577 161.360,295.773 161.215 C 296.310 160.818,296.535 150.420,295.999 150.751 C 295.688 150.943,295.511 150.450,295.487 149.328 C 295.466 148.323,295.394 148.010,295.113 147.703 C 294.874 147.441,294.778 147.140,294.806 146.731 C 294.838 146.257,294.778 146.121,294.506 146.050 C 294.289 145.993,294.167 145.823,294.167 145.578 C 294.167 145.033,294.000 144.667,293.752 144.667 C 293.635 144.667,293.500 144.517,293.452 144.334 C 293.404 144.151,293.232 143.951,293.070 143.889 C 292.908 143.826,292.638 143.638,292.471 143.471 C 292.304 143.304,292.017 143.167,291.833 143.167 C 291.611 143.167,291.500 143.056,291.500 142.833 C 291.500 142.611,291.389 142.500,291.167 142.500 C 290.983 142.500,290.833 142.402,290.833 142.281 C 290.833 141.981,289.958 141.167,289.635 141.167 C 289.491 141.167,289.333 141.017,289.285 140.833 C 289.219 140.581,289.058 140.500,288.621 140.500 C 288.276 140.500,287.854 140.350,287.569 140.125 C 287.111 139.765,279.475 139.486,278.059 139.778 M302.680 140.442 C 302.550 140.500,302.271 140.742,302.059 140.982 L 301.674 141.417 301.712 156.048 C 301.745 168.842,301.781 170.699,302.000 170.841 C 302.144 170.935,303.415 170.985,305.000 170.960 L 307.750 170.917 307.791 155.917 C 307.814 147.083,307.769 140.819,307.679 140.679 C 307.519 140.428,303.180 140.223,302.680 140.442 M134.667 141.032 C 134.667 141.251,134.288 141.114,134.205 140.864 C 134.164 140.743,134.240 140.705,134.403 140.768 C 134.548 140.823,134.667 140.942,134.667 141.032 M73.882 145.500 C 73.948 145.755,74.109 145.833,74.568 145.833 C 75.005 145.833,75.167 145.905,75.167 146.099 C 75.167 146.245,75.314 146.403,75.494 146.450 C 75.675 146.497,75.867 146.678,75.922 146.851 C 75.977 147.025,76.142 147.167,76.287 147.167 C 76.516 147.167,76.511 147.122,76.250 146.833 C 76.084 146.650,75.984 146.500,76.028 146.500 C 76.073 146.500,76.290 146.700,76.513 146.944 C 76.735 147.187,76.823 147.333,76.708 147.267 C 76.474 147.132,76.455 147.188,76.601 147.570 C 76.657 147.715,76.797 147.833,76.914 147.833 C 77.030 147.833,77.172 148.069,77.230 148.357 C 77.287 148.645,77.446 148.964,77.583 149.065 C 77.719 149.167,77.899 149.618,77.982 150.067 C 78.065 150.517,78.253 150.952,78.400 151.034 C 78.547 151.116,78.667 151.367,78.667 151.592 L 78.667 152.000 71.833 152.000 L 65.000 152.000 65.000 151.151 C 65.000 150.555,65.099 150.177,65.333 149.879 C 65.517 149.646,65.667 149.249,65.667 148.997 C 65.667 148.679,65.769 148.512,66.000 148.452 C 66.255 148.385,66.333 148.224,66.333 147.766 C 66.333 147.278,66.395 147.167,66.667 147.167 C 66.889 147.167,67.000 147.056,67.000 146.833 C 67.000 146.592,67.111 146.500,67.403 146.500 C 67.978 146.500,68.333 146.334,68.333 146.066 C 68.333 145.913,68.525 145.833,68.891 145.833 C 69.237 145.833,69.563 145.707,69.750 145.500 C 70.018 145.204,70.263 145.167,71.923 145.167 C 73.654 145.167,73.801 145.192,73.882 145.500 M159.000 145.399 C 159.000 145.665,159.354 145.833,159.911 145.833 C 160.154 145.833,160.326 145.955,160.382 146.167 C 160.445 146.409,160.609 146.500,160.984 146.500 C 161.304 146.500,161.500 146.585,161.500 146.723 C 161.500 146.846,161.688 147.032,161.917 147.136 C 162.246 147.287,162.333 147.449,162.333 147.913 C 162.333 148.389,162.396 148.500,162.667 148.500 C 162.939 148.500,163.000 148.611,163.000 149.105 C 163.000 149.493,163.114 149.810,163.317 149.986 C 163.647 150.272,163.718 150.554,163.686 151.458 L 163.667 152.000 156.833 152.000 L 150.000 152.000 150.000 151.485 C 150.000 151.201,150.150 150.779,150.333 150.545 C 150.563 150.254,150.667 149.869,150.667 149.311 C 150.667 148.611,150.712 148.500,151.000 148.500 C 151.222 148.500,151.333 148.389,151.333 148.167 C 151.333 147.944,151.444 147.833,151.667 147.833 C 151.882 147.833,152.000 147.722,152.000 147.519 C 152.000 147.346,152.149 147.167,152.333 147.118 C 152.537 147.065,152.667 146.891,152.667 146.671 C 152.667 146.383,152.736 146.333,153.011 146.420 C 153.282 146.506,153.344 146.464,153.302 146.223 C 153.262 145.989,153.369 145.906,153.750 145.873 C 154.893 145.772,155.333 145.643,155.333 145.409 C 155.333 145.212,155.674 145.167,157.167 145.167 C 158.623 145.167,159.000 145.214,159.000 145.399 M284.750 145.500 C 284.829 145.750,285.002 145.833,285.444 145.833 C 285.891 145.833,286.052 145.913,286.118 146.167 C 286.187 146.428,286.346 146.500,286.853 146.500 C 287.389 146.500,287.500 146.557,287.500 146.833 C 287.500 147.056,287.611 147.167,287.833 147.167 C 288.111 147.167,288.167 147.278,288.167 147.833 C 288.167 148.389,288.222 148.500,288.500 148.500 C 288.771 148.500,288.833 148.611,288.833 149.099 C 288.833 149.558,288.911 149.718,289.167 149.785 C 289.456 149.861,289.500 150.012,289.500 150.936 C 289.500 151.778,289.570 152.070,289.833 152.333 C 290.143 152.643,290.167 152.889,290.167 155.750 C 290.167 158.611,290.143 158.857,289.833 159.167 C 289.574 159.426,289.500 159.722,289.500 160.500 C 289.500 161.389,289.463 161.500,289.167 161.500 C 288.946 161.500,288.833 161.611,288.833 161.827 C 288.833 162.008,288.683 162.235,288.500 162.333 C 288.284 162.449,288.167 162.682,288.167 162.995 C 288.167 163.331,288.066 163.510,287.833 163.583 C 287.650 163.642,287.500 163.804,287.500 163.944 C 287.500 164.083,287.344 164.239,287.153 164.289 C 286.914 164.351,286.832 164.476,286.888 164.690 C 286.932 164.860,286.901 165.000,286.818 165.000 C 286.735 165.000,286.667 165.112,286.667 165.250 C 286.667 165.387,286.535 165.508,286.375 165.518 C 286.215 165.527,285.933 165.546,285.750 165.559 C 285.543 165.574,285.425 165.694,285.440 165.875 C 285.453 166.035,285.378 166.168,285.273 166.170 C 280.846 166.252,280.105 166.205,279.967 165.832 C 279.869 165.568,279.735 165.487,279.498 165.549 C 279.261 165.611,279.167 165.553,279.167 165.347 C 279.167 165.033,278.592 164.445,278.125 164.280 C 277.965 164.223,277.833 164.071,277.833 163.941 C 277.833 163.812,277.683 163.666,277.500 163.618 C 277.301 163.566,277.167 163.391,277.167 163.182 C 277.167 162.990,277.017 162.683,276.833 162.500 C 276.650 162.317,276.500 162.066,276.500 161.942 C 276.500 161.819,276.359 161.591,276.187 161.435 C 275.978 161.246,275.848 160.848,275.798 160.241 C 275.755 159.726,275.605 159.205,275.452 159.040 C 274.432 157.943,274.500 158.206,274.500 155.370 L 274.500 152.740 274.998 152.552 C 275.580 152.332,275.833 151.783,275.833 150.739 C 275.833 150.222,275.934 149.900,276.167 149.667 C 276.350 149.483,276.500 149.155,276.500 148.936 C 276.500 148.671,276.618 148.508,276.855 148.446 C 277.108 148.380,277.186 148.260,277.126 148.031 C 277.060 147.778,277.111 147.727,277.364 147.793 C 277.593 147.853,277.713 147.774,277.779 147.522 C 277.830 147.327,277.983 147.167,278.118 147.167 C 278.254 147.167,278.404 147.017,278.452 146.833 C 278.500 146.649,278.679 146.500,278.853 146.500 C 279.056 146.500,279.167 146.382,279.167 146.167 C 279.167 145.895,279.278 145.833,279.766 145.833 C 280.224 145.833,280.385 145.755,280.452 145.500 C 280.533 145.189,280.679 145.167,282.592 145.167 C 284.498 145.167,284.652 145.190,284.750 145.500 M49.618 146.838 C 49.399 147.093,49.388 147.167,49.567 147.167 C 49.694 147.167,49.845 147.043,49.903 146.893 C 50.058 146.489,49.937 146.466,49.618 146.838 M152.453 146.726 C 152.364 146.991,152.056 147.035,152.056 146.782 C 152.056 146.658,152.158 146.556,152.282 146.556 C 152.407 146.556,152.484 146.632,152.453 146.726 M278.286 146.726 C 278.197 146.991,277.889 147.035,277.889 146.782 C 277.889 146.658,277.991 146.556,278.116 146.556 C 278.241 146.556,278.317 146.632,278.286 146.726 " stroke="none" fill="#231f20" fill-rule="evenodd"></path><path id="path3" d="M350.387 1.214 C 350.339 1.292,350.345 1.401,350.400 1.456 C 350.455 1.511,350.500 1.470,350.500 1.366 C 350.500 1.262,350.605 1.217,350.733 1.267 C 350.861 1.316,351.013 1.280,351.070 1.188 C 351.129 1.093,351.022 1.032,350.824 1.047 C 350.632 1.061,350.435 1.136,350.387 1.214 M323.792 3.347 C 323.403 3.573,323.421 3.819,323.823 3.788 C 324.001 3.775,324.181 3.630,324.224 3.465 C 324.312 3.128,324.213 3.101,323.792 3.347 M312.375 10.505 C 312.169 10.588,312.000 10.735,312.000 10.832 C 312.000 10.929,312.186 10.886,312.417 10.735 C 312.646 10.585,312.833 10.433,312.833 10.397 C 312.833 10.320,312.841 10.318,312.375 10.505 M383.513 44.782 C 383.493 45.091,383.841 45.227,384.056 44.994 C 384.207 44.830,384.188 44.806,383.969 44.883 C 383.815 44.937,383.652 44.892,383.607 44.782 C 383.545 44.629,383.523 44.629,383.513 44.782 M380.167 52.149 C 380.167 52.231,380.279 52.341,380.417 52.394 C 380.569 52.452,380.667 52.394,380.667 52.245 C 380.667 52.110,380.554 52.000,380.417 52.000 C 380.279 52.000,380.167 52.067,380.167 52.149 M320.667 62.798 C 320.667 62.881,320.828 63.091,321.024 63.266 C 321.379 63.581,321.381 63.581,321.190 63.218 C 320.978 62.812,320.667 62.563,320.667 62.798 M307.167 69.205 C 307.167 69.230,307.392 69.464,307.667 69.723 C 307.942 69.983,308.123 70.081,308.070 69.941 C 307.988 69.730,307.167 69.060,307.167 69.205 M375.096 78.920 C 374.731 79.196,374.813 79.394,375.226 79.236 C 375.377 79.178,375.500 79.027,375.500 78.899 C 375.500 78.617,375.496 78.617,375.096 78.920 M323.965 80.698 C 324.255 80.988,324.661 81.013,324.554 80.734 C 324.505 80.605,324.307 80.500,324.116 80.500 C 323.846 80.500,323.812 80.545,323.965 80.698 " stroke="none" fill="#800000" fill-rule="evenodd"></path><path id="path4" d="M337.833 0.167 C 337.833 0.269,337.050 0.333,335.818 0.333 C 333.942 0.333,333.796 0.357,333.715 0.667 C 333.632 0.983,332.264 1.152,330.792 1.028 C 330.629 1.015,330.500 1.118,330.500 1.262 C 330.500 1.404,330.430 1.477,330.345 1.424 C 330.260 1.371,330.143 1.404,330.085 1.497 C 330.027 1.590,329.500 1.667,328.913 1.667 C 328.016 1.667,327.817 1.720,327.667 2.000 C 327.531 2.254,327.318 2.333,326.776 2.333 C 326.303 2.333,325.947 2.441,325.719 2.654 C 325.530 2.830,325.161 2.998,324.900 3.029 C 324.634 3.059,324.347 3.231,324.249 3.417 C 324.045 3.807,323.896 3.851,322.699 3.875 C 321.963 3.890,321.757 3.961,321.555 4.270 C 321.399 4.508,321.211 4.609,321.043 4.545 C 320.868 4.478,320.819 4.509,320.899 4.638 C 320.965 4.746,320.935 4.833,320.831 4.833 C 320.594 4.833,320.265 5.162,320.121 5.542 C 320.046 5.740,319.830 5.833,319.448 5.833 C 319.097 5.833,318.772 5.959,318.583 6.167 C 318.417 6.350,318.099 6.500,317.875 6.500 C 317.609 6.500,317.439 6.615,317.382 6.833 C 317.313 7.094,317.154 7.167,316.647 7.167 C 316.111 7.167,316.000 7.224,316.000 7.500 C 316.000 7.758,315.889 7.833,315.509 7.833 C 315.227 7.833,314.927 7.961,314.801 8.136 C 314.681 8.302,314.452 8.488,314.292 8.547 C 314.131 8.607,314.000 8.771,314.000 8.911 C 314.000 9.052,313.921 9.167,313.823 9.167 C 313.726 9.167,313.693 9.241,313.749 9.331 C 313.809 9.429,313.735 9.452,313.565 9.386 C 313.371 9.312,313.317 9.339,313.399 9.471 C 313.472 9.589,313.349 9.743,313.086 9.862 C 312.848 9.971,312.688 10.149,312.730 10.258 C 312.838 10.541,311.989 11.122,311.273 11.257 C 310.899 11.327,310.667 11.465,310.667 11.617 C 310.667 11.753,310.526 11.901,310.354 11.946 C 310.181 11.991,309.956 12.214,309.853 12.440 C 309.750 12.667,309.593 12.807,309.504 12.753 C 309.416 12.698,309.295 12.843,309.237 13.075 C 309.179 13.308,309.056 13.451,308.964 13.394 C 308.737 13.254,308.506 13.653,308.503 14.188 C 308.501 14.538,308.402 14.645,308.007 14.724 C 307.692 14.787,307.426 14.994,307.268 15.298 C 307.133 15.560,306.905 15.872,306.761 15.991 C 306.617 16.110,306.500 16.346,306.500 16.515 C 306.500 16.725,306.418 16.791,306.240 16.723 C 306.067 16.657,305.950 16.740,305.889 16.973 C 305.838 17.165,305.655 17.367,305.482 17.422 C 305.253 17.495,305.167 17.680,305.167 18.095 C 305.167 18.556,305.102 18.667,304.833 18.667 C 304.589 18.667,304.500 18.778,304.500 19.083 C 304.500 19.389,304.411 19.500,304.167 19.500 C 303.878 19.500,303.833 19.611,303.833 20.333 C 303.833 20.809,303.758 21.167,303.657 21.167 C 303.560 21.167,303.534 21.253,303.599 21.359 C 303.675 21.481,303.645 21.506,303.518 21.428 C 303.362 21.331,303.364 21.242,303.524 21.027 C 303.717 20.770,303.711 20.769,303.431 21.024 C 303.260 21.180,303.092 21.631,303.043 22.066 C 302.994 22.502,302.871 22.833,302.757 22.833 C 302.417 22.833,301.783 23.629,301.894 23.917 C 301.957 24.081,301.928 24.142,301.820 24.075 C 301.724 24.015,301.658 24.068,301.675 24.192 C 301.743 24.682,301.658 25.014,301.492 24.912 C 301.374 24.839,301.388 24.713,301.534 24.527 C 301.728 24.278,301.720 24.273,301.451 24.485 C 301.286 24.614,301.190 24.821,301.237 24.943 C 301.284 25.066,301.245 25.167,301.149 25.167 C 301.053 25.167,300.998 25.385,301.026 25.653 C 301.058 25.958,300.956 26.272,300.752 26.498 C 300.459 26.821,300.392 27.079,300.347 28.042 C 300.339 28.202,300.202 28.334,300.042 28.336 C 299.792 28.338,299.786 28.362,300.000 28.500 C 300.214 28.638,300.208 28.662,299.958 28.664 C 299.709 28.666,299.667 28.833,299.667 29.814 C 299.667 30.821,299.626 30.972,299.333 31.048 C 299.024 31.129,299.000 31.276,299.000 33.068 C 299.000 34.889,298.981 35.000,298.667 35.000 C 298.338 35.000,298.333 35.111,298.333 42.766 C 298.333 50.391,298.339 50.533,298.667 50.618 C 298.976 50.699,299.000 50.846,299.000 52.618 C 299.000 54.391,299.024 54.538,299.333 54.618 C 299.618 54.693,299.667 54.846,299.667 55.675 C 299.667 56.498,299.717 56.660,300.000 56.750 C 300.259 56.832,300.338 57.012,300.353 57.553 C 300.384 58.704,300.400 58.753,300.725 58.697 C 300.898 58.668,300.988 58.718,300.931 58.811 C 300.874 58.902,300.892 59.016,300.969 59.064 C 301.047 59.113,301.078 59.380,301.037 59.659 C 300.993 59.958,301.036 60.167,301.143 60.167 C 301.242 60.167,301.283 60.269,301.235 60.395 C 301.187 60.521,301.255 60.665,301.386 60.715 C 301.517 60.766,301.675 61.074,301.736 61.401 C 301.799 61.737,301.990 62.072,302.174 62.171 C 302.353 62.267,302.500 62.455,302.500 62.589 C 302.500 62.723,302.612 62.833,302.750 62.833 C 302.889 62.833,303.000 62.981,303.000 63.167 C 303.000 63.350,303.073 63.500,303.161 63.500 C 303.250 63.500,303.282 63.607,303.232 63.737 C 303.180 63.873,303.289 64.054,303.487 64.160 C 303.735 64.293,303.833 64.508,303.833 64.923 C 303.833 65.240,303.890 65.491,303.958 65.480 C 304.344 65.419,304.500 65.545,304.500 65.917 C 304.500 66.218,304.590 66.333,304.823 66.333 C 305.076 66.333,305.158 66.469,305.198 66.952 C 305.236 67.403,305.340 67.594,305.583 67.660 C 305.767 67.710,305.917 67.862,305.917 68.000 C 305.917 68.137,306.048 68.240,306.208 68.227 C 306.393 68.212,306.500 68.321,306.500 68.523 C 306.500 68.710,306.673 68.907,306.918 69.000 C 307.148 69.088,307.316 69.251,307.293 69.364 C 307.269 69.476,307.400 69.571,307.583 69.576 C 307.801 69.581,307.918 69.699,307.921 69.917 C 307.924 70.129,308.030 70.242,308.213 70.227 C 308.411 70.211,308.500 70.327,308.500 70.602 C 308.500 70.889,308.593 71.000,308.833 71.000 C 309.056 71.000,309.167 71.111,309.167 71.333 C 309.167 71.556,309.278 71.667,309.500 71.667 C 309.718 71.667,309.833 71.778,309.833 71.988 C 309.833 72.194,309.969 72.331,310.208 72.367 C 310.415 72.399,310.564 72.518,310.540 72.633 C 310.517 72.747,310.686 72.912,310.915 73.000 C 311.145 73.087,311.333 73.273,311.333 73.413 C 311.333 73.574,311.489 73.667,311.760 73.667 C 311.994 73.667,312.143 73.737,312.090 73.822 C 311.927 74.086,312.708 74.500,313.370 74.500 C 313.936 74.500,314.000 74.544,314.000 74.929 C 314.000 75.447,314.895 76.414,315.206 76.234 C 315.322 76.168,315.362 76.174,315.294 76.248 C 315.227 76.323,315.362 76.560,315.595 76.775 C 316.058 77.205,316.256 77.282,316.061 76.958 C 315.887 76.669,316.528 77.175,316.804 77.546 C 316.926 77.709,317.113 77.831,317.221 77.818 C 317.811 77.745,318.343 77.850,318.238 78.019 C 318.067 78.296,318.498 78.495,319.280 78.497 C 319.830 78.499,320.000 78.571,320.083 78.833 C 320.166 79.092,320.336 79.167,320.845 79.167 C 321.389 79.167,321.500 79.223,321.500 79.500 C 321.500 79.776,321.611 79.833,322.147 79.833 C 322.661 79.833,322.813 79.904,322.884 80.177 C 322.934 80.366,323.074 80.507,323.195 80.491 C 323.843 80.403,324.474 80.526,324.564 80.759 C 324.621 80.907,324.593 80.974,324.498 80.915 C 324.407 80.859,324.333 80.893,324.333 80.990 C 324.333 81.087,324.564 81.167,324.845 81.167 C 325.308 81.167,325.919 81.525,325.748 81.696 C 325.710 81.735,325.947 81.784,326.276 81.806 C 326.633 81.830,326.983 81.980,327.145 82.178 C 327.351 82.429,327.674 82.526,328.473 82.576 C 329.208 82.622,329.590 82.727,329.732 82.920 C 329.874 83.115,330.270 83.221,331.061 83.276 C 331.879 83.332,332.276 83.442,332.510 83.677 C 332.782 83.949,333.071 84.000,334.333 84.000 C 335.611 84.000,335.883 84.049,336.167 84.333 C 336.462 84.629,336.722 84.667,338.463 84.667 C 340.231 84.667,340.455 84.700,340.716 85.006 C 340.999 85.336,341.152 85.344,346.454 85.297 L 351.901 85.250 351.962 84.626 C 352.008 84.148,351.969 84.023,351.792 84.090 C 351.666 84.139,351.417 84.007,351.239 83.798 L 350.917 83.417 351.333 83.750 L 351.750 84.083 351.445 83.722 C 351.173 83.400,350.967 83.359,349.571 83.348 C 348.233 83.337,347.953 83.286,347.668 83.001 C 347.385 82.719,347.113 82.667,345.917 82.667 C 344.722 82.667,344.448 82.614,344.167 82.333 C 343.907 82.074,343.611 82.000,342.833 82.000 C 341.944 82.000,341.833 81.963,341.833 81.667 C 341.833 81.364,341.136 81.200,340.309 81.308 C 340.249 81.316,340.238 81.179,340.284 81.003 C 340.344 80.774,340.281 80.685,340.059 80.686 C 339.228 80.688,338.449 80.494,338.263 80.239 C 338.133 80.062,337.739 79.926,337.204 79.875 C 336.395 79.797,336.349 79.766,336.301 79.281 C 336.258 78.854,336.155 78.745,335.675 78.621 C 335.359 78.540,335.011 78.351,334.902 78.201 C 334.792 78.052,334.488 77.914,334.226 77.895 C 333.964 77.876,333.694 77.854,333.625 77.847 C 333.556 77.839,333.500 77.749,333.500 77.646 C 333.500 77.523,333.599 77.536,333.792 77.685 C 334.029 77.869,334.024 77.842,333.766 77.539 C 333.591 77.334,333.318 77.167,333.159 77.167 C 332.999 77.167,332.827 77.057,332.776 76.923 C 332.724 76.790,332.435 76.613,332.133 76.531 C 331.831 76.449,331.603 76.294,331.626 76.187 C 331.650 76.080,331.481 75.921,331.251 75.834 C 331.021 75.746,330.833 75.561,330.833 75.421 C 330.833 75.242,330.663 75.167,330.261 75.167 C 329.836 75.167,329.662 75.081,329.583 74.833 C 329.525 74.650,329.333 74.500,329.155 74.500 C 328.917 74.500,328.833 74.384,328.833 74.054 C 328.833 73.726,328.548 73.326,327.750 72.540 C 327.154 71.953,326.667 71.404,326.667 71.320 C 326.667 71.236,326.563 71.167,326.436 71.167 C 326.309 71.167,326.166 71.015,326.117 70.829 C 326.068 70.643,325.930 70.511,325.810 70.537 C 325.689 70.563,325.564 70.407,325.532 70.189 C 325.499 69.972,325.328 69.757,325.153 69.711 C 324.977 69.665,324.833 69.487,324.833 69.314 C 324.833 69.111,324.715 69.000,324.500 69.000 C 324.241 69.000,324.167 68.889,324.167 68.500 C 324.167 68.225,324.087 68.000,323.990 68.000 C 323.893 68.000,323.859 67.926,323.915 67.835 C 323.974 67.741,323.907 67.713,323.759 67.770 C 323.616 67.824,323.490 67.805,323.479 67.726 C 323.467 67.648,323.439 67.402,323.417 67.180 C 323.394 66.958,323.259 66.691,323.116 66.586 C 322.973 66.482,322.803 66.176,322.738 65.906 C 322.596 65.313,322.348 64.972,322.148 65.095 C 322.067 65.145,322.000 65.024,322.000 64.826 C 322.000 64.627,321.816 64.246,321.590 63.978 C 321.365 63.710,321.220 63.390,321.267 63.266 C 321.315 63.142,321.164 62.891,320.932 62.709 C 320.701 62.527,320.554 62.335,320.605 62.283 C 320.657 62.232,320.542 62.230,320.350 62.281 C 320.141 62.335,320.000 62.293,320.000 62.176 C 320.000 62.068,320.093 62.033,320.208 62.098 C 320.375 62.192,320.375 62.171,320.208 61.991 C 320.094 61.868,320.000 61.437,320.000 61.034 C 320.000 60.442,319.936 60.285,319.667 60.215 C 319.381 60.140,319.333 59.988,319.333 59.147 C 319.333 58.278,319.296 58.167,319.000 58.167 C 318.704 58.167,318.667 58.056,318.667 57.167 C 318.667 56.389,318.593 56.093,318.333 55.833 C 318.055 55.555,318.000 55.278,318.000 54.151 C 318.000 52.942,317.965 52.793,317.667 52.715 C 317.368 52.637,317.132 50.285,317.322 49.268 C 317.380 48.955,317.133 48.167,316.977 48.167 C 316.887 48.167,316.867 48.253,316.933 48.359 C 317.005 48.477,316.978 48.506,316.864 48.435 C 316.731 48.353,316.676 46.721,316.676 42.833 C 316.676 38.945,316.731 37.313,316.864 37.231 C 316.978 37.160,317.005 37.190,316.933 37.308 C 316.867 37.413,316.887 37.500,316.977 37.500 C 317.133 37.500,317.380 36.711,317.322 36.399 C 317.132 35.381,317.368 33.030,317.667 32.952 C 317.963 32.874,318.000 32.724,318.000 31.599 C 318.000 30.556,318.059 30.275,318.333 30.000 C 318.568 29.765,318.667 29.444,318.667 28.917 C 318.667 28.278,318.716 28.167,319.000 28.167 C 319.296 28.167,319.333 28.056,319.333 27.167 C 319.333 26.278,319.370 26.167,319.667 26.167 C 319.946 26.167,320.000 26.056,320.000 25.485 C 320.000 25.043,320.105 24.706,320.300 24.527 C 320.464 24.375,320.508 24.310,320.398 24.383 C 320.287 24.456,320.147 24.436,320.086 24.337 C 320.025 24.239,320.037 24.173,320.113 24.192 C 320.340 24.247,321.165 23.793,321.192 23.598 C 321.206 23.498,321.235 23.342,321.256 23.250 C 321.277 23.158,321.304 22.998,321.314 22.894 C 321.325 22.791,321.489 22.665,321.679 22.615 C 321.892 22.559,322.010 22.408,321.987 22.221 C 321.933 21.795,322.160 21.333,322.423 21.333 C 322.611 21.333,322.880 20.855,322.908 20.472 C 322.913 20.411,322.985 20.299,323.068 20.222 C 323.158 20.141,323.170 20.186,323.098 20.333 C 323.030 20.471,323.095 20.435,323.241 20.255 C 323.388 20.074,323.471 19.831,323.427 19.716 C 323.382 19.600,323.495 19.425,323.678 19.328 C 323.860 19.230,323.969 19.085,323.920 19.006 C 323.871 18.927,323.910 18.836,324.006 18.803 C 324.103 18.771,324.194 18.583,324.209 18.384 C 324.224 18.186,324.277 18.027,324.326 18.031 C 324.678 18.063,324.833 17.957,324.833 17.686 C 324.833 17.512,324.982 17.333,325.167 17.285 C 325.418 17.219,325.500 17.058,325.500 16.628 C 325.500 16.109,325.555 16.045,326.125 15.904 C 326.581 15.792,326.764 15.651,326.802 15.384 C 326.836 15.146,326.937 15.050,327.092 15.110 C 327.230 15.163,327.380 15.071,327.448 14.892 C 327.635 14.399,327.956 14.127,328.057 14.376 C 328.103 14.490,328.146 14.415,328.154 14.208 C 328.165 13.873,328.332 13.754,328.708 13.814 C 328.777 13.824,328.834 13.590,328.836 13.292 C 328.838 12.887,328.878 12.813,328.996 12.999 C 329.124 13.201,329.193 13.207,329.367 13.033 C 329.541 12.859,329.534 12.790,329.332 12.662 C 329.141 12.542,329.191 12.505,329.547 12.503 C 330.046 12.500,330.226 12.218,330.321 11.292 C 330.328 11.223,330.591 11.167,330.905 11.167 C 331.331 11.167,331.505 11.081,331.583 10.833 C 331.645 10.639,331.836 10.500,332.039 10.500 C 332.231 10.500,332.340 10.451,332.280 10.391 C 332.133 10.244,332.681 9.845,333.040 9.839 C 333.200 9.836,333.424 9.683,333.539 9.500 C 333.653 9.317,333.913 9.167,334.117 9.167 C 334.320 9.167,334.621 9.029,334.785 8.860 C 334.949 8.691,335.215 8.506,335.375 8.449 C 335.535 8.391,335.667 8.229,335.667 8.089 C 335.667 7.948,335.784 7.833,335.927 7.833 C 336.069 7.833,336.146 7.768,336.097 7.689 C 335.995 7.523,336.565 6.954,336.699 7.088 C 336.866 7.255,337.667 6.841,337.667 6.587 C 337.667 6.448,337.775 6.333,337.908 6.333 C 338.041 6.333,338.210 6.232,338.283 6.109 C 338.357 5.986,338.658 5.838,338.953 5.781 C 339.248 5.724,339.645 5.522,339.834 5.332 C 340.024 5.143,340.252 5.033,340.341 5.088 C 340.630 5.267,341.167 4.986,341.167 4.655 C 341.167 4.391,341.286 4.333,341.833 4.333 C 342.389 4.333,342.500 4.278,342.500 4.000 C 342.500 3.719,342.618 3.663,343.250 3.646 C 344.373 3.615,344.421 3.599,344.368 3.288 C 344.326 3.042,344.463 3.000,345.316 3.000 C 346.305 3.000,346.758 2.766,346.313 2.484 C 346.162 2.389,346.345 2.338,346.842 2.336 C 347.259 2.334,347.701 2.240,347.824 2.125 C 348.004 1.958,348.025 1.958,347.931 2.125 C 347.858 2.255,347.917 2.333,348.089 2.333 C 348.241 2.333,348.404 2.183,348.452 2.000 C 348.500 1.817,348.661 1.663,348.811 1.659 C 350.309 1.616,350.851 1.549,351.012 1.388 C 351.154 1.246,351.124 1.204,350.893 1.224 C 350.723 1.238,350.521 1.325,350.446 1.417 C 350.362 1.518,350.333 1.491,350.371 1.348 C 350.432 1.121,350.605 1.058,351.498 0.936 C 351.809 0.894,351.921 0.771,351.946 0.440 L 351.980 -0.000 344.907 -0.000 C 340.302 -0.000,337.833 0.058,337.833 0.167 M360.936 42.092 C 360.805 42.435,360.804 43.229,360.934 43.570 C 361.003 43.748,361.247 43.833,361.684 43.833 C 362.222 43.833,362.333 43.890,362.333 44.167 C 362.333 44.350,362.390 44.491,362.458 44.480 C 363.567 44.305,365.667 44.536,365.667 44.833 C 365.667 45.129,365.778 45.167,366.661 45.167 C 367.484 45.167,367.686 45.224,367.833 45.500 C 367.981 45.776,368.182 45.833,369.011 45.833 C 369.903 45.833,370.064 45.888,370.500 46.333 C 370.769 46.608,371.071 46.833,371.171 46.833 C 371.271 46.833,371.307 46.907,371.251 46.998 C 371.191 47.096,371.349 47.139,371.645 47.105 C 372.201 47.040,372.583 47.215,372.584 47.536 C 372.584 47.749,372.681 47.777,373.523 47.814 C 373.828 47.827,373.956 47.920,373.940 48.115 C 373.924 48.308,374.119 48.456,374.552 48.580 C 374.901 48.680,375.240 48.849,375.305 48.954 C 375.370 49.060,375.647 49.187,375.920 49.236 C 376.193 49.286,376.513 49.459,376.632 49.621 C 376.841 49.906,376.922 49.938,377.522 49.981 C 377.672 49.991,377.834 50.150,377.882 50.333 C 377.934 50.533,378.109 50.667,378.318 50.667 C 378.556 50.667,378.667 50.773,378.667 51.000 C 378.667 51.243,378.778 51.333,379.078 51.333 C 379.393 51.333,379.465 51.398,379.383 51.611 C 379.312 51.797,379.341 51.849,379.472 51.768 C 379.579 51.701,379.667 51.726,379.667 51.823 C 379.667 51.921,379.723 51.991,379.792 51.980 C 380.321 51.897,380.667 52.033,380.667 52.325 C 380.667 52.612,380.862 52.892,381.718 53.833 C 381.843 53.971,381.996 54.222,382.058 54.392 C 382.125 54.579,382.268 54.663,382.418 54.606 C 382.597 54.537,382.667 54.626,382.667 54.922 C 382.667 55.222,382.757 55.333,383.000 55.333 C 383.218 55.333,383.333 55.444,383.333 55.655 C 383.333 55.833,383.483 56.025,383.667 56.083 C 383.917 56.163,384.000 56.336,384.000 56.777 C 384.000 57.213,384.081 57.386,384.314 57.447 C 384.566 57.513,384.643 57.724,384.700 58.508 C 384.743 59.104,384.879 59.608,385.049 59.795 C 385.274 60.044,385.330 60.488,385.345 62.135 C 385.357 63.556,385.421 64.167,385.556 64.169 C 385.683 64.171,385.673 64.221,385.529 64.312 C 385.407 64.389,385.322 64.557,385.340 64.684 C 385.521 65.976,385.308 68.319,385.000 68.417 C 384.754 68.495,384.667 68.669,384.667 69.083 C 384.667 69.500,384.580 69.672,384.329 69.751 C 384.143 69.810,384.002 69.947,384.015 70.054 C 384.087 70.633,383.967 70.988,383.667 71.083 C 383.408 71.166,383.333 71.336,383.333 71.845 C 383.333 72.394,383.278 72.500,382.993 72.500 C 382.805 72.500,382.671 72.594,382.695 72.708 C 382.741 72.933,380.674 75.064,380.254 75.225 C 380.114 75.279,380.000 75.438,380.000 75.578 C 380.000 75.722,379.855 75.833,379.667 75.833 C 379.444 75.833,379.333 75.944,379.333 76.167 C 379.333 76.389,379.222 76.500,379.000 76.500 C 378.817 76.500,378.667 76.610,378.667 76.744 C 378.667 77.057,378.102 77.362,377.764 77.232 C 377.588 77.165,377.452 77.271,377.341 77.563 C 377.223 77.874,377.098 77.963,376.895 77.885 C 376.688 77.806,376.649 77.836,376.748 77.997 C 376.841 78.147,376.821 78.178,376.685 78.095 C 376.461 77.956,375.959 78.298,376.085 78.503 C 376.130 78.576,376.017 78.596,375.834 78.548 C 375.582 78.482,375.500 78.543,375.500 78.796 C 375.500 79.153,375.086 79.406,374.795 79.227 C 374.699 79.167,374.480 79.298,374.308 79.518 C 374.041 79.858,374.010 79.868,374.095 79.583 C 374.189 79.265,374.183 79.264,373.946 79.552 C 373.806 79.722,373.462 79.861,373.160 79.870 C 372.785 79.881,372.597 79.979,372.541 80.193 C 372.479 80.430,372.301 80.500,371.755 80.500 C 370.895 80.500,370.059 80.773,369.935 81.095 C 369.868 81.271,369.527 81.334,368.630 81.336 C 367.448 81.338,366.956 81.468,366.986 81.769 C 366.994 81.850,365.981 81.938,364.734 81.963 C 362.660 82.006,362.459 82.037,362.383 82.329 C 362.320 82.568,362.124 82.662,361.608 82.700 L 360.917 82.750 360.917 84.000 L 360.917 85.250 364.750 85.296 C 368.409 85.341,368.596 85.328,368.856 85.010 C 369.107 84.703,369.345 84.676,371.911 84.658 C 374.417 84.641,374.726 84.607,375.014 84.320 C 375.281 84.053,375.577 84.000,376.808 84.000 C 378.070 84.000,378.325 83.952,378.583 83.667 C 378.829 83.395,379.097 83.333,380.026 83.333 C 380.653 83.333,381.167 83.265,381.167 83.182 C 381.167 83.099,381.310 83.069,381.485 83.114 C 381.695 83.169,381.822 83.101,381.860 82.914 C 381.900 82.714,382.116 82.614,382.583 82.577 C 382.950 82.548,383.400 82.487,383.583 82.442 C 383.767 82.396,383.954 82.352,384.000 82.344 C 384.046 82.335,383.973 82.258,383.838 82.173 C 383.499 81.959,383.813 81.856,384.993 81.796 C 385.740 81.758,385.919 81.690,385.993 81.417 C 386.062 81.164,386.224 81.083,386.667 81.083 C 387.114 81.083,387.240 81.020,387.205 80.811 C 387.158 80.524,387.589 80.266,387.848 80.426 C 387.932 80.478,388.000 80.365,388.000 80.177 C 388.000 79.888,388.105 79.833,388.655 79.833 C 389.164 79.833,389.334 79.759,389.417 79.500 C 389.509 79.209,389.967 79.063,390.532 79.144 C 390.595 79.153,390.693 79.011,390.751 78.830 C 390.816 78.624,391.004 78.500,391.248 78.500 C 391.812 78.500,392.167 78.332,392.167 78.066 C 392.167 77.938,392.317 77.833,392.500 77.833 C 392.722 77.833,392.833 77.722,392.833 77.500 C 392.833 77.284,392.944 77.167,393.148 77.167 C 393.458 77.167,394.393 76.516,394.099 76.506 C 394.016 76.502,394.091 76.337,394.266 76.138 C 394.440 75.939,394.478 75.838,394.349 75.914 C 394.186 76.010,394.153 75.990,394.241 75.848 C 394.310 75.736,394.488 75.691,394.637 75.747 C 394.785 75.804,394.854 75.798,394.789 75.734 C 394.725 75.669,394.802 75.510,394.961 75.379 C 395.120 75.249,395.156 75.189,395.042 75.247 C 394.927 75.306,394.833 75.265,394.833 75.157 C 394.833 75.040,394.974 74.998,395.183 75.053 C 395.376 75.103,395.489 75.100,395.436 75.047 C 395.382 74.993,395.469 74.843,395.628 74.712 C 395.787 74.582,395.823 74.523,395.708 74.581 C 395.594 74.639,395.500 74.598,395.500 74.490 C 395.500 74.379,395.639 74.331,395.823 74.379 C 396.273 74.497,396.787 74.090,396.913 73.517 C 396.976 73.229,397.154 72.999,397.353 72.947 C 397.537 72.898,397.674 72.760,397.657 72.638 C 397.573 72.017,397.684 71.667,397.966 71.667 C 398.192 71.667,398.275 71.517,398.306 71.055 C 398.330 70.709,398.472 70.352,398.632 70.235 C 398.839 70.084,398.939 69.696,399.000 68.805 C 399.064 67.867,399.141 67.583,399.333 67.583 C 399.785 67.583,399.788 60.334,399.337 60.216 C 399.037 60.137,399.000 59.992,399.000 58.882 C 399.000 57.776,398.963 57.626,398.667 57.548 C 398.408 57.481,398.333 57.321,398.333 56.836 C 398.333 56.464,398.199 56.040,398.000 55.788 C 397.817 55.555,397.667 55.282,397.667 55.182 C 397.667 55.082,397.594 55.000,397.505 55.000 C 397.416 55.000,397.382 54.900,397.429 54.777 C 397.477 54.654,397.381 54.448,397.216 54.318 C 396.942 54.103,396.936 54.109,397.149 54.379 C 397.352 54.638,397.347 54.661,397.107 54.569 C 396.846 54.469,396.756 54.187,396.826 53.686 C 396.847 53.536,396.763 53.491,396.587 53.559 C 396.429 53.619,396.358 53.594,396.418 53.498 C 396.474 53.407,396.449 53.333,396.363 53.333 C 396.276 53.333,396.166 53.183,396.118 53.000 C 396.070 52.817,395.912 52.667,395.766 52.667 C 395.620 52.667,395.500 52.542,395.500 52.389 C 395.500 52.236,395.454 52.158,395.397 52.214 C 395.270 52.341,394.937 52.019,394.788 51.625 C 394.727 51.465,394.568 51.333,394.434 51.333 C 394.300 51.333,394.166 51.202,394.135 51.042 C 394.104 50.882,393.949 50.750,393.791 50.750 C 393.633 50.750,393.508 50.688,393.513 50.612 C 393.518 50.537,393.381 50.349,393.208 50.196 C 393.035 50.042,392.843 49.781,392.781 49.614 C 392.720 49.448,392.593 49.359,392.501 49.416 C 392.408 49.473,392.258 49.323,392.166 49.083 C 392.060 48.803,391.896 48.663,391.708 48.695 C 391.414 48.745,390.605 48.284,390.744 48.145 C 390.785 48.104,390.691 48.055,390.535 48.037 C 389.879 47.963,389.652 47.884,389.457 47.665 C 389.281 47.468,389.294 47.466,389.542 47.653 C 389.705 47.777,389.833 47.800,389.833 47.705 C 389.833 47.478,389.421 47.333,388.776 47.333 C 388.386 47.333,388.202 47.234,388.081 46.958 C 387.991 46.752,387.767 46.573,387.583 46.559 C 387.400 46.546,387.119 46.527,386.958 46.518 C 386.798 46.508,386.667 46.387,386.667 46.250 C 386.667 46.112,386.610 45.991,386.542 45.981 C 386.473 45.971,386.197 45.936,385.928 45.905 C 385.659 45.874,385.373 45.731,385.292 45.587 C 385.212 45.444,385.081 45.367,385.001 45.416 C 384.922 45.465,384.811 45.432,384.756 45.343 C 384.701 45.254,384.534 45.228,384.384 45.286 C 384.186 45.361,384.150 45.329,384.250 45.167 C 384.353 45.000,384.312 44.973,384.086 45.059 C 383.885 45.136,383.676 45.061,383.468 44.838 C 383.295 44.652,383.015 44.500,382.845 44.500 C 382.675 44.500,382.492 44.387,382.440 44.250 C 382.387 44.112,382.257 44.000,382.151 44.000 C 382.013 44.000,382.017 44.070,382.167 44.250 C 382.327 44.444,382.328 44.500,382.171 44.500 C 382.060 44.500,381.929 44.349,381.881 44.165 C 381.804 43.872,381.674 43.836,380.812 43.874 C 380.022 43.909,379.813 43.864,379.743 43.643 C 379.631 43.293,379.362 43.228,377.842 43.183 C 376.828 43.154,376.560 43.088,376.374 42.824 C 376.165 42.524,375.930 42.500,373.260 42.500 C 370.542 42.500,370.367 42.481,370.288 42.177 C 370.168 41.719,361.111 41.638,360.936 42.092 M321.167 63.207 C 321.167 63.300,321.056 63.282,320.917 63.167 C 320.779 63.053,320.667 62.884,320.667 62.793 C 320.667 62.700,320.777 62.718,320.917 62.833 C 321.054 62.947,321.167 63.116,321.167 63.207 " stroke="none" fill="#e31937" fill-rule="evenodd"></path></g></svg>