<?xml version="1.0" encoding="UTF-8" standalone="no"?>
<!-- Created with Inkscape (http://www.inkscape.org/) -->

<svg
   xmlns:dc="http://purl.org/dc/elements/1.1/"
   xmlns:cc="http://creativecommons.org/ns#"
   xmlns:rdf="http://www.w3.org/1999/02/22-rdf-syntax-ns#"
   xmlns:svg="http://www.w3.org/2000/svg"
   xmlns="http://www.w3.org/2000/svg"
   xmlns:sodipodi="http://sodipodi.sourceforge.net/DTD/sodipodi-0.dtd"
   xmlns:inkscape="http://www.inkscape.org/namespaces/inkscape"
   width="550.71198"
   height="220.092"
   viewBox="0 0 550.712 220.09199"
   id="svg12269"
   version="1.1"
   inkscape:version="0.91 r13725"
   sodipodi:docname="Eldorado_GoldCR.svg">
  <defs
     id="defs12271" />
  <sodipodi:namedview
     id="base"
     pagecolor="#ffffff"
     bordercolor="#666666"
     borderopacity="1.0"
     inkscape:pageopacity="0.0"
     inkscape:pageshadow="2"
     inkscape:zoom="0.35"
     inkscape:cx="-720.644"
     inkscape:cy="-539.52542"
     inkscape:document-units="px"
     inkscape:current-layer="layer1"
     showgrid="false"
     fit-margin-top="0"
     fit-margin-left="0"
     fit-margin-right="0"
     fit-margin-bottom="0"
     units="px"
     inkscape:window-width="1280"
     inkscape:window-height="744"
     inkscape:window-x="-4"
     inkscape:window-y="-4"
     inkscape:window-maximized="1" />
  <metadata
     id="metadata12274">
    <rdf:RDF>
      <cc:Work
         rdf:about="">
        <dc:format>image/svg+xml</dc:format>
        <dc:type
           rdf:resource="http://purl.org/dc/dcmitype/StillImage" />
        <dc:title></dc:title>
      </cc:Work>
    </rdf:RDF>
  </metadata>
  <g
     inkscape:label="Layer 1"
     inkscape:groupmode="layer"
     id="layer1"
     transform="translate(-742.78686,227.25516)">
    <g
       style="overflow:visible"
       id="g12314"
       transform="translate(712.14285,-253.20916)">
      <g
         id="g12278">
	<path
   id="path12280"
   d="m 59.92,218.597 -21.899,0 c 0.69,6.375 4.289,9.089 8.329,9.089 2.779,0 4.987,-1.004 7.196,-2.653 l 3.853,4.167 c -2.904,2.781 -6.375,4.354 -11.427,4.354 -7.764,0 -14.328,-6.242 -14.328,-17.23 0,-11.237 5.932,-17.292 14.519,-17.292 9.403,0 13.949,7.637 13.949,16.603 -0.001,1.193 -0.126,2.27 -0.192,2.962 m -14.2,-13.698 c -4.354,0 -7.009,3.031 -7.574,8.336 l 15.4,0 c -0.315,-4.543 -2.461,-8.336 -7.826,-8.336"
   inkscape:connector-curvature="0" />

	<polygon
   id="polygon12282"
   points="91.418,232.866 84.916,232.866 84.916,190.256 91.418,186.846 " />

	<path
   id="path12284"
   d="m 137.687,232.866 0,-3.16 c -2.398,2.211 -5.178,3.858 -8.648,3.858 -7.133,0 -12.75,-5.181 -12.75,-17.809 0,-11.357 6.184,-16.725 13.064,-16.725 3.35,0 6.5,1.769 8.333,3.788 l 0,-12.626 6.436,-3.343 0,46.016 -6.435,0 z m 0.061,-23.484 c -1.45,-1.957 -4.479,-4.354 -7.762,-4.354 -4.67,0 -7.196,3.539 -7.196,10.542 0,8.331 2.654,11.989 7.446,11.989 3.092,0 5.811,-2.08 7.512,-4.223 l 0,-13.954 z"
   inkscape:connector-curvature="0" />

	<path
   id="path12286"
   d="m 183.134,233.56 c -8.335,0 -14.585,-6.881 -14.585,-17.233 0,-10.856 6.44,-17.295 14.771,-17.295 8.457,0 14.772,6.753 14.772,17.108 10e-4,10.983 -6.439,17.42 -14.958,17.42 m -0.065,-28.345 c -4.925,0 -7.952,4.354 -7.952,10.925 0,7.255 3.345,11.231 8.267,11.231 4.924,0 8.144,-4.984 8.144,-11.045 0,-6.758 -3.22,-11.111 -8.459,-11.111"
   inkscape:connector-curvature="0" />

	<path
   id="path12288"
   d="m 240.509,206.605 c -1.389,-0.757 -2.838,-1.195 -4.986,-1.195 -4.103,0 -6.503,2.9 -6.503,8.514 l 0,18.942 -6.5,0 0,-33.143 6.5,0 0,3.16 c 1.516,-2.211 4.296,-3.853 7.579,-3.853 2.646,0 4.29,0.505 5.614,1.39 l -1.704,6.185 z"
   inkscape:connector-curvature="0" />

	<path
   id="path12290"
   d="m 282.111,232.866 0,-3.284 c -2.273,2.271 -5.49,3.972 -9.087,3.972 -5.366,0 -11.489,-3.026 -11.489,-11.167 0,-7.382 5.679,-10.729 13.191,-10.729 3.092,0 5.557,0.438 7.385,1.263 l 0,-2.466 c 0,-3.598 -2.207,-5.614 -6.249,-5.614 -3.409,0 -6.059,0.63 -8.648,2.08 L 264.687,202 c 3.157,-1.956 6.695,-2.968 11.362,-2.968 7.387,0 12.437,3.598 12.437,11.107 l 0,22.728 -6.375,0 z m 0,-14.141 c -1.767,-0.884 -4.04,-1.449 -7.571,-1.449 -4.168,0 -6.82,1.896 -6.82,4.922 0,3.281 2.083,5.488 6.375,5.488 3.47,0 6.501,-2.144 8.016,-4.227 l 0,-4.734 z"
   inkscape:connector-curvature="0" />

	<path
   id="path12292"
   d="m 334.186,232.866 0,-3.16 c -2.396,2.211 -5.173,3.858 -8.648,3.858 -7.131,0 -12.75,-5.181 -12.75,-17.809 0,-11.357 6.183,-16.725 13.064,-16.725 3.351,0 6.504,1.769 8.334,3.788 l 0,-12.626 6.442,-3.343 0,46.016 -6.442,0 z m 0.06,-23.484 c -1.448,-1.957 -4.477,-4.354 -7.761,-4.354 -4.669,0 -7.195,3.539 -7.195,10.542 0,8.331 2.653,11.989 7.446,11.989 3.097,0 5.809,-2.08 7.51,-4.223 l 0,-13.954 z"
   inkscape:connector-curvature="0" />

	<path
   id="path12294"
   d="m 379.633,233.56 c -8.332,0 -14.582,-6.881 -14.582,-17.233 0,-10.856 6.438,-17.295 14.773,-17.295 8.456,0 14.77,6.753 14.77,17.108 0,10.983 -6.444,17.42 -14.961,17.42 m -0.066,-28.345 c -4.924,0 -7.951,4.354 -7.951,10.925 0,7.255 3.346,11.231 8.271,11.231 4.92,0 8.14,-4.984 8.14,-11.045 0,-6.758 -3.219,-11.111 -8.46,-11.111"
   inkscape:connector-curvature="0" />

	<path
   id="path12296"
   d="m 427.48,245.046 -1.515,-3.598 c 11.042,-0.315 13.567,-3.22 13.567,-10.918 l 0,-1.704 c -2.334,2.526 -5.489,4.728 -9.974,4.728 -6.625,0 -11.863,-5.044 -11.863,-16.721 0,-11.747 5.554,-17.802 12.499,-17.802 4.161,0 7.004,1.769 9.338,4.414 l 0,-3.722 4.731,0 0,30.174 c 0.002,9.978 -4.475,14.77 -16.783,15.149 m 12.053,-36.924 c -1.828,-2.779 -5.049,-4.987 -8.965,-4.987 -5.486,0 -8.203,4.734 -8.203,13.634 0,8.331 3.155,12.687 8.394,12.687 3.534,0 6.44,-1.896 8.774,-4.798 l 0,-16.536 z"
   inkscape:connector-curvature="0"
   style="fill:#989a9c" />

	<path
   id="path12298"
   d="m 483.656,233.554 c -8.079,0 -14.269,-5.995 -14.269,-17.23 0,-11.237 6.443,-17.292 14.52,-17.292 8.081,0 14.268,5.805 14.268,17.04 0,11.24 -6.444,17.482 -14.519,17.482 m 0.123,-30.419 c -5.742,0 -9.591,4.354 -9.591,13.063 0,8.714 3.849,13.257 9.591,13.257 5.745,0 9.657,-4.543 9.657,-13.257 0.001,-8.71 -3.912,-13.063 -9.657,-13.063"
   inkscape:connector-curvature="0"
   style="fill:#989a9c" />

	<polygon
   id="polygon12300"
   points="528.344,232.866 523.611,232.866 523.611,189.496 528.344,186.846 "
   style="fill:#989a9c" />

	<path
   id="path12302"
   d="m 575.622,232.866 0,-4.04 c -2.335,2.526 -5.49,4.728 -9.974,4.728 -6.629,0 -11.868,-5.044 -11.868,-16.721 0,-11.747 5.558,-17.802 12.5,-17.802 4.163,0 7.007,1.769 9.342,4.414 l 0,-13.949 4.734,-2.65 0,46.021 -4.734,0 z m 0,-24.744 c -1.829,-2.779 -5.054,-4.987 -8.964,-4.987 -5.489,0 -8.205,4.734 -8.205,13.634 0,8.331 3.157,12.687 8.393,12.687 3.537,0 6.441,-1.896 8.776,-4.798 l 0,-16.536 z"
   inkscape:connector-curvature="0"
   style="fill:#989a9c" />

	<path
   id="path12304"
   d="m 445.826,44.698 c 0,-11.003 -8.159,-17.744 -18.451,-17.744 -13.58,0 -27.733,6.274 -39.193,16.822 -14.291,13.575 -23.217,32.74 -23.217,53.999 l 0,0.071 c 44.024,-4.493 80.861,-31.273 80.861,-53.148"
   inkscape:connector-curvature="0"
   style="fill:#e1d02d" />

	<path
   id="path12306"
   d="m 470.605,30.118 c 1.488,4.442 2.198,9.042 2.198,13.514 0,37.672 -52.056,72.54 -104.169,77.248 1.467,4.484 3.334,8.792 5.589,12.863 8.667,11.546 21.299,16.713 32.924,16.713 13.485,0 25.904,-4.614 35.49,-12.423 l 12.419,19.159 c -6.494,6.316 -14.171,11.347 -22.694,14.731 2.34,0.218 4.7,0.341 7.091,0.341 41.137,0 74.492,-33.353 74.492,-74.488 0,-30.014 -17.764,-55.865 -43.34,-67.658"
   inkscape:connector-curvature="0"
   style="fill:#e1d02d" />

</g>
    </g>
  </g>
</svg>
