<?xml version="1.0" encoding="utf-8"?>
<!-- Generator: Adobe Illustrator 12.0.0, SVG Export Plug-In . SVG Version: 6.00 Build 51448)  -->
<!DOCTYPE svg PUBLIC "-//W3C//DTD SVG 1.1//EN" "http://www.w3.org/Graphics/SVG/1.1/DTD/svg11.dtd" [
	<!ENTITY ns_svg "http://www.w3.org/2000/svg">
	<!ENTITY ns_xlink "http://www.w3.org/1999/xlink">
]>
<svg  version="1.1" id="Layer_1" xmlns="&ns_svg;" xmlns:xlink="&ns_xlink;" width="2196.675" height="667"
	 viewBox="0.162 0 2196.675 667" overflow="visible" enable-background="new 0.162 0 2196.675 667" xml:space="preserve">
<g id="Ebene_x0020_1">
	<polygon fill="#857040" points="2196.837,667 0.162,667 0.162,0 2196.837,0 	"/>
	<polygon fill="#3B342C" points="2156.712,41.65 41.057,41.65 41.057,630.351 2156.712,630.351 	"/>
	<path fill="#857040" d="M312.777,320.849h1.774c12.117-13.17,64.147-66.253,74.473-78.371c9.979-11.772,17.82-20.697,17.82-26.764
		c0-3.912-1.412-6.395-4.967-7.104c-3.233-0.721-4.65-1.43-4.65-3.58c0-2.486,1.775-3.208,5.688-3.208
		c7.497,0,27.093,1.071,36.713,1.071c11.047,0,30.643-1.071,41.693-1.071c3.565,0,6.05,0.722,6.05,3.208
		c0,2.513-1.779,3.221-5.347,3.221c-4.967,0-13.893,1.412-20.681,3.925c-11.017,4.263-23.133,11.742-38.472,26.717
		c-11.032,10.67-64.854,64.117-76.954,76.99c12.82,16.72,82.659,91.917,96.552,105.118c15.684,14.945,31.729,30.986,50.962,38.471
		c10.705,4.288,17.81,5.343,22.113,5.343c2.496,0,4.604,0.708,4.604,2.857c0,2.483-1.775,3.554-8.533,3.554h-31.005
		c-10.7,0-17.112,0-24.598-0.722c-19.251-1.748-28.866-9.62-44.175-23.137c-15.667-13.921-85.897-96.224-93.377-106.578
		l-3.912-5.312h-1.774v32.392c0,32.81,0,60.942,1.066,76.264c0.708,9.993,3.911,17.834,12.825,19.266
		c4.978,0.707,12.82,1.415,17.471,1.415c2.847,0,4.621,1.055,4.621,2.858c0,2.482-2.842,3.554-6.771,3.554
		c-19.942,0-42.4-1.07-51.309-1.07c-8.205,0-30.646,1.07-44.901,1.07c-4.62,0-7.116-1.07-7.116-3.554
		c0-1.805,1.412-2.858,5.673-2.858c5.359,0,9.634-0.708,12.852-1.415c7.108-1.431,8.896-9.271,10.329-19.609
		c1.775-14.977,1.775-43.109,1.775-75.919v-62.691c0-54.155,0-64.165-0.725-75.556c-0.692-12.1-3.551-17.821-15.322-20.304
		c-2.845-0.708-8.909-1.067-13.874-1.067c-3.947,0-6.055-0.708-6.055-3.221c0-2.487,2.483-3.208,7.843-3.208
		c18.875,0,41.316,1.071,49.867,1.071c8.563,0,31.021-1.071,43.122-1.071c4.995,0,7.495,0.722,7.495,3.208
		c0,2.512-2.153,3.221-4.995,3.221c-3.567,0-5.691,0.359-9.979,1.067c-9.622,1.775-12.48,7.824-13.172,20.304
		c-0.721,11.391-0.721,21.4-0.721,75.556v15.67H312.777z"/>
	<path fill="#857040" d="M565.248,305.179c0-54.156,0-64.165-0.709-75.556c-0.703-12.1-4.271-18.185-12.128-19.959
		c-3.9-1.053-8.534-1.412-12.825-1.412c-3.567,0-5.688-0.708-5.688-3.57c0-2.138,2.846-2.859,8.55-2.859
		c13.528,0,36.002,1.071,46.326,1.071c8.913,0,29.938-1.071,43.483-1.071c4.621,0,7.496,0.721,7.496,2.859
		c0,2.862-2.154,3.57-5.734,3.57c-3.535,0-6.411,0.359-10.675,1.067c-9.616,1.775-12.475,7.824-13.183,20.304
		c-0.721,11.391-0.721,21.4-0.721,75.556v62.691c0,34.584,0,62.761,1.429,78.026c1.065,9.646,3.567,16.07,14.254,17.519
		c4.967,0.69,12.839,1.398,18.181,1.398c3.911,0,5.691,1.066,5.691,2.858c0,2.482-2.846,3.554-6.775,3.554
		c-23.509,0-45.949-1.07-55.584-1.07c-8.188,0-30.66,1.07-44.896,1.07c-4.638,0-7.121-1.07-7.121-3.554
		c0-1.792,1.399-2.858,5.69-2.858c5.343,0,9.646-0.708,12.82-1.398c7.139-1.447,9.271-7.526,10.343-17.835
		c1.774-14.949,1.774-43.126,1.774-77.71V305.179L565.248,305.179z"/>
	<path fill="#857040" d="M738.852,422.765c0.727,27.813,5.348,37.07,12.464,39.585c6.049,2.12,12.838,2.466,18.56,2.466
		c3.898,0,6.02,0.709,6.02,2.846c0,2.846-3.189,3.554-8.17,3.554c-23.181,0-37.417-1.053-44.21-1.053
		c-3.174,0-19.955,1.053-38.472,1.053c-4.62,0-7.854-0.345-7.854-3.554c0-2.137,2.138-2.846,5.723-2.846
		c4.633,0,11.028-0.346,16.012-1.758c9.288-2.876,10.717-13.219,11.046-44.206l3.238-210.96c0-7.117,1.054-12.117,4.62-12.117
		c3.913,0,7.134,4.651,13.171,11.051c4.288,4.62,58.46,62.717,110.478,114.401c24.229,24.222,72.353,75.542,78.413,81.217h1.779
		l-3.583-159.963c-0.347-21.764-3.55-28.539-12.101-32.089c-5.347-2.137-13.921-2.137-18.904-2.137
		c-4.263,0-5.692-1.071-5.692-3.221c0-2.858,3.931-3.208,9.26-3.208c18.542,0,35.642,1.071,43.121,1.071
		c3.912,0,17.477-1.071,34.935-1.071c4.621,0,8.188,0.349,8.188,3.208c0,2.15-2.119,3.221-6.395,3.221
		c-3.585,0-6.443,0-10.718,1.067c-9.979,2.862-12.825,10.325-13.172,30.27l-3.931,224.88c0,7.828-1.397,11.033-4.62,11.033
		c-3.941,0-8.199-3.93-12.13-7.843c-22.44-21.37-68.046-68.046-105.118-104.755c-38.834-38.488-78.399-83.021-84.796-89.81h-1.084
		L738.852,422.765L738.852,422.765z"/>
	<path fill="#857040" d="M1090.966,333.331c0,3.916,0.728,5.345,3.209,6.398c7.496,2.514,18.166,3.598,27.076,3.598
		c14.254,0,18.904-1.46,25.305-6.08c10.685-7.859,21.025-24.234,21.025-53.463c0-50.588-33.488-65.202-54.518-65.202
		c-8.927,0-15.32,0.375-18.89,1.43c-2.481,0.707-3.209,2.15-3.209,4.979L1090.966,333.331L1090.966,333.331z M1048.917,305.184
		c0-54.167,0-64.16-0.691-75.556c-0.736-12.099-3.565-17.834-15.324-20.304c-2.858-0.708-8.927-1.084-13.923-1.084
		c-3.911,0-6.036-0.69-6.036-3.203c0-2.483,2.486-3.209,7.843-3.209c18.874,0,41.314,1.071,48.799,1.071
		c12.1,0,39.223-1.071,50.239-1.071c22.459,0,46.33,2.125,65.563,15.321c9.996,6.775,24.248,24.959,24.248,48.831
		c0,26.384-11.047,50.601-47.035,79.813c31.714,39.918,56.31,71.631,77.318,93.71c19.975,20.685,34.574,23.167,39.947,24.263
		c3.869,0.709,7.104,1.056,9.92,1.056c2.889,0,4.305,1.054,4.305,2.846c0,2.846-2.471,3.55-6.758,3.55h-33.867
		c-19.942,0-28.881-1.758-38.155-6.741c-15.291-8.233-28.839-24.972-48.796-52.393c-14.252-19.596-30.631-43.859-35.28-49.176
		c-1.791-2.15-3.912-2.495-6.412-2.495l-30.988-0.708c-1.791,0-2.863,0.708-2.863,2.845v4.996c0,33.13,0,61.275,1.779,76.251
		c1.084,10.337,3.205,18.167,13.893,19.608c5.343,0.709,13.185,1.417,17.459,1.417c2.857,0,4.291,1.054,4.291,2.846
		c0,2.496-2.498,3.55-7.137,3.55c-20.662,0-47.018-1.054-52.363-1.054c-6.789,0-29.229,1.054-43.483,1.054
		c-4.62,0-7.134-1.054-7.134-3.55c0-1.792,1.417-2.846,5.703-2.846c5.348,0,9.622-0.708,12.844-1.417
		c7.133-1.441,8.892-9.271,10.324-19.608c1.774-14.976,1.774-43.121,1.774-75.918v-62.694H1048.917z"/>
	<path fill="#857040" d="M1518.601,343.317c0-79.849-45.967-129.381-104.409-129.381c-40.953,0-87.644,22.817-87.644,111.549
		c0,74.138,40.984,132.931,109.377,132.931C1460.896,458.416,1518.601,446.286,1518.601,343.317L1518.601,343.317z M1277.39,336.53
		c0-60.926,40.246-139.69,147.14-139.69c88.762,0,143.981,51.685,143.981,133.294c0,81.593-57.043,146.086-147.53,146.086
		C1318.677,476.22,1277.39,399.623,1277.39,336.53z"/>
	<path fill="#857040" d="M1619.525,466.935c-5.734-2.47-6.789-4.262-6.789-12.104c0-19.549,1.447-40.984,1.793-46.672
		c0.346-5.358,1.444-9.258,4.258-9.258c3.238,0,3.584,3.19,3.584,6.05c0,4.62,1.416,12.117,3.174,18.184
		c7.871,26.354,28.9,35.988,50.992,35.988c32.063,0,47.744-21.732,47.744-40.625c0-17.472-5.342-34.228-34.933-57.015
		l-16.391-12.854c-39.197-30.628-52.725-55.566-52.725-84.434c0-39.196,32.795-67.356,82.329-67.356
		c23.132,0,38.107,3.58,47.396,6.063c3.16,0.738,4.953,1.78,4.953,4.292c0,4.604-1.434,14.976-1.434,42.759
		c0,7.83-1.066,10.688-3.884,10.688c-2.524,0-3.58-2.15-3.58-6.426c0-3.191-1.762-14.254-9.258-23.496
		c-5.371-6.805-15.684-17.475-38.846-17.475c-26.371,0-42.414,15.309-42.414,36.708c0,16.375,8.217,28.838,37.775,51.31l9.979,7.466
		c42.762,33.128,58.447,57.046,58.447,90.894c0,20.653-7.873,45.229-33.506,61.996c-17.81,11.396-37.75,14.601-56.654,14.601
		C1650.863,476.22,1634.833,473.753,1619.525,466.935L1619.525,466.935z"/>
	<path fill="#857040" d="M1826.896,466.935c-5.691-2.47-6.761-4.262-6.761-12.104c0-19.549,1.418-40.984,1.765-46.672
		c0.356-5.358,1.412-9.258,4.287-9.258c3.204,0,3.555,3.19,3.555,6.05c0,4.62,1.412,12.117,3.203,18.184
		c7.842,26.354,28.867,35.988,50.994,35.988c32.026,0,47.711-21.732,47.711-40.625c0-17.472-5.342-34.228-34.904-57.015
		l-16.387-12.854c-39.228-30.628-52.756-55.566-52.756-84.434c0-39.196,32.766-67.356,82.313-67.356
		c23.181,0,38.125,3.58,47.383,6.063c3.234,0.738,4.979,1.78,4.979,4.292c0,4.604-1.398,14.976-1.398,42.759
		c0,7.83-1.053,10.688-3.912,10.688c-2.528,0-3.584-2.15-3.584-6.426c0-3.191-1.788-14.254-9.239-23.496
		c-5.359-6.805-15.728-17.475-38.896-17.475c-26.309,0-42.383,15.309-42.383,36.708c0,16.375,8.205,28.838,37.779,51.31l9.979,7.466
		c42.76,33.128,58.414,57.046,58.414,90.894c0,20.653-7.813,45.229-33.488,61.996c-17.791,11.396-37.75,14.601-56.608,14.601
		C1858.233,476.219,1842.235,473.752,1826.896,466.935L1826.896,466.935z"/>
</g>
</svg>
