<?xml version="1.0" encoding="UTF-8"?>
<svg version="1.1" xmlns="http://www.w3.org/2000/svg" width="441.082px" height="67.567px">

<g style="fill:#C82127">
<path d="M13.549,49.189v-6.533h4.453V14.97h-4.453V8.437h13.506v34.219h4.072v6.533H13.549z"/>
<path d="M68.627,42.656v6.533H55.004v-2.417c-2.715,1.885-5.469,2.827-8.262,2.827 c-2.735,0-4.878-0.767-6.431-2.303c-1.553-1.535-2.329-3.701-2.329-6.498V27.363h-4.248V20.83h13.271v17.666 c0,1.406,0.215,2.369,0.645,2.886c0.429,0.518,1.211,0.776,2.344,0.776c1.523,0,3.193-0.674,5.01-2.021V27.363h-4.365V20.83h13.418 v21.826H68.627z"/>
<path d="M72.231,27.363V20.83H85.62v2.637c2.734-2.051,5.508-3.076,8.32-3.076c5.723,0,8.584,3.652,8.584,10.957 v11.309h4.277v6.533h-13.33V32.021c0-1.542-0.21-2.597-0.63-3.164c-0.42-0.566-1.109-0.85-2.065-0.85 c-1.68,0-3.398,0.615-5.156,1.846v12.803h4.365v6.533H72.231v-6.533h4.336V27.363H72.231z"/>
<path d="M144.038,42.656v6.533h-13.711v-3.376c-2.52,2.524-5.254,3.787-8.203,3.787 c-3.535,0-6.465-1.436-8.789-4.307c-2.325-2.871-3.486-6.347-3.486-10.43c0-4.141,1.191-7.632,3.574-10.474 c2.383-2.842,5.292-4.263,8.73-4.263c3.3,0,6.025,1.287,8.174,3.86V14.97h-4.424V8.437h13.477v34.219H144.038z M130.415,34.951 c0-2.714-0.582-4.648-1.743-5.801c-1.162-1.152-2.486-1.729-3.97-1.729c-1.777,0-3.149,0.688-4.116,2.065s-1.45,3.189-1.45,5.435 c0,2.129,0.479,3.921,1.436,5.376c0.957,1.455,2.344,2.183,4.16,2.183c1.504,0,2.827-0.59,3.97-1.772 C129.843,39.526,130.415,37.607,130.415,34.951z"/>
<path d="M147.611,27.363V20.83h13.359v21.826h4.219v6.533h-17.578v-6.533h4.307V27.363H147.611z M151.596,12.7 c0-1.363,0.484-2.531,1.451-3.505s2.133-1.461,3.5-1.461c1.387,0,2.559,0.487,3.516,1.461s1.436,2.142,1.436,3.505 s-0.482,2.527-1.449,3.491c-0.967,0.964-2.135,1.446-3.502,1.446c-1.348,0-2.51-0.487-3.486-1.46S151.596,14.043,151.596,12.7z"/>
<path d="M168.471,27.363V20.83h13.389v2.637c2.734-2.051,5.508-3.076,8.32-3.076c5.723,0,8.584,3.652,8.584,10.957 v11.309h4.277v6.533h-13.33V32.021c0-1.542-0.21-2.597-0.63-3.164c-0.42-0.566-1.108-0.85-2.065-0.85 c-1.68,0-3.398,0.615-5.156,1.846v12.803h4.365v6.533h-17.754v-6.533h4.336V27.363H168.471z"/>
<path d="M220.561,27.363V20.83h13.74v2.314c3.086-1.835,6.152-2.754,9.199-2.754c3.652,0,6.484,1.289,8.496,3.867 c3.652-2.578,7.471-3.867,11.455-3.867c2.363,0,4.283,0.435,5.758,1.304c1.475,0.869,2.484,2.036,3.031,3.501s0.82,3.682,0.82,6.65 v10.811h4.688v6.533h-13.74V32.578c0-2.969-1.279-4.453-3.838-4.453c-2.012,0-4.189,0.645-6.533,1.934v12.598h4.688v6.533h-13.74 V32.841c0-3.145-1.23-4.717-3.691-4.717c-1.914,0-4.111,0.645-6.592,1.934v12.598h4.688v6.533h-18.427v-6.533h4.688V27.363H220.561 z"/>
<path d="M280.765,27.363V20.83h13.359v21.826h4.219v6.533h-17.578v-6.533h4.307V27.363H280.765z M284.75,12.7 c0-1.363,0.484-2.531,1.451-3.505s2.133-1.461,3.5-1.461c1.387,0,2.559,0.487,3.516,1.461s1.436,2.142,1.436,3.505 s-0.482,2.527-1.449,3.491c-0.967,0.964-2.135,1.446-3.502,1.446c-1.348,0-2.51-0.487-3.486-1.46S284.75,14.043,284.75,12.7z"/>
<path d="M301.625,27.363V20.83h13.389v2.637c2.734-2.051,5.508-3.076,8.32-3.076c5.723,0,8.584,3.652,8.584,10.957 v11.309h4.277v6.533h-13.33V32.021c0-1.542-0.209-2.597-0.629-3.164c-0.42-0.566-1.109-0.85-2.066-0.85 c-1.68,0-3.398,0.615-5.156,1.846v12.803h4.365v6.533h-17.754v-6.533h4.336V27.363H301.625z"/>
<path d="M339.505,27.363V20.83h13.359v21.826h4.219v6.533h-17.578v-6.533h4.307V27.363H339.505z M343.49,12.7 c0-1.363,0.484-2.531,1.451-3.505s2.133-1.461,3.5-1.461c1.387,0,2.559,0.487,3.516,1.461s1.436,2.142,1.436,3.505 s-0.482,2.527-1.449,3.491c-0.967,0.964-2.135,1.446-3.502,1.446c-1.348,0-2.51-0.487-3.486-1.46S343.49,14.043,343.49,12.7z"/>
<path d="M360.365,27.363V20.83h13.389v2.637c2.734-2.051,5.508-3.076,8.32-3.076c5.723,0,8.584,3.652,8.584,10.957 v11.309h4.277v6.533h-13.33V32.021c0-1.542-0.209-2.597-0.629-3.164c-0.42-0.566-1.109-0.85-2.066-0.85 c-1.68,0-3.398,0.615-5.156,1.846v12.803h4.365v6.533h-17.754v-6.533h4.336V27.363H360.365z"/>
<path d="M432.23,20.83v6.533h-4.688v20.965c0,9.363-4.941,14.044-14.824,14.044c-5.664,0-9.883-1.025-12.656-3.076 l4.395-6.006c2.285,1.406,4.58,2.109,6.885,2.109c2.012,0,3.707-0.518,5.084-1.553c1.377-1.036,2.064-3.047,2.064-6.035v-2.168 c-2.949,2.637-5.82,3.955-8.613,3.955c-3.281,0-6.078-1.372-8.393-4.116c-2.314-2.744-3.473-6.245-3.473-10.503 c0-4.277,1.191-7.778,3.574-10.503s5.293-4.087,8.73-4.087c3.301,0,6.025,1.307,8.174,3.918V20.83H432.23z M418.519,35.097 c0-2.285-0.508-4.091-1.523-5.42c-1.016-1.328-2.402-1.992-4.16-1.992c-1.797,0-3.168,0.684-4.115,2.051 c-0.947,1.367-1.422,3.125-1.422,5.273c0,2.149,0.494,3.901,1.48,5.259c0.986,1.358,2.338,2.036,4.057,2.036 c1.582,0,2.926-0.63,4.029-1.89S418.519,37.382,418.519,35.097z"/>
</g>

</svg>