<?xml version="1.0" encoding="UTF-8" standalone="no"?>
<!-- Created with Inkscape (http://www.inkscape.org/) -->

<svg
   xmlns:dc="http://purl.org/dc/elements/1.1/"
   xmlns:cc="http://creativecommons.org/ns#"
   xmlns:rdf="http://www.w3.org/1999/02/22-rdf-syntax-ns#"
   xmlns:svg="http://www.w3.org/2000/svg"
   xmlns="http://www.w3.org/2000/svg"
   xmlns:sodipodi="http://sodipodi.sourceforge.net/DTD/sodipodi-0.dtd"
   xmlns:inkscape="http://www.inkscape.org/namespaces/inkscape"
   width="291.42523"
   height="70.219856"
   id="svg3519"
   version="1.1"
   inkscape:version="0.48.0 r9654"
   sodipodi:docname="New document 3">
  <defs
     id="defs3521">
    <clipPath
       clipPathUnits="userSpaceOnUse"
       id="clipPath3001">
      <path
         inkscape:connector-curvature="0"
         d="m 189.6,608.94 233.04,0 0,56.15997 -233.04,0 0,-56.15997 z"
         id="path3003" />
    </clipPath>
  </defs>
  <sodipodi:namedview
     id="base"
     pagecolor="#ffffff"
     bordercolor="#666666"
     borderopacity="1.0"
     inkscape:pageopacity="0.0"
     inkscape:pageshadow="2"
     inkscape:zoom="1"
     inkscape:cx="138.125"
     inkscape:cy="54.196827"
     inkscape:document-units="px"
     inkscape:current-layer="layer1"
     showgrid="false"
     showborder="false"
     inkscape:showpageshadow="false"
     fit-margin-top="0"
     fit-margin-left="0"
     fit-margin-right="0"
     fit-margin-bottom="0"
     inkscape:window-width="1300"
     inkscape:window-height="746"
     inkscape:window-x="-8"
     inkscape:window-y="-8"
     inkscape:window-maximized="1" />
  <metadata
     id="metadata3524">
    <rdf:RDF>
      <cc:Work
         rdf:about="">
        <dc:format>image/svg+xml</dc:format>
        <dc:type
           rdf:resource="http://purl.org/dc/dcmitype/StillImage" />
        <dc:title></dc:title>
      </cc:Work>
    </rdf:RDF>
  </metadata>
  <g
     inkscape:label="Layer 1"
     inkscape:groupmode="layer"
     id="layer1"
     transform="translate(-236.875,-221.09265)">
    <path
       inkscape:connector-curvature="0"
       d="m 260.73903,254.41557 -19.96726,-13.37143 0,0 -0.44371,-0.22285 -0.6656,-0.22286 -0.66555,-0.22286 -0.88744,0.22286 -0.66557,0.44571 -0.44372,0.89143 0,1.56 0,0 0,28.08 0,0 0,0.66857 0.44372,1.56 0.22188,0.89143 0.66555,1.11429 0.66558,0.89143 0.88743,0.89142 0,0 11.53663,7.57715 9.31806,6.01714 0,-8.91429 -16.19567,-10.47428 0,0 -0.44371,-0.44572 -0.22186,-0.66857 -0.22186,-1.11428 0,0 0.22186,-1.11429 0.22186,-0.44571 0.22186,0 0.22185,0 15.97381,10.47428 0.22186,-9.80571 -16.19567,-10.69714 0,0 -0.44371,-0.44572 -0.22186,-0.66857 0,-1.11428 0,0 0,-1.11429 0.22186,-0.44571 0.44371,-0.22286 16.19567,10.69714 0,-10.25143 z"
       style="fill:#98002e;fill-opacity:1;fill-rule:nonzero;stroke:#000000;stroke-width:0.22235718;stroke-linecap:round;stroke-linejoin:round;stroke-miterlimit:10;stroke-opacity:0;stroke-dasharray:none"
       id="path3011" />
    <path
       inkscape:connector-curvature="0"
       d="m 238.55318,236.14114 6.87759,4.45714 15.75194,-10.92 0,0 0.44372,-0.22285 0.44372,0 0.88743,0.22285 0,0 0.44372,0.44572 0,0.44571 -0.22186,0.44572 -15.75195,10.92 6.21204,4.23428 15.75194,-11.14285 0,0 0.44372,-0.22286 0.66557,0 0.66558,0.22286 0,0 0.22186,0.66857 0.22186,0.22285 -0.22186,0.44572 -15.75195,11.14285 6.87761,4.45715 20.41097,-14.48572 0,0 0.22186,-0.44571 0.44372,-0.44571 0.22186,-0.66858 0,-0.66857 -0.22186,-0.89143 -0.66558,-0.66857 -1.10929,-0.89143 0,0 -5.76832,-3.56571 0,0 -0.44371,-0.22286 -0.88744,-0.44571 -1.33115,-0.44572 -0.66557,0.22286 -0.66558,0.22286 0,0 0.22186,-0.22286 0,-0.22286 0,-0.44571 -0.22186,-0.44571 -0.44371,-0.66858 -0.66558,-0.66857 -1.33115,-0.89143 0,0 -5.10274,-3.34285 0,0 -0.44372,-0.22286 -1.33115,-0.22286 -0.88743,0 -1.1093,0 -1.33115,0.44572 -1.10929,0.89143 0,0 -19.74537,13.59428 0,0 z"
       style="fill:#b0b7bc;fill-opacity:1;fill-rule:nonzero;stroke:#000000;stroke-width:0.22235718;stroke-linecap:round;stroke-linejoin:round;stroke-miterlimit:10;stroke-opacity:0;stroke-dasharray:none"
       id="path3007" />
    <path
       inkscape:connector-curvature="0"
       d="m 286.69648,238.81529 -20.18911,13.37142 0,0 -0.44372,0.44572 -1.33115,1.33714 -0.66557,1.11429 -0.44372,1.33714 -0.44372,1.56 -0.22186,2.00571 0,0 0,25.62857 0,0 0.22186,0.89143 0.22186,0.89143 0.44372,0.66857 0.66557,0.66857 0.44372,0.22286 0.66558,0.22286 0.44371,0 0.88744,-0.22286 1.77486,-0.89143 0,0 9.0962,-6.24 5.3246,-3.56571 0,0 0.44371,-0.44572 0.66558,-0.44571 0.66557,-0.89143 0.66558,-1.11428 0.66557,-1.33715 0.44372,-1.56 0.22186,-2.00571 0,0 0,-17.82857 -14.64265,10.02857 0,9.58286 7.32132,-4.90286 0,0 0.44372,-0.22286 0.44372,0 0.22185,0.66857 0,0 0,2.45143 -10.42734,6.90857 0,-16.93714 16.41752,-11.14285 0,-10.25143 z"
       style="fill:#98002e;fill-opacity:1;fill-rule:nonzero;stroke:#000000;stroke-width:0.22235718;stroke-linecap:round;stroke-linejoin:round;stroke-miterlimit:10;stroke-opacity:0;stroke-dasharray:none"
       id="path3015" />
    <g
       transform="matrix(1.25,0,0,-1.25,2.2571962e-4,1052.3623)"
       id="g2997">
      <g
         id="g2999"
         clip-path="url(#clipPath3001)">
        <g
           id="g3005"
           transform="matrix(0.1774867,0,0,-0.1782857,15.84054,414.4303)" />
        <g
           id="g3009"
           transform="matrix(0.1774867,0,0,-0.1782857,15.84054,414.4303)" />
        <g
           id="g3013"
           transform="matrix(0.1774867,0,0,-0.1782857,15.84054,414.4303)" />
        <g
           id="g3017"
           transform="matrix(0.1774867,0,0,-0.1782857,15.84054,414.4303)">
          <path
             inkscape:connector-curvature="0"
             d="m 1269,-1208 0,-81 15,0 38,49 37,-49 15,0 0,81 -17,0 0,-50 0,0 1,-9 0,0 -5,8 -30,41 -4,0 -30,-41 0,0 -3,-4 -2,-4 0,0 0,9 0,50 -15,0 z"
             style="fill:#231f20;fill-opacity:1;fill-rule:nonzero;stroke:#000000;stroke-width:1;stroke-linecap:round;stroke-linejoin:round;stroke-miterlimit:10;stroke-opacity:0;stroke-dasharray:none"
             id="path3019" />
        </g>
        <g
           id="g3021"
           transform="matrix(0.1774867,0,0,-0.1782857,15.84054,414.4303)">
          <path
             inkscape:connector-curvature="0"
             d="m 1408,-1208 0,-81 82,0 0,14 -64,0 0,18 38,0 0,13 -38,0 0,20 65,0 0,16 -83,0 z"
             style="fill:#231f20;fill-opacity:1;fill-rule:nonzero;stroke:#000000;stroke-width:1;stroke-linecap:round;stroke-linejoin:round;stroke-miterlimit:10;stroke-opacity:0;stroke-dasharray:none"
             id="path3023" />
        </g>
        <g
           id="g3025"
           transform="matrix(0.1774867,0,0,-0.1782857,15.84054,414.4303)">
          <path
             inkscape:connector-curvature="0"
             d="m 1598,-1275 -59,0 0,51 59,0 0,-18 -31,0 0,-13 49,0 0,27 0,0 0,6 -1,4 -1,3 -2,3 0,0 -2,1 -4,2 -10,1 -55,0 0,0 -10,-1 -4,-2 -2,-1 0,0 -2,-3 -1,-3 -1,-4 0,-6 0,-42 0,0 0,-5 1,-5 1,-3 2,-2 0,0 2,-2 4,-1 10,-1 55,0 0,0 10,1 3,1 3,2 0,0 2,2 1,3 1,4 0,5 0,2 -18,3 0,-9 z"
             style="fill:#231f20;fill-opacity:1;fill-rule:nonzero;stroke:#000000;stroke-width:1;stroke-linecap:round;stroke-linejoin:round;stroke-miterlimit:10;stroke-opacity:0;stroke-dasharray:none"
             id="path3027" />
        </g>
        <g
           id="g3029"
           transform="matrix(0.1774867,0,0,-0.1782857,15.84054,414.4303)">
          <path
             inkscape:connector-curvature="0"
             d="m 1707,-1208 0,-81 83,0 0,14 -64,0 0,18 37,0 0,13 -37,0 0,20 65,0 0,16 -84,0 z"
             style="fill:#231f20;fill-opacity:1;fill-rule:nonzero;stroke:#000000;stroke-width:1;stroke-linecap:round;stroke-linejoin:round;stroke-miterlimit:10;stroke-opacity:0;stroke-dasharray:none"
             id="path3031" />
        </g>
        <g
           id="g3033"
           transform="matrix(0.1774867,0,0,-0.1782857,15.84054,414.4303)">
          <path
             inkscape:connector-curvature="0"
             d="m 1815,-1208 0,-67 12,0 56,44 0,-44 14,0 0,67 -11,0 -56,-45 0,45 -15,0 z"
             style="fill:#231f20;fill-opacity:1;fill-rule:nonzero;stroke:#000000;stroke-width:1;stroke-linecap:round;stroke-linejoin:round;stroke-miterlimit:10;stroke-opacity:0;stroke-dasharray:none"
             id="path3035" />
        </g>
        <g
           id="g3037"
           transform="matrix(0.1774867,0,0,-0.1782857,15.84054,414.4303)">
          <path
             inkscape:connector-curvature="0"
             d="m 1920,-1208 0,-67 71,0 0,12 -55,0 0,14 32,0 0,12 -32,0 0,16 56,0 0,13 -72,0 z"
             style="fill:#231f20;fill-opacity:1;fill-rule:nonzero;stroke:#000000;stroke-width:1;stroke-linecap:round;stroke-linejoin:round;stroke-miterlimit:10;stroke-opacity:0;stroke-dasharray:none"
             id="path3039" />
        </g>
        <g
           id="g3041"
           transform="matrix(0.1774867,0,0,-0.1782857,15.84054,414.4303)">
          <path
             inkscape:connector-curvature="0"
             d="m 2011,-1208 0,-67 59,0 0,0 7,1 5,3 2,1 1,3 1,5 0,16 0,0 -1,5 -1,3 -2,1 -5,3 -7,1 -9,0 32,25 -23,0 -28,-25 -15,0 0,25 -16,0 z m 52,-55 -36,0 0,18 36,0 0,0 4,0 2,-1 1,-2 1,-2 0,-8 0,0 -1,-2 -1,-2 -2,-1 -4,0 0,0 z"
             style="fill:#231f20;fill-opacity:1;fill-rule:nonzero;stroke:#000000;stroke-width:1;stroke-linecap:round;stroke-linejoin:round;stroke-miterlimit:10;stroke-opacity:0;stroke-dasharray:none"
             id="path3043" />
        </g>
        <g
           id="g3045"
           transform="matrix(0.1774867,0,0,-0.1782857,15.84054,414.4303)">
          <path
             inkscape:connector-curvature="0"
             d="m 2174,-1262 -50,0 0,41 50,0 0,-14 -26,0 0,-12 42,0 0,23 0,0 -1,8 -1,2 -2,2 0,0 -2,2 -3,1 -8,1 -48,0 0,0 -9,-1 -3,-1 -2,-2 0,0 -1,-2 -2,-2 0,-8 0,-35 0,0 0,-8 2,-2 1,-2 0,0 2,-2 3,-1 9,-1 48,0 0,0 8,1 3,1 2,1 0,0 2,2 1,3 1,7 0,2 -16,3 0,-7 z"
             style="fill:#231f20;fill-opacity:1;fill-rule:nonzero;stroke:#000000;stroke-width:1;stroke-linecap:round;stroke-linejoin:round;stroke-miterlimit:10;stroke-opacity:0;stroke-dasharray:none"
             id="path3047" />
        </g>
        <g
           id="g3049"
           transform="matrix(0.1774867,0,0,-0.1782857,15.84054,414.4303)">
          <path
             inkscape:connector-curvature="0"
             d="m 2240,-1208 0,-30 -36,-37 22,0 23,25 24,-25 19,0 -36,36 0,31 -16,0 z"
             style="fill:#231f20;fill-opacity:1;fill-rule:nonzero;stroke:#000000;stroke-width:1;stroke-linecap:round;stroke-linejoin:round;stroke-miterlimit:10;stroke-opacity:0;stroke-dasharray:none"
             id="path3051" />
        </g>
      </g>
    </g>
  </g>
</svg>
