<?xml version="1.0" encoding="utf-8"?>
<!-- Generator: Adobe Illustrator 15.0.1, SVG Export Plug-In . SVG Version: 6.00 Build 0)  -->
<!DOCTYPE svg PUBLIC "-//W3C//DTD SVG 1.1//EN" "http://www.w3.org/Graphics/SVG/1.1/DTD/svg11.dtd">
<svg version="1.1" id="Layer_1" xmlns="http://www.w3.org/2000/svg" xmlns:xlink="http://www.w3.org/1999/xlink" x="0px" y="0px"
	 width="204px" height="48px" viewBox="0 0 204 48" enable-background="new 0 0 204 48" xml:space="preserve">
<g>
	<path fill="#E03A3E" d="M41.802,33.092c0,0-3.736-0.183-5.586,0c0.174-0.183,0.803-0.668,0.803-1.306s-1.501-3.583-1.851-4.372
		H23.261c-0.489,0.395-1.886,4.099-1.886,4.736c0,0.334,0.279,0.698,0.559,0.941c-0.733-0.183-3.422-0.061-4.679,0l0.104-0.183
		c0.559-0.091,1.397-0.151,2.2-1.608c2.829-5.04,9.009-16.366,10.335-18.4c0.524,1.002,6.949,13.39,9.428,18.248
		c0.524,1.002,1.92,1.73,2.444,1.761L41.802,33.092z M34.644,26.352c-1.676-3.401-3.352-6.619-5.203-10.171
		c-0.07,0.03-4.889,8.866-5.657,10.171H34.644z"/>
	<path fill="#E03A3E" d="M82.968,14.358l0.035,0.334c0.104,0.82-0.14,1.609-0.524,2.368l-0.209-0.122
		c0.07-2.611-4.749-3.249-7.228-3.249c-6.669,0-10.894,3.036-10.894,8.41c0,5.496,3.841,10.202,11.383,10.202
		c2.933,0,6.914-0.668,7.716-3.34l0.384-0.092c0,0.972-0.628,2.308-1.117,3.188c-2.339,0.698-4.923,1.093-7.472,1.093
		c-7.961,0-13.269-4.068-13.269-10.292c0-5.799,5.482-9.929,12.745-9.929C77.486,12.931,80.21,13.721,82.968,14.358z"/>
	<path fill="#E03A3E" d="M56.79,17.698c0,1.974-1.886,3.826-3.98,4.858c1.851,2.247,7.926,10.323,11.453,10.323
		c0.244,0,0.524,0.03,0.698,0.213c-0.14,0.213-0.873,0.121-1.152,0.121c-6.075,0-10.161-6.467-13.268-10.019
		c-1.362,0.152-2.375,0.122-3.771,0.122v8.076c0.209,0.273-0.175,0.911,1.851,1.518l-0.245,0.183c-1.641-0.183-3.492,0-5.342,0
		l-0.105-0.151c0.978-0.365,1.641-0.517,1.641-1.397c0.035-1.002,0-16.911,0-16.911c0-0.607-0.593-1.367-1.676-1.549l0.07-0.121
		c2.2,0.151,4.435-0.213,6.599-0.213C53.577,12.749,56.79,14.237,56.79,17.698z M49.108,13.356c-0.803,0-1.606,0.122-2.339,0.364
		v8.805c0,0.182,1.536,0.122,1.746,0.122c3.876,0,5.971-1.609,5.971-4.707C54.485,15.391,52.46,13.356,49.108,13.356z"/>
	<g>
		<path fill="#284B53" d="M96.104,23.61h-2.884v2.763h-0.835v-6.164h4.281c1.26,0,1.989,0.623,1.989,1.686
			c0,0.85-0.577,1.548-1.609,1.715l1.746,2.763h-0.896L96.104,23.61z M93.219,20.969v1.867h3.446c0.713,0,1.124-0.319,1.124-0.941
			c0-0.607-0.41-0.926-1.124-0.926H93.219z"/>
		<path fill="#284B53" d="M100.977,20.194h5.784v0.774h-4.949v1.73h3.249v0.759h-3.249v2.156h5.223v0.759h-6.058V20.194z"/>
		<path fill="#284B53" d="M108.461,25.614l0.41-0.698c0.911,0.592,1.974,0.896,2.869,0.896c1.199,0,1.958-0.562,1.958-1.306
			c0-0.82-0.729-1.139-2.049-1.169c-1.959-0.03-2.945-0.304-2.945-1.579c0-0.987,0.911-1.731,2.535-1.731
			c1.048,0,2.034,0.289,2.96,0.866l-0.425,0.683c-0.805-0.532-1.746-0.805-2.551-0.805c-1.002,0-1.67,0.395-1.67,0.987
			c0,0.698,0.76,0.85,2.05,0.85c2.02,0,2.976,0.683,2.976,1.958c0,1.063-1.002,2.003-2.732,2.003
			C110.678,26.57,109.463,26.236,108.461,25.614z"/>
		<path fill="#284B53" d="M116.325,23.292c0-1.837,1.503-3.264,3.795-3.264c2.308,0,3.811,1.412,3.811,3.264
			c0,1.837-1.503,3.279-3.811,3.279C117.828,26.57,116.325,25.113,116.325,23.292z M117.19,23.292c0,1.412,1.169,2.505,2.93,2.505
			c1.791,0,2.945-1.109,2.945-2.505s-1.169-2.505-2.945-2.505C118.359,20.787,117.19,21.88,117.19,23.292z"/>
		<path fill="#284B53" d="M126.086,24.445v-4.236h0.835v3.978c0,1.306,0.531,1.625,2.217,1.625s2.217-0.318,2.217-1.625v-3.978
			h0.835v4.236c0,1.503-0.881,2.125-3.067,2.125C126.906,26.57,126.086,25.948,126.086,24.445z"/>
		<path fill="#284B53" d="M138.626,23.61h-2.885v2.763h-0.835v-6.164h4.281c1.26,0,1.989,0.623,1.989,1.686
			c0,0.85-0.577,1.548-1.609,1.715l1.746,2.763h-0.896L138.626,23.61z M135.741,20.969v1.867h3.446c0.714,0,1.124-0.319,1.124-0.941
			c0-0.607-0.41-0.926-1.124-0.926H135.741z"/>
		<path fill="#284B53" d="M142.952,23.307c0-1.867,1.533-3.279,3.75-3.279c1.352,0,2.475,0.516,3.143,1.397l-0.668,0.456
			c-0.531-0.699-1.427-1.093-2.475-1.093c-1.67,0-2.885,1.078-2.885,2.505s1.23,2.505,2.885,2.505c1.139,0,1.989-0.44,2.642-1.336
			l0.668,0.456c-0.698,1.062-1.853,1.654-3.31,1.654C144.485,26.57,142.952,25.174,142.952,23.307z"/>
		<path fill="#284B53" d="M152.243,20.194h5.784v0.774h-4.949v1.73h3.249v0.759h-3.249v2.156h5.223v0.759h-6.058V20.194z"/>
		<path fill="#284B53" d="M159.728,25.614l0.41-0.698c0.911,0.592,1.974,0.896,2.869,0.896c1.199,0,1.958-0.562,1.958-1.306
			c0-0.82-0.729-1.139-2.049-1.169c-1.959-0.03-2.945-0.304-2.945-1.579c0-0.987,0.91-1.731,2.535-1.731
			c1.048,0,2.034,0.289,2.96,0.866l-0.425,0.683c-0.805-0.532-1.746-0.805-2.551-0.805c-1.002,0-1.67,0.395-1.67,0.987
			c0,0.698,0.76,0.85,2.05,0.85c2.02,0,2.976,0.683,2.976,1.958c0,1.063-1.002,2.003-2.732,2.003
			C161.944,26.57,160.729,26.236,159.728,25.614z"/>
		<path fill="#284B53" d="M173.572,20.194h0.835v5.42h4.707v0.759h-5.542V20.194z"/>
		<path fill="#284B53" d="M183.106,26.373h-0.835v-5.45H179.6v-0.729h6.179v0.729h-2.672V26.373z"/>
		<path fill="#284B53" d="M187.312,26.373v-6.179h2.732c2.095,0,3.37,1.336,3.37,3.112s-1.214,3.066-3.37,3.066H187.312z
			 M188.146,20.954v4.661h1.913c1.624,0,2.489-0.972,2.489-2.323c0-1.336-0.956-2.338-2.489-2.338H188.146z"/>
		<path fill="#284B53" d="M196.344,25.994c0-0.364,0.259-0.607,0.547-0.607s0.531,0.228,0.531,0.607
			c0,0.364-0.243,0.592-0.531,0.592S196.344,26.358,196.344,25.994z"/>
	</g>
	<path fill="#284B53" d="M58.142,44.402c-28.292,0-51.227-8.717-51.227-19.474c0-6.861,9.349-12.898,23.47-16.364
		c-15.197,3.38-25.408,9.645-25.408,16.818c0,10.754,22.935,19.473,51.228,19.473c10.235,0,19.768-1.145,27.767-3.107
		C76.387,43.434,67.563,44.402,58.142,44.402z"/>
</g>
</svg>
