<?xml version="1.0" encoding="UTF-8" standalone="no"?>
<!-- Creator: CorelDRAW X5 -->

<svg
   xmlns:dc="http://purl.org/dc/elements/1.1/"
   xmlns:cc="http://creativecommons.org/ns#"
   xmlns:rdf="http://www.w3.org/1999/02/22-rdf-syntax-ns#"
   xmlns:svg="http://www.w3.org/2000/svg"
   xmlns="http://www.w3.org/2000/svg"
   xmlns:sodipodi="http://sodipodi.sourceforge.net/DTD/sodipodi-0.dtd"
   xmlns:inkscape="http://www.inkscape.org/namespaces/inkscape"
   xml:space="preserve"
   width="249.87512"
   height="72.905884"
   style="fill-rule:evenodd"
   viewBox="0 0 7052.0312 2057.5661"
   version="1.1"
   inkscape:version="0.48.0 r9654"
   sodipodi:docname="newgoldlogo1.svg"
   id="svg4128"><metadata
   id="metadata4254"><rdf:RDF><cc:Work
       rdf:about=""><dc:format>image/svg+xml</dc:format><dc:type
         rdf:resource="http://purl.org/dc/dcmitype/StillImage" /><dc:title></dc:title></cc:Work></rdf:RDF></metadata><sodipodi:namedview
   pagecolor="#ffffff"
   bordercolor="#666666"
   borderopacity="1"
   objecttolerance="10"
   gridtolerance="10"
   guidetolerance="10"
   inkscape:pageopacity="0"
   inkscape:pageshadow="2"
   inkscape:window-width="1270"
   inkscape:window-height="746"
   id="namedview4252"
   showgrid="false"
   inkscape:zoom="1.7062794"
   inkscape:cx="231.93428"
   inkscape:cy="43.144662"
   inkscape:window-x="-8"
   inkscape:window-y="-8"
   inkscape:window-maximized="1"
   inkscape:current-layer="svg4128"
   showborder="false"
   inkscape:showpageshadow="false"
   fit-margin-top="0"
   fit-margin-left="0"
   fit-margin-right="0"
   fit-margin-bottom="0" />
 <defs
   id="defs4130">
  <style
   type="text/css"
   id="style4132">
   
    .fil14 {fill:#14110F}
    .fil12 {fill:#281827}
    .fil11 {fill:#372638}
    .fil0 {fill:#418CC6}
    .fil10 {fill:#4B2966}
    .fil17 {fill:#4C6E94}
    .fil15 {fill:#4CABE2}
    .fil1 {fill:#60A8D3}
    .fil8 {fill:#6B4975}
    .fil7 {fill:#744790}
    .fil4 {fill:#79BBDC}
    .fil19 {fill:#939293}
    .fil3 {fill:#96CCE3}
    .fil18 {fill:#A45C13}
    .fil13 {fill:#B5BBCB}
    .fil5 {fill:#BAE0F0}
    .fil6 {fill:#CDECF6}
    .fil16 {fill:#E2D799}
    .fil2 {fill:#E3E5EB}
    .fil9 {fill:#FDFEFE}
   
  </style>
 </defs>
 
 <g
   id="Layer_x0020_1_0"
   transform="translate(-2738.2813,-13607.531)">
  <metadata
   id="CorelCorpID_1Corel-Layer" />
  <sodipodi:namedview
   pagecolor="#ffffff"
   bordercolor="#666666"
   borderopacity="1"
   objecttolerance="10"
   gridtolerance="10"
   guidetolerance="10"
   inkscape:pageopacity="0"
   inkscape:pageshadow="2"
   inkscape:window-width="640"
   inkscape:window-height="480"
   id="namedview9009"
   showgrid="false" />
 </g>
<rect
   style="color:#000000;fill:#877f77;fill-opacity:1;fill-rule:nonzero;stroke:#877f77;stroke-width:8.46665001;stroke-miterlimit:9;stroke-opacity:1;stroke-dasharray:none;marker:none;visibility:visible;display:inline;overflow:visible;enable-background:accumulate"
   id="rect4673"
   width="156.42189"
   height="1502.8254"
   x="5809.751"
   y="4.2382812" /><path
   inkscape:connector-curvature="0"
   style="color:#000000;fill:#877f77;fill-opacity:1;fill-rule:nonzero;marker:none;visibility:visible;display:inline;overflow:visible;enable-background:accumulate"
   d="m 4978.988,495.70475 185.1604,185.552 0,-185.552 -185.1604,0 z"
   id="path5567-6" /><path
   id="path5592"
   d="m 5253.8028,523.16475 75.2398,251.103 87.8523,-163.437 -163.092,-87.666 z"
   style="color:#000000;fill:#877f77;fill-opacity:1;fill-rule:nonzero;marker:none;visibility:visible;display:inline;overflow:visible;enable-background:accumulate"
   inkscape:connector-curvature="0" /><path
   inkscape:connector-curvature="0"
   style="color:#000000;fill:#877f77;fill-opacity:1;fill-rule:nonzero;marker:none;visibility:visible;display:inline;overflow:visible;enable-background:accumulate"
   d="m 5482.9957,682.66475 -65.4822,253.823 159.7227,-94.44 -94.2405,-159.383 z"
   id="path5594" /><path
   id="path5598"
   d="m 5417.5772,1124.2298 185.1605,-185.55305 0,185.55305 -185.1605,0 z"
   style="color:#000000;fill:#877f77;fill-opacity:1;fill-rule:nonzero;marker:none;visibility:visible;display:inline;overflow:visible;enable-background:accumulate"
   inkscape:connector-curvature="0" /><path
   inkscape:connector-curvature="0"
   style="color:#000000;fill:#877f77;fill-opacity:1;fill-rule:nonzero;marker:none;visibility:visible;display:inline;overflow:visible;enable-background:accumulate"
   d="m 4725.5592,943.06275 -185.1605,185.55295 0,-185.55295 185.1605,0 z"
   id="path5600" /><path
   id="path5602"
   d="m 4983.1774,1386.2318 185.5533,185.159 -185.5533,0 0,-185.159 z"
   style="color:#000000;fill:#877f77;fill-opacity:1;fill-rule:nonzero;marker:none;visibility:visible;display:inline;overflow:visible;enable-background:accumulate"
   inkscape:connector-curvature="0" /><path
   inkscape:connector-curvature="0"
   style="color:#000000;fill:#877f77;fill-opacity:1;fill-rule:nonzero;marker:none;visibility:visible;display:inline;overflow:visible;enable-background:accumulate"
   d="m 4720.0905,1124.5688 -61.2824,254.868 -96.7286,-158.345 158.011,-96.523 z"
   id="path5604" /><path
   id="path5606"
   d="m 4818.996,1288.2818 69.3237,252.799 -161.1361,-92.006 91.8124,-160.793 z"
   style="color:#000000;fill:#877f77;fill-opacity:1;fill-rule:nonzero;marker:none;visibility:visible;display:inline;overflow:visible;enable-background:accumulate"
   inkscape:connector-curvature="0" /><path
   id="path5608"
   d="m 4816.0135,783.47275 -255.8847,56.897 99.7642,-156.45 156.1206,99.553 z"
   style="color:#000000;fill:#877f77;fill-opacity:1;fill-rule:nonzero;marker:none;visibility:visible;display:inline;overflow:visible;enable-background:accumulate"
   inkscape:connector-curvature="0" /><path
   inkscape:connector-curvature="0"
   style="color:#000000;fill:#877f77;fill-opacity:1;fill-rule:nonzero;marker:none;visibility:visible;display:inline;overflow:visible;enable-background:accumulate"
   d="m 4979.8387,677.04575 -256.6219,-53.475 155.3195,-101.514 101.3024,154.989 z"
   id="path5610" /><path
   id="path5612"
   d="m 5325.3345,1286.9937 253.6687,-66.0779 -94.0628,159.941 -159.6058,-93.863 z"
   style="color:#000000;fill:#877f77;fill-opacity:1;fill-rule:nonzero;marker:none;visibility:visible;display:inline;overflow:visible;enable-background:accumulate"
   inkscape:connector-curvature="0" /><path
   inkscape:connector-curvature="0"
   style="color:#000000;fill:#877f77;fill-opacity:1;fill-rule:nonzero;marker:none;visibility:visible;display:inline;overflow:visible;enable-background:accumulate"
   d="m 5162.1003,1387.4538 255.826,57.158 -156.7618,99.272 -99.0642,-156.43 z"
   id="path5614" /><g
   style="fill:#ad9d6a;fill-opacity:1;fill-rule:evenodd;stroke:#ad9d6a;stroke-width:133.39749146;stroke-miterlimit:9;stroke-opacity:1;stroke-dasharray:none"
   id="Layer_x0020_1"
   transform="matrix(0.06383759,0,0,0.06424824,1455.6938,-750.66725)"><metadata
     id="CorelCorpID_0Corel-Layer" /><path
     class="fil0"
     d="m 8267,20756.334 c 180,441.064 550,1313.145 795,1691.918 340,523.449 502,1172.486 713,1762.246 437,1224.732 875,2450.468 1319,3672.185 851,2344.974 1912,4971.264 2625,7331.309 l 1582,-6.028 4341,-11883.613 3974,11891.65 1521,-26.122 c 237,-325.523 1242,-3000.039 1487,-3607.884 973,-2419.322 1955,-4888.879 2981,-7283.083 260,-605.835 515,-1207.651 770,-1814.491 238,-566.652 682,-1128.28 781,-1799.421 l -1401,12.056 -4744,11992.12 -4021,-11892.654 -1643,-29.136 -4335,11980.063 c -315,-407.909 -1854,-5013.462 -2165,-5883.533 -510,-1425.672 -1169,-3032.19 -1606,-4447.815 l -404,-1660.772 -2571,1.005 z"
     id="path6440"
     inkscape:connector-curvature="0"
     style="fill:#ad9d6a;fill-opacity:1;stroke:#ad9d6a;stroke-width:133.39749146;stroke-miterlimit:9;stroke-opacity:1;stroke-dasharray:none" /></g><g
   style="fill:#ad9d6a;fill-opacity:1;fill-rule:evenodd"
   id="Layer_x0020_1-5"
   transform="matrix(0.09375019,0,0,0.09612643,2643.5692,-243.79625)"><metadata
     id="CorelCorpID_0Corel-Layer-1" /><g
     id="_191220816"
     style="fill:#ad9d6a;fill-opacity:1"><path
       class="fil0"
       d="m -15440.59,12538.519 c -143.766,-1606.08 1016.825,-3608.3321 2858.351,-3696.3709 2178.725,-104.3888 2941.9957,1896.6059 2787.7738,3696.3709 l -5646.1248,0 z m 7004.069,3874.963 c -1150.1364,461.576 -2450.574,2105.386 -4928.595,1100.486 -758.045,-306.878 -1382.778,-855.234 -1718.67,-1584.699 -316.288,-687.96 -573.761,-1959.491 -483.58,-2699.018 l 7543.8485,-15.091 c -54.8929,-1501.691 100.6369,-2360.697 -897.8905,-3615.8785 -778.9566,-979.7457 -1936.934,-1336.9318 -3174.638,-1430.0013 -1407.61,-105.6465 -2480.634,220.097 -3652.989,942.0151 -905.733,557.1598 -1548.763,1764.5477 -1753.958,2753.0977 -235.256,1136.958 -99.33,2794.603 431.301,3849.811 1198.495,2380.82 3519.678,3278.816 6153.23,2744.294 636.496,-129.542 1113.5409,-305.62 1689.9152,-589.859 778.956,-383.598 722.7563,-664.064 790.7188,-1453.899 z"
       id="path6482"
       inkscape:connector-curvature="0"
       style="fill:#ad9d6a;fill-opacity:1" /></g></g><path
   inkscape:connector-curvature="0"
   style="fill:#ad9d6a;fill-opacity:1;fill-rule:evenodd;stroke:#ad9d6a;stroke-width:8.39862919;stroke-miterlimit:10;stroke-opacity:1;stroke-dasharray:none"
   class="fil0"
   d="m 24.66955,570.24175 c -5.3605,66.156 7.2667,160.061 7.2667,231.002 0.1191,85.174 -7.2667,683.43395 0.1191,711.66495 l 158.5537,0.359 c -6.7899,-179.082 -31.6868,-362.472 -15.8433,-543.22895 15.1288,-172.504 72.6656,-313.067 248.0161,-322.875 179.1623,-10.048 234.555,153.483 251.7088,318.807 13.5803,130.39405 0.3574,543.82805 0.8339,546.93805 l 145.5695,0.4779 c 5.0032,-67.709 -4.4076,-547.53495 -5.4797,-657.35295 -0.834,-89.841 1.6677,-111.015 -42.7655,-174.298 -55.6308,-79.312 -150.9301,-157.071 -301.8601,-135.537 -126.5096,17.943 -218.8307,89.241 -286.3738,147.62 l -6.5519,-120.106 -153.5508,-3.352 z"
   id="path7101" /><path
   inkscape:connector-curvature="0"
   style="fill:#877f77;fill-opacity:1;fill-rule:evenodd;stroke:#877f77;stroke-width:8.64013004;stroke-miterlimit:9;stroke-opacity:1;stroke-dasharray:none"
   d="m 4072.1044,547.77475 c -218.0757,0.213 -454.0576,36.371 -495.0899,248.76 l -5.4948,21.758 c -4.7415,176.522 55.4076,248.84105 172.5397,359.40805 -70.5597,34.298 -123.2186,46.4519 -132.5644,144.082 -5.4515,57.013 10.7126,79.672 34.6179,119.536 1.4018,1.655 29.8531,25.091 35.3047,29.4529 l 38.0521,29.8521 c 2.8037,2.257 8.5701,6.8709 12.7757,10.481 -320.2442,86.498 -296.0862,494.678 125.5584,537.852 634.881,64.836 818.7133,-624.913 261.5568,-657.256 -95.1699,-5.567 -506.0549,52.329 -361.9761,-148.195 70.1992,-97.681 615.4447,102.232 555.6711,-455.99305 0,0 0,-0.125 0,-0.133 -0.01,-0.05 0.01,-0.09 0,-0.132 -0.21,-1.959 -0.3244,-3.861 -0.5493,-5.837 -0.7584,-0.489 -1.6657,-1.072 -1.9234,-3.716 l 0,-4.244 c -0.428,-0.613 -0.9005,-1.281 -0.9616,-1.461 -0.2205,-0.648 0.3817,-1.497 -0.137,-2.123 -0.2174,-0.628 -0.8627,-2.499 -0.9616,-3.051 -0.077,-0.428 0.2162,-0.944 0,-1.327 -0.4088,-0.721 -1.6083,-0.751 -1.5112,-1.856 l 0,-2.92 c -24.5391,-45.175 -36.6432,-91.743 -88.4678,-142.224 51.7126,-8.424 174.6229,-4.37 196.992,-4.245 5.5373,-0.786 9.9253,-0.06 14.1494,-1.062 l 0,-0.796 0,-2.122 0,-1.99 0,-1.857 0,-1.725 c 0,-0.591 0,-1.135 0,-1.725 0,-0.59 0,-1.268 0,-1.858 0,-0.406 0,-0.798 0,-1.193 l 0,-0.532 c -0.01,-0.136 -0.013,-0.267 0,-0.398 l 0,-1.724 c -0.013,-0.07 0.01,-0.159 -0.1372,-0.265 -0.069,-0.137 -0.1076,-0.248 -0.1372,-0.398 -0.027,-0.128 -0.027,-0.269 0,-0.398 -0.01,-0.124 -0.031,-0.269 0,-0.398 l 0,-1.724 0,-1.725 c 0,-0.606 0,-1.251 0,-1.857 0,-0.517 0,-1.075 0,-1.593 l 0,-0.397 c 0,-0.231 0.01,-0.433 0,-0.663 0,-0.554 10e-5,-1.055 0,-1.593 0.013,-0.09 -0.01,-0.18 0,-0.265 0.031,-0.473 0.01,-0.997 -0.137,-1.46 -0.049,-0.162 -0.093,-0.234 -0.1372,-0.398 -0.014,-0.05 0,-0.21 0,-0.265 l 0,-3.051 0,-0.53 c -7.3745,-31.86 24.0817,-23.116 -90.8031,-23.749 -71.6987,-1.551 -167.1024,-8.853 -266.2277,-8.756 z m -112.7825,47.761 c 83.3534,0.506 181.2439,40.647 213.4765,169.821 33.9559,136.291 -17.3122,307.59205 -109.2109,350.91705 -352.3308,166.0759 -480.3555,-370.02305 -201.3879,-501.50005 24.3863,-11.517 59.2342,-19.467 97.1222,-19.238 z m 16.7595,910.79305 c 192.6629,-2.839 385.6819,92.06 306.4777,302.757 -104.5154,278.147 -700.3124,260.579 -627.105,-127.232 21.1252,-111.9491 170.7783,-173.3171 320.6273,-175.525 z"
   id="path3926" /><path
   inkscape:connector-curvature="0"
   style="fill:#877f77;fill-opacity:1;fill-rule:evenodd;stroke:#877f77;stroke-width:1.3600961;stroke-miterlimit:9;stroke-opacity:1;stroke-dasharray:none"
   class="fil0"
   d="m 6893.6846,1075.4908 c -45.3563,559.667 -644.9927,507.997 -590.3694,-75.003 52.5511,-561.09405 635.9681,-486.92305 590.3694,75.003 z m -12.4373,-357.99105 c -20.3611,-11.428 -61.0853,-72.502 -89.6162,-94.765 -125.2178,-97.504 -266.7753,-112.385 -410.0383,-40.716 -170.9418,85.48 -240.6835,220.843 -238.732,476.80505 1.7062,222.39 95.9565,391.206 254.7048,456.924 144.2379,59.643 293.7207,4.524 397.4804,-88.933 14.2657,-12.859 79.8615,-90.718 85.7145,-94.289 l 6.4621,170.364 147.0437,3.69 17.0693,-1496.48905 -175.5753,2.382 5.6092,705.265 z"
   id="path7175" /></svg>