<?xml version="1.0" encoding="utf-8"?>
<!-- Generator: Adobe Illustrator 12.0.0, SVG Export Plug-In . SVG Version: 6.00 Build 51448)  -->
<!DOCTYPE svg PUBLIC "-//W3C//DTD SVG 1.1//EN" "http://www.w3.org/Graphics/SVG/1.1/DTD/svg11.dtd" [
	<!ENTITY ns_svg "http://www.w3.org/2000/svg">
	<!ENTITY ns_xlink "http://www.w3.org/1999/xlink">
]>
<svg  version="1.1" id="Layer_1" xmlns="&ns_svg;" xmlns:xlink="&ns_xlink;" width="277" height="127" viewBox="0 0 277 127"
	 overflow="visible" enable-background="new 0 0 277 127" xml:space="preserve">
<g>
	<polygon fill="#195E97" points="14.272,104.179 21.02,104.179 21.02,105.909 16.584,105.909 16.584,108.797 20.636,108.797 
		20.636,110.53 16.584,110.53 16.584,113.802 21.02,113.802 21.02,115.725 14.272,115.725 	"/>
	<polygon fill="#195E97" points="31.626,104.179 34.519,104.179 38.761,112.838 38.954,112.838 38.954,104.179 41.075,104.179 
		41.075,115.725 38.183,115.725 33.94,107.065 33.748,107.065 33.748,115.725 31.626,115.725 	"/>
	<polygon fill="#195E97" points="52.067,104.179 58.816,104.179 58.816,105.909 54.381,105.909 54.381,108.797 58.431,108.797 
		58.431,110.53 54.381,110.53 54.381,113.802 58.816,113.802 58.816,115.725 52.067,115.725 	"/>
	<path fill="#195E97" d="M69.229,104.179h2.506c2.507,0,5.592-0.192,5.592,3.08c0,1.345-0.964,2.501-2.506,2.694
		c0.771,0,0.964,0.77,1.349,1.152l1.736,4.619h-2.507l-1.35-3.657c-0.385-0.77-0.771-1.155-1.736-1.155h-0.771v4.813h-2.313V104.179
		L69.229,104.179z M71.542,108.989h0.771c1.157,0,2.508,0,2.508-1.539c0-1.348-1.351-1.541-2.508-1.541h-0.771V108.989
		L71.542,108.989z"/>
	<path fill="#195E97" d="M96.996,106.295c-0.963-0.386-2.121-0.577-3.084-0.577c-2.7,0-4.05,1.924-4.05,4.235
		c0,2.308,1.35,4.037,3.856,4.037c0.579,0,1.158,0,1.543,0v-3.078h-2.506v-1.923h4.628v6.351c-1.157,0.193-2.507,0.577-3.665,0.577
		c-3.663,0-6.362-1.927-6.362-5.771c0-4.043,2.506-6.159,6.362-6.159c1.351,0,2.508,0.192,3.472,0.386L96.996,106.295
		L96.996,106.295z"/>
	<polygon fill="#195E97" points="111.266,111.105 107.024,104.179 109.723,104.179 112.422,108.989 115.316,104.179 
		117.823,104.179 113.58,111.105 113.58,115.725 111.266,115.725 	"/>
	<path fill="#195E97" d="M64.6,57.028l-0.193,14.048c0,2.31,0,4.428,0,6.545c0,3.079,1.35,4.618,4.822,4.618
		c3.084,0,4.627-1.732,4.627-5.196l0.193-20.015h12.727L86.583,75.89c0,10.969-3.857,17.511-18.126,17.511
		c-12.919,0-16.969-7.891-16.969-14.243c0-2.308,0-5.193,0.193-7.694l0.192-14.434L64.6,57.028L64.6,57.028z"/>
	<polygon fill="#195E97" points="91.597,57.028 107.411,57.028 114.929,77.428 115.123,77.428 115.123,57.028 126.5,57.028 
		126.114,92.438 110.495,92.438 102.204,71.847 102.589,92.438 91.212,92.438 	"/>
	<path fill="#195E97" d="M158.703,92.438c-1.543,0.193-3.279,0.576-5.014,0.771c-1.545,0-3.473,0.191-5.592,0.191
		c-12.342,0-18.899-8.466-18.899-18.667c0-11.354,6.558-18.667,20.442-18.667c3.855,0,6.17,0.385,9.256,0.963l-1.736,10.583
		c-1.736-0.385-3.857-0.577-5.207-0.577c-8.099,0-9.641,4.62-9.641,7.698c0,3.657,1.735,7.697,9.063,7.697
		c1.928,0,3.855-0.191,5.592-0.383L158.703,92.438L158.703,92.438z"/>
	<path fill="#195E97" d="M178.371,56.066c12.342,0,18.898,8.468,18.898,18.667c0,10.201-6.557,18.667-18.898,18.667
		c-12.533,0-19.09-8.466-19.09-18.667C159.281,64.534,165.838,56.066,178.371,56.066L178.371,56.066z M178.371,66.459
		c-4.434,0-5.783,3.655-5.783,8.274c0,4.618,1.35,8.274,5.783,8.274c4.436,0,5.594-3.656,5.594-8.274
		C183.965,70.114,182.807,66.459,178.371,66.459z"/>
	<path fill="#195E97" d="M234.102,92.438h-14.078l-7.52-15.011l-0.193,15.011h-12.34l0.193-35.409h18.703
		c9.834,0,12.92,4.81,12.92,10.584c0,4.811-3.086,8.851-7.521,9.043L234.102,92.438L234.102,92.438z M212.697,72.617h2.506
		c2.314,0,4.242-0.193,4.242-3.271c0-2.311-0.771-3.849-3.857-3.849h-2.891V72.617L212.697,72.617z"/>
	<path fill="#195E97" d="M15.043,82.622c4.049,0.771,6.363,0.963,9.448,0.963c5.014,0,7.135-0.384,8.292-1.729
		c0.579-0.578,0.964-1.155,0.964-2.119c0-2.887-1.928-3.657-3.664-3.847l-6.364-1.541c-8.099-1.925-10.22-8.081-10.22-11.74
		c0-4.618,1.543-7.889,4.05-10.198c3.086-3.079,7.52-4.812,15.427-4.812c4.627,0,9.256,0.385,13.884,1.154l-0.772,9.431
		c-3.278-0.579-6.75-0.963-10.22-0.963c-4.05,0-8.099,0.577-8.099,4.234c0,2.695,2.699,3.271,3.664,3.464l7.327,1.349
		c6.171,1.153,9.642,5.388,9.642,11.931c0,10.393-5.979,15.396-18.32,15.396c-6.364,0-11.955-0.579-16.391-1.349L15.043,82.622
		L15.043,82.622z"/>
	
		<linearGradient id="XMLID_2_" gradientUnits="userSpaceOnUse" x1="134.2656" y1="154.127" x2="232.3852" y2="56.0066" gradientTransform="matrix(1.0952 0 0 -1.0952 15.9457 170.8735)">
		<stop  offset="0" style="stop-color:#EFAF1C"/>
		<stop  offset="1" style="stop-color:#DC4131"/>
	</linearGradient>
	<path fill="url(#XMLID_2_)" d="M232.57,115.851h6.807c8.041-6.008,14.227-13.433,18.471-21.917
		c8.484-15.997,7.246-39.684-2.563-54.709l0,0c-10.818-16.783-27.938-27.408-48.135-28.142h-4.525
		c-0.768,0.028-1.539,0.068-2.314,0.125C179.453,12.975,158.949,28,151.789,48.15h10.166l5.301-8.042
		c13.611-16.792,36.061-23.244,56.654-16.351c17.939,5.744,31.639,24.04,33.496,42.424
		C259.527,86.774,249.717,105.157,232.57,115.851L232.57,115.851z"/>
	<path fill="#FFFFFF" d="M74.545,106.66c0.088,0.884,0.088,2.12-1.062,2.12h-1.502v-2.474L74.545,106.66L74.545,106.66z"/>
</g>
</svg>
